%TF.GenerationSoftware,KiCad,Pcbnew,9.0.5*%
%TF.CreationDate,2025-11-07T17:08:23-05:00*%
%TF.ProjectId,PBB,5042422e-6b69-4636-9164-5f7063625858,rev?*%
%TF.SameCoordinates,Original*%
%TF.FileFunction,Legend,Top*%
%TF.FilePolarity,Positive*%
%FSLAX46Y46*%
G04 Gerber Fmt 4.6, Leading zero omitted, Abs format (unit mm)*
G04 Created by KiCad (PCBNEW 9.0.5) date 2025-11-07 17:08:23*
%MOMM*%
%LPD*%
G01*
G04 APERTURE LIST*
G04 Aperture macros list*
%AMRoundRect*
0 Rectangle with rounded corners*
0 $1 Rounding radius*
0 $2 $3 $4 $5 $6 $7 $8 $9 X,Y pos of 4 corners*
0 Add a 4 corners polygon primitive as box body*
4,1,4,$2,$3,$4,$5,$6,$7,$8,$9,$2,$3,0*
0 Add four circle primitives for the rounded corners*
1,1,$1+$1,$2,$3*
1,1,$1+$1,$4,$5*
1,1,$1+$1,$6,$7*
1,1,$1+$1,$8,$9*
0 Add four rect primitives between the rounded corners*
20,1,$1+$1,$2,$3,$4,$5,0*
20,1,$1+$1,$4,$5,$6,$7,0*
20,1,$1+$1,$6,$7,$8,$9,0*
20,1,$1+$1,$8,$9,$2,$3,0*%
G04 Aperture macros list end*
%ADD10C,0.300000*%
%ADD11C,0.150000*%
%ADD12C,0.100000*%
%ADD13C,0.120000*%
%ADD14R,1.700000X1.700000*%
%ADD15C,1.700000*%
%ADD16RoundRect,0.250000X0.412500X0.650000X-0.412500X0.650000X-0.412500X-0.650000X0.412500X-0.650000X0*%
%ADD17RoundRect,0.250000X0.400000X0.625000X-0.400000X0.625000X-0.400000X-0.625000X0.400000X-0.625000X0*%
%ADD18C,3.200000*%
%ADD19RoundRect,0.250000X0.750000X-0.600000X0.750000X0.600000X-0.750000X0.600000X-0.750000X-0.600000X0*%
%ADD20O,2.000000X1.700000*%
%ADD21C,1.905000*%
%ADD22R,1.905000X1.905000*%
%ADD23RoundRect,0.250000X-0.750000X0.600000X-0.750000X-0.600000X0.750000X-0.600000X0.750000X0.600000X0*%
%ADD24R,0.900000X2.000000*%
%ADD25RoundRect,0.250000X1.800000X1.800000X-1.800000X1.800000X-1.800000X-1.800000X1.800000X-1.800000X0*%
%ADD26C,4.100000*%
%ADD27RoundRect,0.250000X0.600000X0.725000X-0.600000X0.725000X-0.600000X-0.725000X0.600000X-0.725000X0*%
%ADD28O,1.700000X1.950000*%
%ADD29RoundRect,0.250000X-0.400000X-0.625000X0.400000X-0.625000X0.400000X0.625000X-0.400000X0.625000X0*%
G04 APERTURE END LIST*
D10*
X155054510Y-90800828D02*
X155054510Y-89300828D01*
X155054510Y-89300828D02*
X155625939Y-89300828D01*
X155625939Y-89300828D02*
X155768796Y-89372257D01*
X155768796Y-89372257D02*
X155840225Y-89443685D01*
X155840225Y-89443685D02*
X155911653Y-89586542D01*
X155911653Y-89586542D02*
X155911653Y-89800828D01*
X155911653Y-89800828D02*
X155840225Y-89943685D01*
X155840225Y-89943685D02*
X155768796Y-90015114D01*
X155768796Y-90015114D02*
X155625939Y-90086542D01*
X155625939Y-90086542D02*
X155054510Y-90086542D01*
X156554510Y-90800828D02*
X156554510Y-89800828D01*
X156554510Y-89300828D02*
X156483082Y-89372257D01*
X156483082Y-89372257D02*
X156554510Y-89443685D01*
X156554510Y-89443685D02*
X156625939Y-89372257D01*
X156625939Y-89372257D02*
X156554510Y-89300828D01*
X156554510Y-89300828D02*
X156554510Y-89443685D01*
X157268796Y-89800828D02*
X157268796Y-90800828D01*
X157268796Y-89943685D02*
X157340225Y-89872257D01*
X157340225Y-89872257D02*
X157483082Y-89800828D01*
X157483082Y-89800828D02*
X157697368Y-89800828D01*
X157697368Y-89800828D02*
X157840225Y-89872257D01*
X157840225Y-89872257D02*
X157911654Y-90015114D01*
X157911654Y-90015114D02*
X157911654Y-90800828D01*
X158411654Y-89800828D02*
X158983082Y-89800828D01*
X158625939Y-89300828D02*
X158625939Y-90586542D01*
X158625939Y-90586542D02*
X158697368Y-90729400D01*
X158697368Y-90729400D02*
X158840225Y-90800828D01*
X158840225Y-90800828D02*
X158983082Y-90800828D01*
X161125939Y-90015114D02*
X161340225Y-90086542D01*
X161340225Y-90086542D02*
X161411654Y-90157971D01*
X161411654Y-90157971D02*
X161483082Y-90300828D01*
X161483082Y-90300828D02*
X161483082Y-90515114D01*
X161483082Y-90515114D02*
X161411654Y-90657971D01*
X161411654Y-90657971D02*
X161340225Y-90729400D01*
X161340225Y-90729400D02*
X161197368Y-90800828D01*
X161197368Y-90800828D02*
X160625939Y-90800828D01*
X160625939Y-90800828D02*
X160625939Y-89300828D01*
X160625939Y-89300828D02*
X161125939Y-89300828D01*
X161125939Y-89300828D02*
X161268797Y-89372257D01*
X161268797Y-89372257D02*
X161340225Y-89443685D01*
X161340225Y-89443685D02*
X161411654Y-89586542D01*
X161411654Y-89586542D02*
X161411654Y-89729400D01*
X161411654Y-89729400D02*
X161340225Y-89872257D01*
X161340225Y-89872257D02*
X161268797Y-89943685D01*
X161268797Y-89943685D02*
X161125939Y-90015114D01*
X161125939Y-90015114D02*
X160625939Y-90015114D01*
X162125939Y-90800828D02*
X162125939Y-89800828D01*
X162125939Y-90086542D02*
X162197368Y-89943685D01*
X162197368Y-89943685D02*
X162268797Y-89872257D01*
X162268797Y-89872257D02*
X162411654Y-89800828D01*
X162411654Y-89800828D02*
X162554511Y-89800828D01*
X163697368Y-90800828D02*
X163697368Y-90015114D01*
X163697368Y-90015114D02*
X163625939Y-89872257D01*
X163625939Y-89872257D02*
X163483082Y-89800828D01*
X163483082Y-89800828D02*
X163197368Y-89800828D01*
X163197368Y-89800828D02*
X163054510Y-89872257D01*
X163697368Y-90729400D02*
X163554510Y-90800828D01*
X163554510Y-90800828D02*
X163197368Y-90800828D01*
X163197368Y-90800828D02*
X163054510Y-90729400D01*
X163054510Y-90729400D02*
X162983082Y-90586542D01*
X162983082Y-90586542D02*
X162983082Y-90443685D01*
X162983082Y-90443685D02*
X163054510Y-90300828D01*
X163054510Y-90300828D02*
X163197368Y-90229400D01*
X163197368Y-90229400D02*
X163554510Y-90229400D01*
X163554510Y-90229400D02*
X163697368Y-90157971D01*
X164411653Y-90800828D02*
X164411653Y-89800828D01*
X164411653Y-89300828D02*
X164340225Y-89372257D01*
X164340225Y-89372257D02*
X164411653Y-89443685D01*
X164411653Y-89443685D02*
X164483082Y-89372257D01*
X164483082Y-89372257D02*
X164411653Y-89300828D01*
X164411653Y-89300828D02*
X164411653Y-89443685D01*
X165125939Y-89800828D02*
X165125939Y-90800828D01*
X165125939Y-89943685D02*
X165197368Y-89872257D01*
X165197368Y-89872257D02*
X165340225Y-89800828D01*
X165340225Y-89800828D02*
X165554511Y-89800828D01*
X165554511Y-89800828D02*
X165697368Y-89872257D01*
X165697368Y-89872257D02*
X165768797Y-90015114D01*
X165768797Y-90015114D02*
X165768797Y-90800828D01*
X167411654Y-89300828D02*
X167911654Y-90800828D01*
X167911654Y-90800828D02*
X168411654Y-89300828D01*
X168840225Y-89443685D02*
X168911653Y-89372257D01*
X168911653Y-89372257D02*
X169054511Y-89300828D01*
X169054511Y-89300828D02*
X169411653Y-89300828D01*
X169411653Y-89300828D02*
X169554511Y-89372257D01*
X169554511Y-89372257D02*
X169625939Y-89443685D01*
X169625939Y-89443685D02*
X169697368Y-89586542D01*
X169697368Y-89586542D02*
X169697368Y-89729400D01*
X169697368Y-89729400D02*
X169625939Y-89943685D01*
X169625939Y-89943685D02*
X168768796Y-90800828D01*
X168768796Y-90800828D02*
X169697368Y-90800828D01*
D11*
X122833095Y-76697200D02*
X122975952Y-76744819D01*
X122975952Y-76744819D02*
X123214047Y-76744819D01*
X123214047Y-76744819D02*
X123309285Y-76697200D01*
X123309285Y-76697200D02*
X123356904Y-76649580D01*
X123356904Y-76649580D02*
X123404523Y-76554342D01*
X123404523Y-76554342D02*
X123404523Y-76459104D01*
X123404523Y-76459104D02*
X123356904Y-76363866D01*
X123356904Y-76363866D02*
X123309285Y-76316247D01*
X123309285Y-76316247D02*
X123214047Y-76268628D01*
X123214047Y-76268628D02*
X123023571Y-76221009D01*
X123023571Y-76221009D02*
X122928333Y-76173390D01*
X122928333Y-76173390D02*
X122880714Y-76125771D01*
X122880714Y-76125771D02*
X122833095Y-76030533D01*
X122833095Y-76030533D02*
X122833095Y-75935295D01*
X122833095Y-75935295D02*
X122880714Y-75840057D01*
X122880714Y-75840057D02*
X122928333Y-75792438D01*
X122928333Y-75792438D02*
X123023571Y-75744819D01*
X123023571Y-75744819D02*
X123261666Y-75744819D01*
X123261666Y-75744819D02*
X123404523Y-75792438D01*
X124261666Y-76078152D02*
X124261666Y-76744819D01*
X124023571Y-75697200D02*
X123785476Y-76411485D01*
X123785476Y-76411485D02*
X124404523Y-76411485D01*
X169217261Y-95854819D02*
X168645833Y-95854819D01*
X168931547Y-95854819D02*
X168931547Y-94854819D01*
X168931547Y-94854819D02*
X168836309Y-94997676D01*
X168836309Y-94997676D02*
X168741071Y-95092914D01*
X168741071Y-95092914D02*
X168645833Y-95140533D01*
X170074404Y-95188152D02*
X170074404Y-95854819D01*
X169645833Y-95188152D02*
X169645833Y-95711961D01*
X169645833Y-95711961D02*
X169693452Y-95807200D01*
X169693452Y-95807200D02*
X169788690Y-95854819D01*
X169788690Y-95854819D02*
X169931547Y-95854819D01*
X169931547Y-95854819D02*
X170026785Y-95807200D01*
X170026785Y-95807200D02*
X170074404Y-95759580D01*
X170883928Y-95331009D02*
X170550595Y-95331009D01*
X170550595Y-95854819D02*
X170550595Y-94854819D01*
X170550595Y-94854819D02*
X171026785Y-94854819D01*
X168404761Y-74704819D02*
X167833333Y-74704819D01*
X168119047Y-74704819D02*
X168119047Y-73704819D01*
X168119047Y-73704819D02*
X168023809Y-73847676D01*
X168023809Y-73847676D02*
X167928571Y-73942914D01*
X167928571Y-73942914D02*
X167833333Y-73990533D01*
X169023809Y-73704819D02*
X169119047Y-73704819D01*
X169119047Y-73704819D02*
X169214285Y-73752438D01*
X169214285Y-73752438D02*
X169261904Y-73800057D01*
X169261904Y-73800057D02*
X169309523Y-73895295D01*
X169309523Y-73895295D02*
X169357142Y-74085771D01*
X169357142Y-74085771D02*
X169357142Y-74323866D01*
X169357142Y-74323866D02*
X169309523Y-74514342D01*
X169309523Y-74514342D02*
X169261904Y-74609580D01*
X169261904Y-74609580D02*
X169214285Y-74657200D01*
X169214285Y-74657200D02*
X169119047Y-74704819D01*
X169119047Y-74704819D02*
X169023809Y-74704819D01*
X169023809Y-74704819D02*
X168928571Y-74657200D01*
X168928571Y-74657200D02*
X168880952Y-74609580D01*
X168880952Y-74609580D02*
X168833333Y-74514342D01*
X168833333Y-74514342D02*
X168785714Y-74323866D01*
X168785714Y-74323866D02*
X168785714Y-74085771D01*
X168785714Y-74085771D02*
X168833333Y-73895295D01*
X168833333Y-73895295D02*
X168880952Y-73800057D01*
X168880952Y-73800057D02*
X168928571Y-73752438D01*
X168928571Y-73752438D02*
X169023809Y-73704819D01*
X169785714Y-74704819D02*
X169785714Y-73704819D01*
X169880952Y-74323866D02*
X170166666Y-74704819D01*
X170166666Y-74038152D02*
X169785714Y-74419104D01*
X168404761Y-67454819D02*
X167833333Y-67454819D01*
X168119047Y-67454819D02*
X168119047Y-66454819D01*
X168119047Y-66454819D02*
X168023809Y-66597676D01*
X168023809Y-66597676D02*
X167928571Y-66692914D01*
X167928571Y-66692914D02*
X167833333Y-66740533D01*
X169023809Y-66454819D02*
X169119047Y-66454819D01*
X169119047Y-66454819D02*
X169214285Y-66502438D01*
X169214285Y-66502438D02*
X169261904Y-66550057D01*
X169261904Y-66550057D02*
X169309523Y-66645295D01*
X169309523Y-66645295D02*
X169357142Y-66835771D01*
X169357142Y-66835771D02*
X169357142Y-67073866D01*
X169357142Y-67073866D02*
X169309523Y-67264342D01*
X169309523Y-67264342D02*
X169261904Y-67359580D01*
X169261904Y-67359580D02*
X169214285Y-67407200D01*
X169214285Y-67407200D02*
X169119047Y-67454819D01*
X169119047Y-67454819D02*
X169023809Y-67454819D01*
X169023809Y-67454819D02*
X168928571Y-67407200D01*
X168928571Y-67407200D02*
X168880952Y-67359580D01*
X168880952Y-67359580D02*
X168833333Y-67264342D01*
X168833333Y-67264342D02*
X168785714Y-67073866D01*
X168785714Y-67073866D02*
X168785714Y-66835771D01*
X168785714Y-66835771D02*
X168833333Y-66645295D01*
X168833333Y-66645295D02*
X168880952Y-66550057D01*
X168880952Y-66550057D02*
X168928571Y-66502438D01*
X168928571Y-66502438D02*
X169023809Y-66454819D01*
X169785714Y-67454819D02*
X169785714Y-66454819D01*
X169880952Y-67073866D02*
X170166666Y-67454819D01*
X170166666Y-66788152D02*
X169785714Y-67169104D01*
D12*
X184902381Y-80177419D02*
X184902381Y-79177419D01*
X184902381Y-79177419D02*
X185140476Y-79177419D01*
X185140476Y-79177419D02*
X185283333Y-79225038D01*
X185283333Y-79225038D02*
X185378571Y-79320276D01*
X185378571Y-79320276D02*
X185426190Y-79415514D01*
X185426190Y-79415514D02*
X185473809Y-79605990D01*
X185473809Y-79605990D02*
X185473809Y-79748847D01*
X185473809Y-79748847D02*
X185426190Y-79939323D01*
X185426190Y-79939323D02*
X185378571Y-80034561D01*
X185378571Y-80034561D02*
X185283333Y-80129800D01*
X185283333Y-80129800D02*
X185140476Y-80177419D01*
X185140476Y-80177419D02*
X184902381Y-80177419D01*
X186473809Y-80177419D02*
X186140476Y-79701228D01*
X185902381Y-80177419D02*
X185902381Y-79177419D01*
X185902381Y-79177419D02*
X186283333Y-79177419D01*
X186283333Y-79177419D02*
X186378571Y-79225038D01*
X186378571Y-79225038D02*
X186426190Y-79272657D01*
X186426190Y-79272657D02*
X186473809Y-79367895D01*
X186473809Y-79367895D02*
X186473809Y-79510752D01*
X186473809Y-79510752D02*
X186426190Y-79605990D01*
X186426190Y-79605990D02*
X186378571Y-79653609D01*
X186378571Y-79653609D02*
X186283333Y-79701228D01*
X186283333Y-79701228D02*
X185902381Y-79701228D01*
X186759524Y-79177419D02*
X187092857Y-80177419D01*
X187092857Y-80177419D02*
X187426190Y-79177419D01*
X187521429Y-80272657D02*
X188283333Y-80272657D01*
X188473810Y-79272657D02*
X188521429Y-79225038D01*
X188521429Y-79225038D02*
X188616667Y-79177419D01*
X188616667Y-79177419D02*
X188854762Y-79177419D01*
X188854762Y-79177419D02*
X188950000Y-79225038D01*
X188950000Y-79225038D02*
X188997619Y-79272657D01*
X188997619Y-79272657D02*
X189045238Y-79367895D01*
X189045238Y-79367895D02*
X189045238Y-79463133D01*
X189045238Y-79463133D02*
X188997619Y-79605990D01*
X188997619Y-79605990D02*
X188426191Y-80177419D01*
X188426191Y-80177419D02*
X189045238Y-80177419D01*
D11*
X130577200Y-59471904D02*
X130624819Y-59329047D01*
X130624819Y-59329047D02*
X130624819Y-59090952D01*
X130624819Y-59090952D02*
X130577200Y-58995714D01*
X130577200Y-58995714D02*
X130529580Y-58948095D01*
X130529580Y-58948095D02*
X130434342Y-58900476D01*
X130434342Y-58900476D02*
X130339104Y-58900476D01*
X130339104Y-58900476D02*
X130243866Y-58948095D01*
X130243866Y-58948095D02*
X130196247Y-58995714D01*
X130196247Y-58995714D02*
X130148628Y-59090952D01*
X130148628Y-59090952D02*
X130101009Y-59281428D01*
X130101009Y-59281428D02*
X130053390Y-59376666D01*
X130053390Y-59376666D02*
X130005771Y-59424285D01*
X130005771Y-59424285D02*
X129910533Y-59471904D01*
X129910533Y-59471904D02*
X129815295Y-59471904D01*
X129815295Y-59471904D02*
X129720057Y-59424285D01*
X129720057Y-59424285D02*
X129672438Y-59376666D01*
X129672438Y-59376666D02*
X129624819Y-59281428D01*
X129624819Y-59281428D02*
X129624819Y-59043333D01*
X129624819Y-59043333D02*
X129672438Y-58900476D01*
X129720057Y-58519523D02*
X129672438Y-58471904D01*
X129672438Y-58471904D02*
X129624819Y-58376666D01*
X129624819Y-58376666D02*
X129624819Y-58138571D01*
X129624819Y-58138571D02*
X129672438Y-58043333D01*
X129672438Y-58043333D02*
X129720057Y-57995714D01*
X129720057Y-57995714D02*
X129815295Y-57948095D01*
X129815295Y-57948095D02*
X129910533Y-57948095D01*
X129910533Y-57948095D02*
X130053390Y-57995714D01*
X130053390Y-57995714D02*
X130624819Y-58567142D01*
X130624819Y-58567142D02*
X130624819Y-57948095D01*
X154154761Y-68954819D02*
X153583333Y-68954819D01*
X153869047Y-68954819D02*
X153869047Y-67954819D01*
X153869047Y-67954819D02*
X153773809Y-68097676D01*
X153773809Y-68097676D02*
X153678571Y-68192914D01*
X153678571Y-68192914D02*
X153583333Y-68240533D01*
X154773809Y-67954819D02*
X154869047Y-67954819D01*
X154869047Y-67954819D02*
X154964285Y-68002438D01*
X154964285Y-68002438D02*
X155011904Y-68050057D01*
X155011904Y-68050057D02*
X155059523Y-68145295D01*
X155059523Y-68145295D02*
X155107142Y-68335771D01*
X155107142Y-68335771D02*
X155107142Y-68573866D01*
X155107142Y-68573866D02*
X155059523Y-68764342D01*
X155059523Y-68764342D02*
X155011904Y-68859580D01*
X155011904Y-68859580D02*
X154964285Y-68907200D01*
X154964285Y-68907200D02*
X154869047Y-68954819D01*
X154869047Y-68954819D02*
X154773809Y-68954819D01*
X154773809Y-68954819D02*
X154678571Y-68907200D01*
X154678571Y-68907200D02*
X154630952Y-68859580D01*
X154630952Y-68859580D02*
X154583333Y-68764342D01*
X154583333Y-68764342D02*
X154535714Y-68573866D01*
X154535714Y-68573866D02*
X154535714Y-68335771D01*
X154535714Y-68335771D02*
X154583333Y-68145295D01*
X154583333Y-68145295D02*
X154630952Y-68050057D01*
X154630952Y-68050057D02*
X154678571Y-68002438D01*
X154678571Y-68002438D02*
X154773809Y-67954819D01*
X155535714Y-68954819D02*
X155535714Y-67954819D01*
X155630952Y-68573866D02*
X155916666Y-68954819D01*
X155916666Y-68288152D02*
X155535714Y-68669104D01*
D12*
X137736390Y-73197238D02*
X137688771Y-73340095D01*
X137688771Y-73340095D02*
X137641152Y-73387714D01*
X137641152Y-73387714D02*
X137545914Y-73435333D01*
X137545914Y-73435333D02*
X137403057Y-73435333D01*
X137403057Y-73435333D02*
X137307819Y-73387714D01*
X137307819Y-73387714D02*
X137260200Y-73340095D01*
X137260200Y-73340095D02*
X137212580Y-73244857D01*
X137212580Y-73244857D02*
X137212580Y-72863905D01*
X137212580Y-72863905D02*
X138212580Y-72863905D01*
X138212580Y-72863905D02*
X138212580Y-73197238D01*
X138212580Y-73197238D02*
X138164961Y-73292476D01*
X138164961Y-73292476D02*
X138117342Y-73340095D01*
X138117342Y-73340095D02*
X138022104Y-73387714D01*
X138022104Y-73387714D02*
X137926866Y-73387714D01*
X137926866Y-73387714D02*
X137831628Y-73340095D01*
X137831628Y-73340095D02*
X137784009Y-73292476D01*
X137784009Y-73292476D02*
X137736390Y-73197238D01*
X137736390Y-73197238D02*
X137736390Y-72863905D01*
X137307819Y-74435333D02*
X137260200Y-74387714D01*
X137260200Y-74387714D02*
X137212580Y-74244857D01*
X137212580Y-74244857D02*
X137212580Y-74149619D01*
X137212580Y-74149619D02*
X137260200Y-74006762D01*
X137260200Y-74006762D02*
X137355438Y-73911524D01*
X137355438Y-73911524D02*
X137450676Y-73863905D01*
X137450676Y-73863905D02*
X137641152Y-73816286D01*
X137641152Y-73816286D02*
X137784009Y-73816286D01*
X137784009Y-73816286D02*
X137974485Y-73863905D01*
X137974485Y-73863905D02*
X138069723Y-73911524D01*
X138069723Y-73911524D02*
X138164961Y-74006762D01*
X138164961Y-74006762D02*
X138212580Y-74149619D01*
X138212580Y-74149619D02*
X138212580Y-74244857D01*
X138212580Y-74244857D02*
X138164961Y-74387714D01*
X138164961Y-74387714D02*
X138117342Y-74435333D01*
X137212580Y-75387714D02*
X137212580Y-74816286D01*
X137212580Y-75102000D02*
X138212580Y-75102000D01*
X138212580Y-75102000D02*
X138069723Y-75006762D01*
X138069723Y-75006762D02*
X137974485Y-74911524D01*
X137974485Y-74911524D02*
X137926866Y-74816286D01*
X135302381Y-94352419D02*
X135302381Y-93352419D01*
X135302381Y-93352419D02*
X135540476Y-93352419D01*
X135540476Y-93352419D02*
X135683333Y-93400038D01*
X135683333Y-93400038D02*
X135778571Y-93495276D01*
X135778571Y-93495276D02*
X135826190Y-93590514D01*
X135826190Y-93590514D02*
X135873809Y-93780990D01*
X135873809Y-93780990D02*
X135873809Y-93923847D01*
X135873809Y-93923847D02*
X135826190Y-94114323D01*
X135826190Y-94114323D02*
X135778571Y-94209561D01*
X135778571Y-94209561D02*
X135683333Y-94304800D01*
X135683333Y-94304800D02*
X135540476Y-94352419D01*
X135540476Y-94352419D02*
X135302381Y-94352419D01*
X136873809Y-94352419D02*
X136540476Y-93876228D01*
X136302381Y-94352419D02*
X136302381Y-93352419D01*
X136302381Y-93352419D02*
X136683333Y-93352419D01*
X136683333Y-93352419D02*
X136778571Y-93400038D01*
X136778571Y-93400038D02*
X136826190Y-93447657D01*
X136826190Y-93447657D02*
X136873809Y-93542895D01*
X136873809Y-93542895D02*
X136873809Y-93685752D01*
X136873809Y-93685752D02*
X136826190Y-93780990D01*
X136826190Y-93780990D02*
X136778571Y-93828609D01*
X136778571Y-93828609D02*
X136683333Y-93876228D01*
X136683333Y-93876228D02*
X136302381Y-93876228D01*
X137159524Y-93352419D02*
X137492857Y-94352419D01*
X137492857Y-94352419D02*
X137826190Y-93352419D01*
X137921429Y-94447657D02*
X138683333Y-94447657D01*
X138826191Y-93352419D02*
X139445238Y-93352419D01*
X139445238Y-93352419D02*
X139111905Y-93733371D01*
X139111905Y-93733371D02*
X139254762Y-93733371D01*
X139254762Y-93733371D02*
X139350000Y-93780990D01*
X139350000Y-93780990D02*
X139397619Y-93828609D01*
X139397619Y-93828609D02*
X139445238Y-93923847D01*
X139445238Y-93923847D02*
X139445238Y-94161942D01*
X139445238Y-94161942D02*
X139397619Y-94257180D01*
X139397619Y-94257180D02*
X139350000Y-94304800D01*
X139350000Y-94304800D02*
X139254762Y-94352419D01*
X139254762Y-94352419D02*
X138969048Y-94352419D01*
X138969048Y-94352419D02*
X138873810Y-94304800D01*
X138873810Y-94304800D02*
X138826191Y-94257180D01*
D11*
X122833095Y-67697200D02*
X122975952Y-67744819D01*
X122975952Y-67744819D02*
X123214047Y-67744819D01*
X123214047Y-67744819D02*
X123309285Y-67697200D01*
X123309285Y-67697200D02*
X123356904Y-67649580D01*
X123356904Y-67649580D02*
X123404523Y-67554342D01*
X123404523Y-67554342D02*
X123404523Y-67459104D01*
X123404523Y-67459104D02*
X123356904Y-67363866D01*
X123356904Y-67363866D02*
X123309285Y-67316247D01*
X123309285Y-67316247D02*
X123214047Y-67268628D01*
X123214047Y-67268628D02*
X123023571Y-67221009D01*
X123023571Y-67221009D02*
X122928333Y-67173390D01*
X122928333Y-67173390D02*
X122880714Y-67125771D01*
X122880714Y-67125771D02*
X122833095Y-67030533D01*
X122833095Y-67030533D02*
X122833095Y-66935295D01*
X122833095Y-66935295D02*
X122880714Y-66840057D01*
X122880714Y-66840057D02*
X122928333Y-66792438D01*
X122928333Y-66792438D02*
X123023571Y-66744819D01*
X123023571Y-66744819D02*
X123261666Y-66744819D01*
X123261666Y-66744819D02*
X123404523Y-66792438D01*
X123737857Y-66744819D02*
X124356904Y-66744819D01*
X124356904Y-66744819D02*
X124023571Y-67125771D01*
X124023571Y-67125771D02*
X124166428Y-67125771D01*
X124166428Y-67125771D02*
X124261666Y-67173390D01*
X124261666Y-67173390D02*
X124309285Y-67221009D01*
X124309285Y-67221009D02*
X124356904Y-67316247D01*
X124356904Y-67316247D02*
X124356904Y-67554342D01*
X124356904Y-67554342D02*
X124309285Y-67649580D01*
X124309285Y-67649580D02*
X124261666Y-67697200D01*
X124261666Y-67697200D02*
X124166428Y-67744819D01*
X124166428Y-67744819D02*
X123880714Y-67744819D01*
X123880714Y-67744819D02*
X123785476Y-67697200D01*
X123785476Y-67697200D02*
X123737857Y-67649580D01*
X179918571Y-88114700D02*
X181061429Y-88114700D01*
X180490000Y-88686128D02*
X180490000Y-87543271D01*
X194418571Y-88114700D02*
X195561429Y-88114700D01*
D12*
X159907143Y-76613609D02*
X160240476Y-76613609D01*
X160383333Y-77137419D02*
X159907143Y-77137419D01*
X159907143Y-77137419D02*
X159907143Y-76137419D01*
X159907143Y-76137419D02*
X160383333Y-76137419D01*
X160764286Y-77089800D02*
X160907143Y-77137419D01*
X160907143Y-77137419D02*
X161145238Y-77137419D01*
X161145238Y-77137419D02*
X161240476Y-77089800D01*
X161240476Y-77089800D02*
X161288095Y-77042180D01*
X161288095Y-77042180D02*
X161335714Y-76946942D01*
X161335714Y-76946942D02*
X161335714Y-76851704D01*
X161335714Y-76851704D02*
X161288095Y-76756466D01*
X161288095Y-76756466D02*
X161240476Y-76708847D01*
X161240476Y-76708847D02*
X161145238Y-76661228D01*
X161145238Y-76661228D02*
X160954762Y-76613609D01*
X160954762Y-76613609D02*
X160859524Y-76565990D01*
X160859524Y-76565990D02*
X160811905Y-76518371D01*
X160811905Y-76518371D02*
X160764286Y-76423133D01*
X160764286Y-76423133D02*
X160764286Y-76327895D01*
X160764286Y-76327895D02*
X160811905Y-76232657D01*
X160811905Y-76232657D02*
X160859524Y-76185038D01*
X160859524Y-76185038D02*
X160954762Y-76137419D01*
X160954762Y-76137419D02*
X161192857Y-76137419D01*
X161192857Y-76137419D02*
X161335714Y-76185038D01*
X161764286Y-77137419D02*
X161764286Y-76137419D01*
X161764286Y-76137419D02*
X162145238Y-76137419D01*
X162145238Y-76137419D02*
X162240476Y-76185038D01*
X162240476Y-76185038D02*
X162288095Y-76232657D01*
X162288095Y-76232657D02*
X162335714Y-76327895D01*
X162335714Y-76327895D02*
X162335714Y-76470752D01*
X162335714Y-76470752D02*
X162288095Y-76565990D01*
X162288095Y-76565990D02*
X162240476Y-76613609D01*
X162240476Y-76613609D02*
X162145238Y-76661228D01*
X162145238Y-76661228D02*
X161764286Y-76661228D01*
X162669048Y-76137419D02*
X163288095Y-76137419D01*
X163288095Y-76137419D02*
X162954762Y-76518371D01*
X162954762Y-76518371D02*
X163097619Y-76518371D01*
X163097619Y-76518371D02*
X163192857Y-76565990D01*
X163192857Y-76565990D02*
X163240476Y-76613609D01*
X163240476Y-76613609D02*
X163288095Y-76708847D01*
X163288095Y-76708847D02*
X163288095Y-76946942D01*
X163288095Y-76946942D02*
X163240476Y-77042180D01*
X163240476Y-77042180D02*
X163192857Y-77089800D01*
X163192857Y-77089800D02*
X163097619Y-77137419D01*
X163097619Y-77137419D02*
X162811905Y-77137419D01*
X162811905Y-77137419D02*
X162716667Y-77089800D01*
X162716667Y-77089800D02*
X162669048Y-77042180D01*
X163669048Y-76232657D02*
X163716667Y-76185038D01*
X163716667Y-76185038D02*
X163811905Y-76137419D01*
X163811905Y-76137419D02*
X164050000Y-76137419D01*
X164050000Y-76137419D02*
X164145238Y-76185038D01*
X164145238Y-76185038D02*
X164192857Y-76232657D01*
X164192857Y-76232657D02*
X164240476Y-76327895D01*
X164240476Y-76327895D02*
X164240476Y-76423133D01*
X164240476Y-76423133D02*
X164192857Y-76565990D01*
X164192857Y-76565990D02*
X163621429Y-77137419D01*
X163621429Y-77137419D02*
X164240476Y-77137419D01*
X148543884Y-55912419D02*
X148543884Y-56721942D01*
X148543884Y-56721942D02*
X148591503Y-56817180D01*
X148591503Y-56817180D02*
X148639122Y-56864800D01*
X148639122Y-56864800D02*
X148734360Y-56912419D01*
X148734360Y-56912419D02*
X148924836Y-56912419D01*
X148924836Y-56912419D02*
X149020074Y-56864800D01*
X149020074Y-56864800D02*
X149067693Y-56817180D01*
X149067693Y-56817180D02*
X149115312Y-56721942D01*
X149115312Y-56721942D02*
X149115312Y-55912419D01*
X149543884Y-56864800D02*
X149686741Y-56912419D01*
X149686741Y-56912419D02*
X149924836Y-56912419D01*
X149924836Y-56912419D02*
X150020074Y-56864800D01*
X150020074Y-56864800D02*
X150067693Y-56817180D01*
X150067693Y-56817180D02*
X150115312Y-56721942D01*
X150115312Y-56721942D02*
X150115312Y-56626704D01*
X150115312Y-56626704D02*
X150067693Y-56531466D01*
X150067693Y-56531466D02*
X150020074Y-56483847D01*
X150020074Y-56483847D02*
X149924836Y-56436228D01*
X149924836Y-56436228D02*
X149734360Y-56388609D01*
X149734360Y-56388609D02*
X149639122Y-56340990D01*
X149639122Y-56340990D02*
X149591503Y-56293371D01*
X149591503Y-56293371D02*
X149543884Y-56198133D01*
X149543884Y-56198133D02*
X149543884Y-56102895D01*
X149543884Y-56102895D02*
X149591503Y-56007657D01*
X149591503Y-56007657D02*
X149639122Y-55960038D01*
X149639122Y-55960038D02*
X149734360Y-55912419D01*
X149734360Y-55912419D02*
X149972455Y-55912419D01*
X149972455Y-55912419D02*
X150115312Y-55960038D01*
X150877217Y-56388609D02*
X151020074Y-56436228D01*
X151020074Y-56436228D02*
X151067693Y-56483847D01*
X151067693Y-56483847D02*
X151115312Y-56579085D01*
X151115312Y-56579085D02*
X151115312Y-56721942D01*
X151115312Y-56721942D02*
X151067693Y-56817180D01*
X151067693Y-56817180D02*
X151020074Y-56864800D01*
X151020074Y-56864800D02*
X150924836Y-56912419D01*
X150924836Y-56912419D02*
X150543884Y-56912419D01*
X150543884Y-56912419D02*
X150543884Y-55912419D01*
X150543884Y-55912419D02*
X150877217Y-55912419D01*
X150877217Y-55912419D02*
X150972455Y-55960038D01*
X150972455Y-55960038D02*
X151020074Y-56007657D01*
X151020074Y-56007657D02*
X151067693Y-56102895D01*
X151067693Y-56102895D02*
X151067693Y-56198133D01*
X151067693Y-56198133D02*
X151020074Y-56293371D01*
X151020074Y-56293371D02*
X150972455Y-56340990D01*
X150972455Y-56340990D02*
X150877217Y-56388609D01*
X150877217Y-56388609D02*
X150543884Y-56388609D01*
X152258170Y-56864800D02*
X152401027Y-56912419D01*
X152401027Y-56912419D02*
X152639122Y-56912419D01*
X152639122Y-56912419D02*
X152734360Y-56864800D01*
X152734360Y-56864800D02*
X152781979Y-56817180D01*
X152781979Y-56817180D02*
X152829598Y-56721942D01*
X152829598Y-56721942D02*
X152829598Y-56626704D01*
X152829598Y-56626704D02*
X152781979Y-56531466D01*
X152781979Y-56531466D02*
X152734360Y-56483847D01*
X152734360Y-56483847D02*
X152639122Y-56436228D01*
X152639122Y-56436228D02*
X152448646Y-56388609D01*
X152448646Y-56388609D02*
X152353408Y-56340990D01*
X152353408Y-56340990D02*
X152305789Y-56293371D01*
X152305789Y-56293371D02*
X152258170Y-56198133D01*
X152258170Y-56198133D02*
X152258170Y-56102895D01*
X152258170Y-56102895D02*
X152305789Y-56007657D01*
X152305789Y-56007657D02*
X152353408Y-55960038D01*
X152353408Y-55960038D02*
X152448646Y-55912419D01*
X152448646Y-55912419D02*
X152686741Y-55912419D01*
X152686741Y-55912419D02*
X152829598Y-55960038D01*
X153258170Y-56912419D02*
X153258170Y-55912419D01*
X153734360Y-56912419D02*
X153734360Y-55912419D01*
X153734360Y-55912419D02*
X153972455Y-55912419D01*
X153972455Y-55912419D02*
X154115312Y-55960038D01*
X154115312Y-55960038D02*
X154210550Y-56055276D01*
X154210550Y-56055276D02*
X154258169Y-56150514D01*
X154258169Y-56150514D02*
X154305788Y-56340990D01*
X154305788Y-56340990D02*
X154305788Y-56483847D01*
X154305788Y-56483847D02*
X154258169Y-56674323D01*
X154258169Y-56674323D02*
X154210550Y-56769561D01*
X154210550Y-56769561D02*
X154115312Y-56864800D01*
X154115312Y-56864800D02*
X153972455Y-56912419D01*
X153972455Y-56912419D02*
X153734360Y-56912419D01*
X154734360Y-56388609D02*
X155067693Y-56388609D01*
X155210550Y-56912419D02*
X154734360Y-56912419D01*
X154734360Y-56912419D02*
X154734360Y-55912419D01*
X154734360Y-55912419D02*
X155210550Y-55912419D01*
D11*
X160666667Y-63964819D02*
X160666667Y-62964819D01*
X161095238Y-63060057D02*
X161142857Y-63012438D01*
X161142857Y-63012438D02*
X161238095Y-62964819D01*
X161238095Y-62964819D02*
X161476190Y-62964819D01*
X161476190Y-62964819D02*
X161571428Y-63012438D01*
X161571428Y-63012438D02*
X161619047Y-63060057D01*
X161619047Y-63060057D02*
X161666666Y-63155295D01*
X161666666Y-63155295D02*
X161666666Y-63250533D01*
X161666666Y-63250533D02*
X161619047Y-63393390D01*
X161619047Y-63393390D02*
X161047619Y-63964819D01*
X161047619Y-63964819D02*
X161666666Y-63964819D01*
X162666666Y-63869580D02*
X162619047Y-63917200D01*
X162619047Y-63917200D02*
X162476190Y-63964819D01*
X162476190Y-63964819D02*
X162380952Y-63964819D01*
X162380952Y-63964819D02*
X162238095Y-63917200D01*
X162238095Y-63917200D02*
X162142857Y-63821961D01*
X162142857Y-63821961D02*
X162095238Y-63726723D01*
X162095238Y-63726723D02*
X162047619Y-63536247D01*
X162047619Y-63536247D02*
X162047619Y-63393390D01*
X162047619Y-63393390D02*
X162095238Y-63202914D01*
X162095238Y-63202914D02*
X162142857Y-63107676D01*
X162142857Y-63107676D02*
X162238095Y-63012438D01*
X162238095Y-63012438D02*
X162380952Y-62964819D01*
X162380952Y-62964819D02*
X162476190Y-62964819D01*
X162476190Y-62964819D02*
X162619047Y-63012438D01*
X162619047Y-63012438D02*
X162666666Y-63060057D01*
X162857143Y-64060057D02*
X163619047Y-64060057D01*
X164380952Y-63964819D02*
X163809524Y-63964819D01*
X164095238Y-63964819D02*
X164095238Y-62964819D01*
X164095238Y-62964819D02*
X164000000Y-63107676D01*
X164000000Y-63107676D02*
X163904762Y-63202914D01*
X163904762Y-63202914D02*
X163809524Y-63250533D01*
X139367200Y-59471904D02*
X139414819Y-59329047D01*
X139414819Y-59329047D02*
X139414819Y-59090952D01*
X139414819Y-59090952D02*
X139367200Y-58995714D01*
X139367200Y-58995714D02*
X139319580Y-58948095D01*
X139319580Y-58948095D02*
X139224342Y-58900476D01*
X139224342Y-58900476D02*
X139129104Y-58900476D01*
X139129104Y-58900476D02*
X139033866Y-58948095D01*
X139033866Y-58948095D02*
X138986247Y-58995714D01*
X138986247Y-58995714D02*
X138938628Y-59090952D01*
X138938628Y-59090952D02*
X138891009Y-59281428D01*
X138891009Y-59281428D02*
X138843390Y-59376666D01*
X138843390Y-59376666D02*
X138795771Y-59424285D01*
X138795771Y-59424285D02*
X138700533Y-59471904D01*
X138700533Y-59471904D02*
X138605295Y-59471904D01*
X138605295Y-59471904D02*
X138510057Y-59424285D01*
X138510057Y-59424285D02*
X138462438Y-59376666D01*
X138462438Y-59376666D02*
X138414819Y-59281428D01*
X138414819Y-59281428D02*
X138414819Y-59043333D01*
X138414819Y-59043333D02*
X138462438Y-58900476D01*
X139414819Y-57948095D02*
X139414819Y-58519523D01*
X139414819Y-58233809D02*
X138414819Y-58233809D01*
X138414819Y-58233809D02*
X138557676Y-58329047D01*
X138557676Y-58329047D02*
X138652914Y-58424285D01*
X138652914Y-58424285D02*
X138700533Y-58519523D01*
X153704761Y-76534819D02*
X153133333Y-76534819D01*
X153419047Y-76534819D02*
X153419047Y-75534819D01*
X153419047Y-75534819D02*
X153323809Y-75677676D01*
X153323809Y-75677676D02*
X153228571Y-75772914D01*
X153228571Y-75772914D02*
X153133333Y-75820533D01*
X154323809Y-75534819D02*
X154419047Y-75534819D01*
X154419047Y-75534819D02*
X154514285Y-75582438D01*
X154514285Y-75582438D02*
X154561904Y-75630057D01*
X154561904Y-75630057D02*
X154609523Y-75725295D01*
X154609523Y-75725295D02*
X154657142Y-75915771D01*
X154657142Y-75915771D02*
X154657142Y-76153866D01*
X154657142Y-76153866D02*
X154609523Y-76344342D01*
X154609523Y-76344342D02*
X154561904Y-76439580D01*
X154561904Y-76439580D02*
X154514285Y-76487200D01*
X154514285Y-76487200D02*
X154419047Y-76534819D01*
X154419047Y-76534819D02*
X154323809Y-76534819D01*
X154323809Y-76534819D02*
X154228571Y-76487200D01*
X154228571Y-76487200D02*
X154180952Y-76439580D01*
X154180952Y-76439580D02*
X154133333Y-76344342D01*
X154133333Y-76344342D02*
X154085714Y-76153866D01*
X154085714Y-76153866D02*
X154085714Y-75915771D01*
X154085714Y-75915771D02*
X154133333Y-75725295D01*
X154133333Y-75725295D02*
X154180952Y-75630057D01*
X154180952Y-75630057D02*
X154228571Y-75582438D01*
X154228571Y-75582438D02*
X154323809Y-75534819D01*
X155085714Y-76534819D02*
X155085714Y-75534819D01*
X155180952Y-76153866D02*
X155466666Y-76534819D01*
X155466666Y-75868152D02*
X155085714Y-76249104D01*
D12*
X184902381Y-63677419D02*
X184902381Y-62677419D01*
X184902381Y-62677419D02*
X185140476Y-62677419D01*
X185140476Y-62677419D02*
X185283333Y-62725038D01*
X185283333Y-62725038D02*
X185378571Y-62820276D01*
X185378571Y-62820276D02*
X185426190Y-62915514D01*
X185426190Y-62915514D02*
X185473809Y-63105990D01*
X185473809Y-63105990D02*
X185473809Y-63248847D01*
X185473809Y-63248847D02*
X185426190Y-63439323D01*
X185426190Y-63439323D02*
X185378571Y-63534561D01*
X185378571Y-63534561D02*
X185283333Y-63629800D01*
X185283333Y-63629800D02*
X185140476Y-63677419D01*
X185140476Y-63677419D02*
X184902381Y-63677419D01*
X186473809Y-63677419D02*
X186140476Y-63201228D01*
X185902381Y-63677419D02*
X185902381Y-62677419D01*
X185902381Y-62677419D02*
X186283333Y-62677419D01*
X186283333Y-62677419D02*
X186378571Y-62725038D01*
X186378571Y-62725038D02*
X186426190Y-62772657D01*
X186426190Y-62772657D02*
X186473809Y-62867895D01*
X186473809Y-62867895D02*
X186473809Y-63010752D01*
X186473809Y-63010752D02*
X186426190Y-63105990D01*
X186426190Y-63105990D02*
X186378571Y-63153609D01*
X186378571Y-63153609D02*
X186283333Y-63201228D01*
X186283333Y-63201228D02*
X185902381Y-63201228D01*
X186759524Y-62677419D02*
X187092857Y-63677419D01*
X187092857Y-63677419D02*
X187426190Y-62677419D01*
X187521429Y-63772657D02*
X188283333Y-63772657D01*
X189045238Y-63677419D02*
X188473810Y-63677419D01*
X188759524Y-63677419D02*
X188759524Y-62677419D01*
X188759524Y-62677419D02*
X188664286Y-62820276D01*
X188664286Y-62820276D02*
X188569048Y-62915514D01*
X188569048Y-62915514D02*
X188473810Y-62963133D01*
%TO.C,S4*%
X127405000Y-77560000D02*
X124865000Y-77560000D01*
X124865000Y-69940000D01*
X127405000Y-69940000D01*
X127405000Y-77560000D01*
D13*
%TO.C,C1*%
X170523752Y-96340000D02*
X169101248Y-96340000D01*
X170523752Y-98160000D02*
X169101248Y-98160000D01*
%TO.C,R3*%
X169677064Y-71340000D02*
X168222936Y-71340000D01*
X169677064Y-73160000D02*
X168222936Y-73160000D01*
%TO.C,R2*%
X169677064Y-68090000D02*
X168222936Y-68090000D01*
X169677064Y-69910000D02*
X168222936Y-69910000D01*
%TO.C,M3*%
D12*
X197515000Y-85540000D02*
X202595000Y-85540000D01*
X202595000Y-77920000D01*
X197515000Y-77920000D01*
X197515000Y-85540000D01*
%TO.C,DRV_2*%
X178600000Y-70230000D02*
X197200000Y-70230000D01*
X197200000Y-86980000D01*
X178600000Y-86980000D01*
X178600000Y-70230000D01*
%TO.C,S2*%
X128900000Y-62520000D02*
X136520000Y-62520000D01*
X136520000Y-59980000D01*
X128900000Y-59980000D01*
X128900000Y-62520000D01*
D13*
%TO.C,R4*%
X155277064Y-65590000D02*
X153822936Y-65590000D01*
X155277064Y-67410000D02*
X153822936Y-67410000D01*
%TO.C,BC1*%
D12*
X128264000Y-85278000D02*
X145028000Y-85278000D01*
X145028000Y-63180000D01*
X128264000Y-63180000D01*
X128264000Y-85278000D01*
%TO.C,DRV_3*%
X146650000Y-102270000D02*
X128050000Y-102270000D01*
X128050000Y-85520000D01*
X146650000Y-85520000D01*
X146650000Y-102270000D01*
%TO.C,M6*%
X127735000Y-79960000D02*
X122655000Y-79960000D01*
X122655000Y-87580000D01*
X127735000Y-87580000D01*
X127735000Y-79960000D01*
%TO.C,S3*%
X127405000Y-68560000D02*
X124865000Y-68560000D01*
X124865000Y-60940000D01*
X127405000Y-60940000D01*
X127405000Y-68560000D01*
%TO.C,BT1*%
X179780000Y-91900000D02*
X179740000Y-97250000D01*
D13*
X188930000Y-87790000D02*
X186740000Y-87790000D01*
D12*
X195500000Y-97250000D02*
X179740000Y-97250000D01*
X195500000Y-97250000D02*
X195500000Y-91900000D01*
D13*
X179780000Y-91900000D02*
G75*
G02*
X180983791Y-88993791I4110000J0D01*
G01*
X193506806Y-88377042D02*
G75*
G02*
X195500000Y-91900000I-2116805J-3522957D01*
G01*
D12*
%TO.C,ESP32*%
X147540000Y-54720000D02*
X176540000Y-54720000D01*
X147540000Y-102680000D02*
X147540000Y-54740000D01*
X176550000Y-54730000D02*
X176550000Y-102680000D01*
X176550000Y-102680000D02*
X147550000Y-102680000D01*
%TO.C,M5*%
X127735000Y-88460000D02*
X122655000Y-88460000D01*
X122655000Y-96080000D01*
X127735000Y-96080000D01*
X127735000Y-88460000D01*
%TO.C,M4*%
X197515000Y-94040000D02*
X202595000Y-94040000D01*
X202595000Y-86420000D01*
X197515000Y-86420000D01*
X197515000Y-94040000D01*
%TO.C,M1*%
X197515000Y-68540000D02*
X202595000Y-68540000D01*
X202595000Y-60920000D01*
X197515000Y-60920000D01*
X197515000Y-68540000D01*
D13*
%TO.C,I2C_1*%
X156190000Y-55500000D02*
X156190000Y-62410000D01*
X156190000Y-62410000D02*
X157610000Y-62410000D01*
X157610000Y-57910000D02*
X162500000Y-57910000D01*
X157610000Y-62410000D02*
X157610000Y-57910000D01*
D12*
X157610000Y-62410000D02*
X167390000Y-62410000D01*
D13*
X162500000Y-55500000D02*
X156190000Y-55500000D01*
X162500000Y-55500000D02*
X168810000Y-55500000D01*
X165950000Y-62100000D02*
X166250000Y-61500000D01*
X166250000Y-61500000D02*
X166550000Y-62100000D01*
X166550000Y-62100000D02*
X165950000Y-62100000D01*
X167390000Y-57910000D02*
X162500000Y-57910000D01*
X167390000Y-62410000D02*
X167390000Y-57910000D01*
X168810000Y-55500000D02*
X168810000Y-62410000D01*
X168810000Y-62410000D02*
X167390000Y-62410000D01*
%TO.C,M2*%
D12*
X197515000Y-77040000D02*
X202595000Y-77040000D01*
X202595000Y-69420000D01*
X197515000Y-69420000D01*
X197515000Y-77040000D01*
%TO.C,S1*%
X137690000Y-62520000D02*
X145310000Y-62520000D01*
X145310000Y-59980000D01*
X137690000Y-59980000D01*
X137690000Y-62520000D01*
D13*
%TO.C,R1*%
X153572936Y-73340000D02*
X155027064Y-73340000D01*
X153572936Y-75160000D02*
X155027064Y-75160000D01*
%TO.C,DRV_1*%
D12*
X178600000Y-53230000D02*
X197200000Y-53230000D01*
X197200000Y-69980000D01*
X178600000Y-69980000D01*
X178600000Y-53230000D01*
%TD*%
%LPC*%
D14*
%TO.C,S4*%
X126135000Y-76290000D03*
D15*
X126135000Y-73750000D03*
X126135000Y-71210000D03*
%TD*%
D16*
%TO.C,C1*%
X171375000Y-97250000D03*
X168250000Y-97250000D03*
%TD*%
D17*
%TO.C,R3*%
X170500000Y-72250000D03*
X167400000Y-72250000D03*
%TD*%
%TO.C,R2*%
X170500000Y-69000000D03*
X167400000Y-69000000D03*
%TD*%
D18*
%TO.C,REF\u002A\u002A*%
X203500000Y-100000000D03*
%TD*%
%TO.C,REF\u002A\u002A*%
X122000000Y-56500000D03*
%TD*%
D19*
%TO.C,M3*%
X200055000Y-83000000D03*
D20*
X200055000Y-80500000D03*
%TD*%
D21*
%TO.C,DRV_2*%
X180250000Y-72250000D03*
X180250000Y-74790000D03*
X180250000Y-77330000D03*
X180250000Y-79870000D03*
X180250000Y-82410000D03*
X180250000Y-84950000D03*
X195490000Y-84950000D03*
X195490000Y-82410000D03*
X195490000Y-79870000D03*
X195490000Y-77330000D03*
X195490000Y-74790000D03*
X195490000Y-72250000D03*
%TD*%
D14*
%TO.C,S2*%
X130170000Y-61250000D03*
D15*
X132710000Y-61250000D03*
X135250000Y-61250000D03*
%TD*%
D17*
%TO.C,R4*%
X156100000Y-66500000D03*
X153000000Y-66500000D03*
%TD*%
D21*
%TO.C,BC1*%
X130042000Y-83500000D03*
X132582000Y-83500000D03*
D22*
X140710000Y-83500000D03*
X143250000Y-83500000D03*
X143250000Y-64958000D03*
X140710000Y-64958000D03*
D21*
X132582000Y-64958000D03*
X130042000Y-64958000D03*
%TD*%
%TO.C,DRV_3*%
X145000000Y-100250000D03*
X145000000Y-97710000D03*
X145000000Y-95170000D03*
X145000000Y-92630000D03*
X145000000Y-90090000D03*
X145000000Y-87550000D03*
X129760000Y-87550000D03*
X129760000Y-90090000D03*
X129760000Y-92630000D03*
X129760000Y-95170000D03*
X129760000Y-97710000D03*
X129760000Y-100250000D03*
%TD*%
D23*
%TO.C,M6*%
X125195000Y-82500000D03*
D20*
X125195000Y-85000000D03*
%TD*%
D14*
%TO.C,S3*%
X126135000Y-67290000D03*
D15*
X126135000Y-64750000D03*
X126135000Y-62210000D03*
%TD*%
D18*
%TO.C,REF\u002A\u002A*%
X122000000Y-100000000D03*
%TD*%
D24*
%TO.C,BT1*%
X194390000Y-95750000D03*
X180890000Y-95750000D03*
D25*
X184040000Y-89750000D03*
D26*
X191240000Y-89750000D03*
%TD*%
D21*
%TO.C,ESP32*%
X174750000Y-61440000D03*
X174750000Y-63980000D03*
X174750000Y-66520000D03*
X174750000Y-69060000D03*
X174750000Y-71600000D03*
X174750000Y-74140000D03*
X174750000Y-76680000D03*
X174750000Y-79220000D03*
X174750000Y-81760000D03*
X174750000Y-84300000D03*
X174750000Y-86840000D03*
X174750000Y-89380000D03*
X174750000Y-91920000D03*
X174750000Y-94460000D03*
X174750000Y-97000000D03*
X149350000Y-97000000D03*
X149350000Y-94460000D03*
X149350000Y-91920000D03*
X149350000Y-89380000D03*
X149350000Y-86840000D03*
X149350000Y-84300000D03*
X149350000Y-81760000D03*
X149350000Y-79220000D03*
X149350000Y-76680000D03*
X149350000Y-74140000D03*
X149350000Y-71600000D03*
X149350000Y-69060000D03*
X149350000Y-66520000D03*
X149350000Y-63980000D03*
X149350000Y-61440000D03*
%TD*%
D23*
%TO.C,M5*%
X125195000Y-91000000D03*
D20*
X125195000Y-93500000D03*
%TD*%
D18*
%TO.C,REF\u002A\u002A*%
X203500000Y-56500000D03*
%TD*%
D19*
%TO.C,M4*%
X200055000Y-91500000D03*
D20*
X200055000Y-89000000D03*
%TD*%
D19*
%TO.C,M1*%
X200055000Y-66000000D03*
D20*
X200055000Y-63500000D03*
%TD*%
D27*
%TO.C,I2C_1*%
X166250000Y-60000000D03*
D28*
X163750000Y-60000000D03*
X161250000Y-60000000D03*
X158750000Y-60000000D03*
%TD*%
D19*
%TO.C,M2*%
X200055000Y-74500000D03*
D20*
X200055000Y-72000000D03*
%TD*%
D14*
%TO.C,S1*%
X138960000Y-61250000D03*
D15*
X141500000Y-61250000D03*
X144040000Y-61250000D03*
%TD*%
D29*
%TO.C,R1*%
X152750000Y-74250000D03*
X155850000Y-74250000D03*
%TD*%
D21*
%TO.C,DRV_1*%
X180250000Y-55250000D03*
X180250000Y-57790000D03*
X180250000Y-60330000D03*
X180250000Y-62870000D03*
X180250000Y-65410000D03*
X180250000Y-67950000D03*
X195490000Y-67950000D03*
X195490000Y-65410000D03*
X195490000Y-62870000D03*
X195490000Y-60330000D03*
X195490000Y-57790000D03*
X195490000Y-55250000D03*
%TD*%
%LPD*%
M02*
