M48
; DRILL file {KiCad 9.0.5} date 2025-11-07T17:08:39-0500
; FORMAT={-:-/ absolute / metric / decimal}
; #@! TF.CreationDate,2025-11-07T17:08:39-05:00
; #@! TF.GenerationSoftware,Kicad,Pcbnew,9.0.5
; #@! TF.FileFunction,Plated,1,2,PTH
FMAT,2
METRIC
; #@! TA.AperFunction,Plated,PTH,ViaDrill
T1C0.300
; #@! TA.AperFunction,Plated,PTH,ComponentDrill
T2C0.600
; #@! TA.AperFunction,Plated,PTH,ComponentDrill
T3C0.950
; #@! TA.AperFunction,Plated,PTH,ComponentDrill
T4C0.952
; #@! TA.AperFunction,Plated,PTH,ComponentDrill
T5C1.000
; #@! TA.AperFunction,Plated,PTH,ComponentDrill
T6C2.700
%
G90
G05
T1
X124.75Y-78.75
X125.25Y-59.5
X125.25Y-97.25
X126.25Y-101.25
X127.25Y-56.5
X129.75Y-73.75
X136.5Y-83.25
X136.75Y-90.0
X136.75Y-98.0
X137.0Y-63.75
X137.0Y-71.25
X142.75Y-90.25
X146.25Y-68.0
X147.25Y-92.75
X152.75Y-60.75
X162.0Y-80.75
X162.0Y-93.25
X162.25Y-69.25
X173.75Y-56.5
X177.5Y-79.75
X178.0Y-93.75
X189.5Y-84.75
X189.75Y-66.25
X189.75Y-74.0
X190.0Y-55.75
X198.0Y-101.0
X198.5Y-55.0
X199.5Y-59.0
X203.5Y-95.5
T3
X158.75Y-60.0
X161.25Y-60.0
X163.75Y-60.0
X166.25Y-60.0
T4
X129.76Y-87.55
X129.76Y-90.09
X129.76Y-92.63
X129.76Y-95.17
X129.76Y-97.71
X129.76Y-100.25
X130.042Y-64.958
X130.042Y-83.5
X132.582Y-64.958
X132.582Y-83.5
X140.71Y-64.958
X140.71Y-83.5
X143.25Y-64.958
X143.25Y-83.5
X145.0Y-87.55
X145.0Y-90.09
X145.0Y-92.63
X145.0Y-95.17
X145.0Y-97.71
X145.0Y-100.25
X149.35Y-61.44
X149.35Y-63.98
X149.35Y-66.52
X149.35Y-69.06
X149.35Y-71.6
X149.35Y-74.14
X149.35Y-76.68
X149.35Y-79.22
X149.35Y-81.76
X149.35Y-84.3
X149.35Y-86.84
X149.35Y-89.38
X149.35Y-91.92
X149.35Y-94.46
X149.35Y-97.0
X174.75Y-61.44
X174.75Y-63.98
X174.75Y-66.52
X174.75Y-69.06
X174.75Y-71.6
X174.75Y-74.14
X174.75Y-76.68
X174.75Y-79.22
X174.75Y-81.76
X174.75Y-84.3
X174.75Y-86.84
X174.75Y-89.38
X174.75Y-91.92
X174.75Y-94.46
X174.75Y-97.0
X180.25Y-55.25
X180.25Y-57.79
X180.25Y-60.33
X180.25Y-62.87
X180.25Y-65.41
X180.25Y-67.95
X180.25Y-72.25
X180.25Y-74.79
X180.25Y-77.33
X180.25Y-79.87
X180.25Y-82.41
X180.25Y-84.95
X195.49Y-55.25
X195.49Y-57.79
X195.49Y-60.33
X195.49Y-62.87
X195.49Y-65.41
X195.49Y-67.95
X195.49Y-72.25
X195.49Y-74.79
X195.49Y-77.33
X195.49Y-79.87
X195.49Y-82.41
X195.49Y-84.95
T5
X125.195Y-82.5
X125.195Y-85.0
X125.195Y-91.0
X125.195Y-93.5
X126.135Y-62.21
X126.135Y-64.75
X126.135Y-67.29
X126.135Y-71.21
X126.135Y-73.75
X126.135Y-76.29
X130.17Y-61.25
X132.71Y-61.25
X135.25Y-61.25
X138.96Y-61.25
X141.5Y-61.25
X144.04Y-61.25
X200.055Y-63.5
X200.055Y-66.0
X200.055Y-72.0
X200.055Y-74.5
X200.055Y-80.5
X200.055Y-83.0
X200.055Y-89.0
X200.055Y-91.5
T6
X184.04Y-89.75
X191.24Y-89.75
T2
X180.89Y-96.3G85X180.89Y-95.2
G05
X194.39Y-96.3G85X194.39Y-95.2
G05
M30
