%TF.GenerationSoftware,KiCad,Pcbnew,9.0.5*%
%TF.CreationDate,2025-11-07T17:08:23-05:00*%
%TF.ProjectId,PBB,5042422e-6b69-4636-9164-5f7063625858,rev?*%
%TF.SameCoordinates,Original*%
%TF.FileFunction,Soldermask,Top*%
%TF.FilePolarity,Negative*%
%FSLAX46Y46*%
G04 Gerber Fmt 4.6, Leading zero omitted, Abs format (unit mm)*
G04 Created by KiCad (PCBNEW 9.0.5) date 2025-11-07 17:08:23*
%MOMM*%
%LPD*%
G01*
G04 APERTURE LIST*
G04 Aperture macros list*
%AMRoundRect*
0 Rectangle with rounded corners*
0 $1 Rounding radius*
0 $2 $3 $4 $5 $6 $7 $8 $9 X,Y pos of 4 corners*
0 Add a 4 corners polygon primitive as box body*
4,1,4,$2,$3,$4,$5,$6,$7,$8,$9,$2,$3,0*
0 Add four circle primitives for the rounded corners*
1,1,$1+$1,$2,$3*
1,1,$1+$1,$4,$5*
1,1,$1+$1,$6,$7*
1,1,$1+$1,$8,$9*
0 Add four rect primitives between the rounded corners*
20,1,$1+$1,$2,$3,$4,$5,0*
20,1,$1+$1,$4,$5,$6,$7,0*
20,1,$1+$1,$6,$7,$8,$9,0*
20,1,$1+$1,$8,$9,$2,$3,0*%
G04 Aperture macros list end*
%ADD10R,1.700000X1.700000*%
%ADD11C,1.700000*%
%ADD12RoundRect,0.250000X0.412500X0.650000X-0.412500X0.650000X-0.412500X-0.650000X0.412500X-0.650000X0*%
%ADD13RoundRect,0.250000X0.400000X0.625000X-0.400000X0.625000X-0.400000X-0.625000X0.400000X-0.625000X0*%
%ADD14C,3.200000*%
%ADD15RoundRect,0.250000X0.750000X-0.600000X0.750000X0.600000X-0.750000X0.600000X-0.750000X-0.600000X0*%
%ADD16O,2.000000X1.700000*%
%ADD17C,1.905000*%
%ADD18R,1.905000X1.905000*%
%ADD19RoundRect,0.250000X-0.750000X0.600000X-0.750000X-0.600000X0.750000X-0.600000X0.750000X0.600000X0*%
%ADD20R,0.900000X2.000000*%
%ADD21RoundRect,0.250000X1.800000X1.800000X-1.800000X1.800000X-1.800000X-1.800000X1.800000X-1.800000X0*%
%ADD22C,4.100000*%
%ADD23RoundRect,0.250000X0.600000X0.725000X-0.600000X0.725000X-0.600000X-0.725000X0.600000X-0.725000X0*%
%ADD24O,1.700000X1.950000*%
%ADD25RoundRect,0.250000X-0.400000X-0.625000X0.400000X-0.625000X0.400000X0.625000X-0.400000X0.625000X0*%
G04 APERTURE END LIST*
D10*
%TO.C,S4*%
X126135000Y-76290000D03*
D11*
X126135000Y-73750000D03*
X126135000Y-71210000D03*
%TD*%
D12*
%TO.C,C1*%
X171375000Y-97250000D03*
X168250000Y-97250000D03*
%TD*%
D13*
%TO.C,R3*%
X170500000Y-72250000D03*
X167400000Y-72250000D03*
%TD*%
%TO.C,R2*%
X170500000Y-69000000D03*
X167400000Y-69000000D03*
%TD*%
D14*
%TO.C,REF\u002A\u002A*%
X203500000Y-100000000D03*
%TD*%
%TO.C,REF\u002A\u002A*%
X122000000Y-56500000D03*
%TD*%
D15*
%TO.C,M3*%
X200055000Y-83000000D03*
D16*
X200055000Y-80500000D03*
%TD*%
D17*
%TO.C,DRV_2*%
X180250000Y-72250000D03*
X180250000Y-74790000D03*
X180250000Y-77330000D03*
X180250000Y-79870000D03*
X180250000Y-82410000D03*
X180250000Y-84950000D03*
X195490000Y-84950000D03*
X195490000Y-82410000D03*
X195490000Y-79870000D03*
X195490000Y-77330000D03*
X195490000Y-74790000D03*
X195490000Y-72250000D03*
%TD*%
D10*
%TO.C,S2*%
X130170000Y-61250000D03*
D11*
X132710000Y-61250000D03*
X135250000Y-61250000D03*
%TD*%
D13*
%TO.C,R4*%
X156100000Y-66500000D03*
X153000000Y-66500000D03*
%TD*%
D17*
%TO.C,BC1*%
X130042000Y-83500000D03*
X132582000Y-83500000D03*
D18*
X140710000Y-83500000D03*
X143250000Y-83500000D03*
X143250000Y-64958000D03*
X140710000Y-64958000D03*
D17*
X132582000Y-64958000D03*
X130042000Y-64958000D03*
%TD*%
%TO.C,DRV_3*%
X145000000Y-100250000D03*
X145000000Y-97710000D03*
X145000000Y-95170000D03*
X145000000Y-92630000D03*
X145000000Y-90090000D03*
X145000000Y-87550000D03*
X129760000Y-87550000D03*
X129760000Y-90090000D03*
X129760000Y-92630000D03*
X129760000Y-95170000D03*
X129760000Y-97710000D03*
X129760000Y-100250000D03*
%TD*%
D19*
%TO.C,M6*%
X125195000Y-82500000D03*
D16*
X125195000Y-85000000D03*
%TD*%
D10*
%TO.C,S3*%
X126135000Y-67290000D03*
D11*
X126135000Y-64750000D03*
X126135000Y-62210000D03*
%TD*%
D14*
%TO.C,REF\u002A\u002A*%
X122000000Y-100000000D03*
%TD*%
D20*
%TO.C,BT1*%
X194390000Y-95750000D03*
X180890000Y-95750000D03*
D21*
X184040000Y-89750000D03*
D22*
X191240000Y-89750000D03*
%TD*%
D17*
%TO.C,ESP32*%
X174750000Y-61440000D03*
X174750000Y-63980000D03*
X174750000Y-66520000D03*
X174750000Y-69060000D03*
X174750000Y-71600000D03*
X174750000Y-74140000D03*
X174750000Y-76680000D03*
X174750000Y-79220000D03*
X174750000Y-81760000D03*
X174750000Y-84300000D03*
X174750000Y-86840000D03*
X174750000Y-89380000D03*
X174750000Y-91920000D03*
X174750000Y-94460000D03*
X174750000Y-97000000D03*
X149350000Y-97000000D03*
X149350000Y-94460000D03*
X149350000Y-91920000D03*
X149350000Y-89380000D03*
X149350000Y-86840000D03*
X149350000Y-84300000D03*
X149350000Y-81760000D03*
X149350000Y-79220000D03*
X149350000Y-76680000D03*
X149350000Y-74140000D03*
X149350000Y-71600000D03*
X149350000Y-69060000D03*
X149350000Y-66520000D03*
X149350000Y-63980000D03*
X149350000Y-61440000D03*
%TD*%
D19*
%TO.C,M5*%
X125195000Y-91000000D03*
D16*
X125195000Y-93500000D03*
%TD*%
D14*
%TO.C,REF\u002A\u002A*%
X203500000Y-56500000D03*
%TD*%
D15*
%TO.C,M4*%
X200055000Y-91500000D03*
D16*
X200055000Y-89000000D03*
%TD*%
D15*
%TO.C,M1*%
X200055000Y-66000000D03*
D16*
X200055000Y-63500000D03*
%TD*%
D23*
%TO.C,I2C_1*%
X166250000Y-60000000D03*
D24*
X163750000Y-60000000D03*
X161250000Y-60000000D03*
X158750000Y-60000000D03*
%TD*%
D15*
%TO.C,M2*%
X200055000Y-74500000D03*
D16*
X200055000Y-72000000D03*
%TD*%
D10*
%TO.C,S1*%
X138960000Y-61250000D03*
D11*
X141500000Y-61250000D03*
X144040000Y-61250000D03*
%TD*%
D25*
%TO.C,R1*%
X152750000Y-74250000D03*
X155850000Y-74250000D03*
%TD*%
D17*
%TO.C,DRV_1*%
X180250000Y-55250000D03*
X180250000Y-57790000D03*
X180250000Y-60330000D03*
X180250000Y-62870000D03*
X180250000Y-65410000D03*
X180250000Y-67950000D03*
X195490000Y-67950000D03*
X195490000Y-65410000D03*
X195490000Y-62870000D03*
X195490000Y-60330000D03*
X195490000Y-57790000D03*
X195490000Y-55250000D03*
%TD*%
M02*
