%TF.GenerationSoftware,KiCad,Pcbnew,9.0.5*%
%TF.CreationDate,2025-11-07T17:08:23-05:00*%
%TF.ProjectId,PBB,5042422e-6b69-4636-9164-5f7063625858,rev?*%
%TF.SameCoordinates,Original*%
%TF.FileFunction,Copper,L2,Bot*%
%TF.FilePolarity,Positive*%
%FSLAX46Y46*%
G04 Gerber Fmt 4.6, Leading zero omitted, Abs format (unit mm)*
G04 Created by KiCad (PCBNEW 9.0.5) date 2025-11-07 17:08:23*
%MOMM*%
%LPD*%
G01*
G04 APERTURE LIST*
G04 Aperture macros list*
%AMRoundRect*
0 Rectangle with rounded corners*
0 $1 Rounding radius*
0 $2 $3 $4 $5 $6 $7 $8 $9 X,Y pos of 4 corners*
0 Add a 4 corners polygon primitive as box body*
4,1,4,$2,$3,$4,$5,$6,$7,$8,$9,$2,$3,0*
0 Add four circle primitives for the rounded corners*
1,1,$1+$1,$2,$3*
1,1,$1+$1,$4,$5*
1,1,$1+$1,$6,$7*
1,1,$1+$1,$8,$9*
0 Add four rect primitives between the rounded corners*
20,1,$1+$1,$2,$3,$4,$5,0*
20,1,$1+$1,$4,$5,$6,$7,0*
20,1,$1+$1,$6,$7,$8,$9,0*
20,1,$1+$1,$8,$9,$2,$3,0*%
G04 Aperture macros list end*
%TA.AperFunction,ComponentPad*%
%ADD10R,1.700000X1.700000*%
%TD*%
%TA.AperFunction,ComponentPad*%
%ADD11C,1.700000*%
%TD*%
%TA.AperFunction,ComponentPad*%
%ADD12RoundRect,0.250000X0.750000X-0.600000X0.750000X0.600000X-0.750000X0.600000X-0.750000X-0.600000X0*%
%TD*%
%TA.AperFunction,ComponentPad*%
%ADD13O,2.000000X1.700000*%
%TD*%
%TA.AperFunction,ComponentPad*%
%ADD14C,1.905000*%
%TD*%
%TA.AperFunction,ComponentPad*%
%ADD15R,1.905000X1.905000*%
%TD*%
%TA.AperFunction,ComponentPad*%
%ADD16RoundRect,0.250000X-0.750000X0.600000X-0.750000X-0.600000X0.750000X-0.600000X0.750000X0.600000X0*%
%TD*%
%TA.AperFunction,ComponentPad*%
%ADD17R,0.900000X2.000000*%
%TD*%
%TA.AperFunction,ComponentPad*%
%ADD18RoundRect,0.250000X1.800000X1.800000X-1.800000X1.800000X-1.800000X-1.800000X1.800000X-1.800000X0*%
%TD*%
%TA.AperFunction,ComponentPad*%
%ADD19C,4.100000*%
%TD*%
%TA.AperFunction,ComponentPad*%
%ADD20RoundRect,0.250000X0.600000X0.725000X-0.600000X0.725000X-0.600000X-0.725000X0.600000X-0.725000X0*%
%TD*%
%TA.AperFunction,ComponentPad*%
%ADD21O,1.700000X1.950000*%
%TD*%
%TA.AperFunction,ViaPad*%
%ADD22C,0.600000*%
%TD*%
%TA.AperFunction,Conductor*%
%ADD23C,0.600000*%
%TD*%
G04 APERTURE END LIST*
D10*
%TO.P,S4,1,PWM*%
%TO.N,Net-(ESP32-D18)*%
X126135000Y-76290000D03*
D11*
%TO.P,S4,2,+*%
%TO.N,VCC*%
X126135000Y-73750000D03*
%TO.P,S4,3,-*%
%TO.N,GND*%
X126135000Y-71210000D03*
%TD*%
D12*
%TO.P,M3,1,OUT1*%
%TO.N,Net-(DRV_2-OUT3)*%
X200055000Y-83000000D03*
D13*
%TO.P,M3,2,OUT2*%
%TO.N,Net-(DRV_2-OUT4)*%
X200055000Y-80500000D03*
%TD*%
D14*
%TO.P,DRV_2,1,IN1*%
%TO.N,Net-(DRV_2-IN1)*%
X180250000Y-72250000D03*
%TO.P,DRV_2,2,IN2*%
%TO.N,Net-(DRV_2-IN2)*%
X180250000Y-74790000D03*
%TO.P,DRV_2,3,VCC*%
%TO.N,+BATT*%
X180250000Y-77330000D03*
%TO.P,DRV_2,4,GND*%
%TO.N,GND*%
X180250000Y-79870000D03*
%TO.P,DRV_2,5,IN3*%
%TO.N,Net-(DRV_2-IN3)*%
X180250000Y-82410000D03*
%TO.P,DRV_2,6,IN4*%
%TO.N,Net-(DRV_2-IN4)*%
X180250000Y-84950000D03*
%TO.P,DRV_2,7,EEP*%
%TO.N,unconnected-(DRV_2-EEP-Pad7)*%
X195490000Y-84950000D03*
%TO.P,DRV_2,8,OUT1*%
%TO.N,Net-(DRV_2-OUT1)*%
X195490000Y-82410000D03*
%TO.P,DRV_2,9,OUT2*%
%TO.N,Net-(DRV_2-OUT2)*%
X195490000Y-79870000D03*
%TO.P,DRV_2,10,OUT3*%
%TO.N,Net-(DRV_2-OUT3)*%
X195490000Y-77330000D03*
%TO.P,DRV_2,11,OUT4*%
%TO.N,Net-(DRV_2-OUT4)*%
X195490000Y-74790000D03*
%TO.P,DRV_2,12,ULT*%
%TO.N,unconnected-(DRV_2-ULT-Pad12)*%
X195490000Y-72250000D03*
%TD*%
D10*
%TO.P,S2,1,PWM*%
%TO.N,Net-(ESP32-D17)*%
X130170000Y-61250000D03*
D11*
%TO.P,S2,2,+*%
%TO.N,VCC*%
X132710000Y-61250000D03*
%TO.P,S2,3,-*%
%TO.N,GND*%
X135250000Y-61250000D03*
%TD*%
D14*
%TO.P,BC1,1,IN-1*%
%TO.N,GND*%
X130042000Y-83500000D03*
%TO.P,BC1,2,IN-2*%
X132582000Y-83500000D03*
D15*
%TO.P,BC1,3,IN+1*%
%TO.N,+BATT*%
X140710000Y-83500000D03*
%TO.P,BC1,4,IN+2*%
X143250000Y-83500000D03*
%TO.P,BC1,5,OUT+1*%
%TO.N,VCC*%
X143250000Y-64958000D03*
%TO.P,BC1,6,OUT+2*%
X140710000Y-64958000D03*
D14*
%TO.P,BC1,7,OUT-1*%
%TO.N,GND*%
X132582000Y-64958000D03*
%TO.P,BC1,8,OUT-2*%
X130042000Y-64958000D03*
%TD*%
%TO.P,DRV_3,1,IN1*%
%TO.N,Net-(DRV_3-IN1)*%
X145000000Y-100250000D03*
%TO.P,DRV_3,2,IN2*%
%TO.N,Net-(DRV_3-IN2)*%
X145000000Y-97710000D03*
%TO.P,DRV_3,3,VCC*%
%TO.N,+BATT*%
X145000000Y-95170000D03*
%TO.P,DRV_3,4,GND*%
%TO.N,GND*%
X145000000Y-92630000D03*
%TO.P,DRV_3,5,IN3*%
%TO.N,Net-(DRV_3-IN3)*%
X145000000Y-90090000D03*
%TO.P,DRV_3,6,IN4*%
%TO.N,Net-(DRV_3-IN4)*%
X145000000Y-87550000D03*
%TO.P,DRV_3,7,EEP*%
%TO.N,unconnected-(DRV_3-EEP-Pad7)*%
X129760000Y-87550000D03*
%TO.P,DRV_3,8,OUT1*%
%TO.N,Net-(DRV_3-OUT1)*%
X129760000Y-90090000D03*
%TO.P,DRV_3,9,OUT2*%
%TO.N,Net-(DRV_3-OUT2)*%
X129760000Y-92630000D03*
%TO.P,DRV_3,10,OUT3*%
%TO.N,Net-(DRV_3-OUT3)*%
X129760000Y-95170000D03*
%TO.P,DRV_3,11,OUT4*%
%TO.N,Net-(DRV_3-OUT4)*%
X129760000Y-97710000D03*
%TO.P,DRV_3,12,ULT*%
%TO.N,unconnected-(DRV_3-ULT-Pad12)*%
X129760000Y-100250000D03*
%TD*%
D16*
%TO.P,M6,1,OUT1*%
%TO.N,Net-(DRV_3-OUT1)*%
X125195000Y-82500000D03*
D13*
%TO.P,M6,2,OUT2*%
%TO.N,Net-(DRV_3-OUT2)*%
X125195000Y-85000000D03*
%TD*%
D10*
%TO.P,S3,1,PWM*%
%TO.N,Net-(ESP32-D5)*%
X126135000Y-67290000D03*
D11*
%TO.P,S3,2,+*%
%TO.N,VCC*%
X126135000Y-64750000D03*
%TO.P,S3,3,-*%
%TO.N,GND*%
X126135000Y-62210000D03*
%TD*%
D17*
%TO.P,BT1,*%
%TO.N,*%
X194390000Y-95750000D03*
X180890000Y-95750000D03*
D18*
%TO.P,BT1,1,+*%
%TO.N,+BATT*%
X184040000Y-89750000D03*
D19*
%TO.P,BT1,2,-*%
%TO.N,GND*%
X191240000Y-89750000D03*
%TD*%
D14*
%TO.P,ESP32,1,VCC*%
%TO.N,VCC*%
X174750000Y-61440000D03*
%TO.P,ESP32,2,GND*%
%TO.N,GND*%
X174750000Y-63980000D03*
%TO.P,ESP32,3,D13*%
%TO.N,Net-(DRV_1-IN1)*%
X174750000Y-66520000D03*
%TO.P,ESP32,4,D12*%
%TO.N,Net-(DRV_1-IN2)*%
X174750000Y-69060000D03*
%TO.P,ESP32,5,D14*%
%TO.N,Net-(DRV_1-IN3)*%
X174750000Y-71600000D03*
%TO.P,ESP32,6,D27*%
%TO.N,Net-(DRV_1-IN4)*%
X174750000Y-74140000D03*
%TO.P,ESP32,7,D26*%
%TO.N,Net-(DRV_2-IN1)*%
X174750000Y-76680000D03*
%TO.P,ESP32,8,D25*%
%TO.N,Net-(DRV_2-IN2)*%
X174750000Y-79220000D03*
%TO.P,ESP32,9,D33*%
%TO.N,Net-(DRV_2-IN3)*%
X174750000Y-81760000D03*
%TO.P,ESP32,10,D32*%
%TO.N,Net-(DRV_2-IN4)*%
X174750000Y-84300000D03*
%TO.P,ESP32,11,D35*%
%TO.N,unconnected-(ESP32-D35-Pad11)*%
X174750000Y-86840000D03*
%TO.P,ESP32,12,D34*%
%TO.N,unconnected-(ESP32-D34-Pad12)*%
X174750000Y-89380000D03*
%TO.P,ESP32,13,VN*%
%TO.N,unconnected-(ESP32-VN-Pad13)*%
X174750000Y-91920000D03*
%TO.P,ESP32,14,VP*%
%TO.N,unconnected-(ESP32-VP-Pad14)*%
X174750000Y-94460000D03*
%TO.P,ESP32,15,EN*%
%TO.N,Net-(ESP32-EN)*%
X174750000Y-97000000D03*
%TO.P,ESP32,16,D23*%
%TO.N,Net-(DRV_3-IN1)*%
X149350000Y-97000000D03*
%TO.P,ESP32,17,D22*%
%TO.N,Net-(DRV_3-IN2)*%
X149350000Y-94460000D03*
%TO.P,ESP32,18,TX0*%
%TO.N,unconnected-(ESP32-TX0-Pad18)*%
X149350000Y-91920000D03*
%TO.P,ESP32,19,RX0*%
%TO.N,unconnected-(ESP32-RX0-Pad19)*%
X149350000Y-89380000D03*
%TO.P,ESP32,20,D21*%
%TO.N,Net-(DRV_3-IN3)*%
X149350000Y-86840000D03*
%TO.P,ESP32,21,D19*%
%TO.N,Net-(DRV_3-IN4)*%
X149350000Y-84300000D03*
%TO.P,ESP32,22,D18*%
%TO.N,Net-(ESP32-D18)*%
X149350000Y-81760000D03*
%TO.P,ESP32,23,D5*%
%TO.N,Net-(ESP32-D5)*%
X149350000Y-79220000D03*
%TO.P,ESP32,24,D17*%
%TO.N,Net-(ESP32-D17)*%
X149350000Y-76680000D03*
%TO.P,ESP32,25,D16*%
%TO.N,Net-(ESP32-D16)*%
X149350000Y-74140000D03*
%TO.P,ESP32,26,D4*%
%TO.N,Net-(ESP32-D4)*%
X149350000Y-71600000D03*
%TO.P,ESP32,27,D2*%
%TO.N,unconnected-(ESP32-D2-Pad27)*%
X149350000Y-69060000D03*
%TO.P,ESP32,28,D15*%
%TO.N,Net-(ESP32-D15)*%
X149350000Y-66520000D03*
%TO.P,ESP32,29,GND*%
%TO.N,GND*%
X149350000Y-63980000D03*
%TO.P,ESP32,30,3V3*%
%TO.N,unconnected-(ESP32-3V3-Pad30)*%
X149350000Y-61440000D03*
%TD*%
D16*
%TO.P,M5,1,OUT1*%
%TO.N,Net-(DRV_3-OUT3)*%
X125195000Y-91000000D03*
D13*
%TO.P,M5,2,OUT2*%
%TO.N,Net-(DRV_3-OUT4)*%
X125195000Y-93500000D03*
%TD*%
D12*
%TO.P,M4,1,OUT1*%
%TO.N,Net-(DRV_2-OUT1)*%
X200055000Y-91500000D03*
D13*
%TO.P,M4,2,OUT2*%
%TO.N,Net-(DRV_2-OUT2)*%
X200055000Y-89000000D03*
%TD*%
D12*
%TO.P,M1,1,OUT1*%
%TO.N,Net-(DRV_1-OUT3)*%
X200055000Y-66000000D03*
D13*
%TO.P,M1,2,OUT2*%
%TO.N,Net-(DRV_1-OUT4)*%
X200055000Y-63500000D03*
%TD*%
D20*
%TO.P,I2C_1,1,SDA*%
%TO.N,Net-(ESP32-D4)*%
X166250000Y-60000000D03*
D21*
%TO.P,I2C_1,2,SCL*%
%TO.N,Net-(ESP32-D15)*%
X163750000Y-60000000D03*
%TO.P,I2C_1,3,VCC*%
%TO.N,VCC*%
X161250000Y-60000000D03*
%TO.P,I2C_1,4,GND*%
%TO.N,GND*%
X158750000Y-60000000D03*
%TD*%
D12*
%TO.P,M2,1,OUT1*%
%TO.N,Net-(DRV_1-OUT1)*%
X200055000Y-74500000D03*
D13*
%TO.P,M2,2,OUT2*%
%TO.N,Net-(DRV_1-OUT2)*%
X200055000Y-72000000D03*
%TD*%
D10*
%TO.P,S1,1,PWM*%
%TO.N,Net-(ESP32-D16)*%
X138960000Y-61250000D03*
D11*
%TO.P,S1,2,+*%
%TO.N,VCC*%
X141500000Y-61250000D03*
%TO.P,S1,3,-*%
%TO.N,GND*%
X144040000Y-61250000D03*
%TD*%
D14*
%TO.P,DRV_1,1,IN1*%
%TO.N,Net-(DRV_1-IN1)*%
X180250000Y-55250000D03*
%TO.P,DRV_1,2,IN2*%
%TO.N,Net-(DRV_1-IN2)*%
X180250000Y-57790000D03*
%TO.P,DRV_1,3,VCC*%
%TO.N,+BATT*%
X180250000Y-60330000D03*
%TO.P,DRV_1,4,GND*%
%TO.N,GND*%
X180250000Y-62870000D03*
%TO.P,DRV_1,5,IN3*%
%TO.N,Net-(DRV_1-IN3)*%
X180250000Y-65410000D03*
%TO.P,DRV_1,6,IN4*%
%TO.N,Net-(DRV_1-IN4)*%
X180250000Y-67950000D03*
%TO.P,DRV_1,7,EEP*%
%TO.N,unconnected-(DRV_1-EEP-Pad7)*%
X195490000Y-67950000D03*
%TO.P,DRV_1,8,OUT1*%
%TO.N,Net-(DRV_1-OUT1)*%
X195490000Y-65410000D03*
%TO.P,DRV_1,9,OUT2*%
%TO.N,Net-(DRV_1-OUT2)*%
X195490000Y-62870000D03*
%TO.P,DRV_1,10,OUT3*%
%TO.N,Net-(DRV_1-OUT3)*%
X195490000Y-60330000D03*
%TO.P,DRV_1,11,OUT4*%
%TO.N,Net-(DRV_1-OUT4)*%
X195490000Y-57790000D03*
%TO.P,DRV_1,12,ULT*%
%TO.N,unconnected-(DRV_1-ULT-Pad12)*%
X195490000Y-55250000D03*
%TD*%
D22*
%TO.N,GND*%
X162250000Y-69250000D03*
X198000000Y-101000000D03*
X125250000Y-97250000D03*
X124750000Y-78750000D03*
X190000000Y-55750000D03*
X189750000Y-66250000D03*
X189750000Y-74000000D03*
X142750000Y-90250000D03*
X136750000Y-98000000D03*
X147250000Y-92750000D03*
X126250000Y-101250000D03*
X152750000Y-60750000D03*
X136750000Y-90000000D03*
X136500000Y-83250000D03*
X162000000Y-93250000D03*
X137000000Y-63750000D03*
X146250000Y-68000000D03*
X177500000Y-79750000D03*
X203500000Y-95500000D03*
X178000000Y-93750000D03*
X129750000Y-73750000D03*
X137000000Y-71250000D03*
X189500000Y-84750000D03*
X173750000Y-56500000D03*
X198500000Y-55000000D03*
X162000000Y-80750000D03*
X127250000Y-56500000D03*
X125250000Y-59500000D03*
X199500000Y-59000000D03*
%TD*%
D23*
%TO.N,VCC*%
X126135000Y-64750000D02*
X127885000Y-63000000D01*
X127750000Y-66000000D02*
X126500000Y-64750000D01*
X127750000Y-73000000D02*
X127750000Y-66000000D01*
X126135000Y-73750000D02*
X127000000Y-73750000D01*
X126500000Y-64750000D02*
X126135000Y-64750000D01*
X127885000Y-63000000D02*
X131000000Y-63000000D01*
X131000000Y-63000000D02*
X131000000Y-62960000D01*
X127000000Y-73750000D02*
X127750000Y-73000000D01*
X131000000Y-62960000D02*
X132710000Y-61250000D01*
%TO.N,Net-(DRV_1-OUT2)*%
X195490000Y-62870000D02*
X197750000Y-65130000D01*
X197750000Y-69695000D02*
X200055000Y-72000000D01*
X197750000Y-65130000D02*
X197750000Y-69695000D01*
%TO.N,Net-(DRV_1-IN2)*%
X177500000Y-60540000D02*
X180250000Y-57790000D01*
X177500000Y-66310000D02*
X177500000Y-60540000D01*
X174750000Y-69060000D02*
X177500000Y-66310000D01*
%TO.N,Net-(DRV_2-OUT2)*%
X195490000Y-79870000D02*
X197750000Y-82130000D01*
X197750000Y-87750000D02*
X199000000Y-89000000D01*
X197750000Y-82130000D02*
X197750000Y-87750000D01*
X199000000Y-89000000D02*
X200055000Y-89000000D01*
%TO.N,Net-(DRV_3-IN2)*%
X145000000Y-97710000D02*
X146100000Y-97710000D01*
X146100000Y-97710000D02*
X149350000Y-94460000D01*
%TO.N,Net-(DRV_3-IN1)*%
X146100000Y-100250000D02*
X149350000Y-97000000D01*
X145000000Y-100250000D02*
X146100000Y-100250000D01*
%TD*%
%TA.AperFunction,Conductor*%
%TO.N,GND*%
G36*
X205004418Y-53500816D02*
G01*
X205204561Y-53515130D01*
X205222063Y-53517647D01*
X205413797Y-53559355D01*
X205430755Y-53564334D01*
X205614609Y-53632909D01*
X205630701Y-53640259D01*
X205802904Y-53734288D01*
X205817784Y-53743849D01*
X205936578Y-53832778D01*
X205974867Y-53861441D01*
X205988237Y-53873027D01*
X206126972Y-54011762D01*
X206138558Y-54025132D01*
X206256146Y-54182210D01*
X206265711Y-54197095D01*
X206359740Y-54369298D01*
X206367090Y-54385390D01*
X206435662Y-54569236D01*
X206440646Y-54586212D01*
X206482351Y-54777931D01*
X206484869Y-54795442D01*
X206499184Y-54995580D01*
X206499500Y-55004427D01*
X206499500Y-101495572D01*
X206499184Y-101504419D01*
X206484869Y-101704557D01*
X206482351Y-101722068D01*
X206440646Y-101913787D01*
X206435662Y-101930763D01*
X206367090Y-102114609D01*
X206359740Y-102130701D01*
X206265711Y-102302904D01*
X206256146Y-102317789D01*
X206138558Y-102474867D01*
X206126972Y-102488237D01*
X205988237Y-102626972D01*
X205974867Y-102638558D01*
X205817789Y-102756146D01*
X205802904Y-102765711D01*
X205630701Y-102859740D01*
X205614609Y-102867090D01*
X205430763Y-102935662D01*
X205413787Y-102940646D01*
X205222068Y-102982351D01*
X205204557Y-102984869D01*
X205023779Y-102997799D01*
X205004417Y-102999184D01*
X204995572Y-102999500D01*
X120504428Y-102999500D01*
X120495582Y-102999184D01*
X120473622Y-102997613D01*
X120295442Y-102984869D01*
X120277931Y-102982351D01*
X120086212Y-102940646D01*
X120069236Y-102935662D01*
X119885390Y-102867090D01*
X119869298Y-102859740D01*
X119697095Y-102765711D01*
X119682210Y-102756146D01*
X119525132Y-102638558D01*
X119511762Y-102626972D01*
X119373027Y-102488237D01*
X119361441Y-102474867D01*
X119243849Y-102317784D01*
X119234288Y-102302904D01*
X119140259Y-102130701D01*
X119132909Y-102114609D01*
X119072091Y-101951551D01*
X119064334Y-101930755D01*
X119059355Y-101913797D01*
X119017647Y-101722063D01*
X119015130Y-101704556D01*
X119000816Y-101504418D01*
X119000500Y-101495572D01*
X119000500Y-99878711D01*
X120149500Y-99878711D01*
X120149500Y-100121288D01*
X120181161Y-100361785D01*
X120243947Y-100596104D01*
X120331616Y-100807755D01*
X120336776Y-100820212D01*
X120458064Y-101030289D01*
X120458066Y-101030292D01*
X120458067Y-101030293D01*
X120605733Y-101222736D01*
X120605739Y-101222743D01*
X120777256Y-101394260D01*
X120777263Y-101394266D01*
X120890321Y-101481018D01*
X120969711Y-101541936D01*
X121179788Y-101663224D01*
X121403900Y-101756054D01*
X121638211Y-101818838D01*
X121818586Y-101842584D01*
X121878711Y-101850500D01*
X121878712Y-101850500D01*
X122121289Y-101850500D01*
X122169388Y-101844167D01*
X122361789Y-101818838D01*
X122596100Y-101756054D01*
X122820212Y-101663224D01*
X123030289Y-101541936D01*
X123222738Y-101394265D01*
X123394265Y-101222738D01*
X123541936Y-101030289D01*
X123663224Y-100820212D01*
X123756054Y-100596100D01*
X123818838Y-100361789D01*
X123850500Y-100121288D01*
X123850500Y-99878712D01*
X123818838Y-99638211D01*
X123756054Y-99403900D01*
X123663224Y-99179788D01*
X123541936Y-98969711D01*
X123425742Y-98818284D01*
X123394266Y-98777263D01*
X123394260Y-98777256D01*
X123222743Y-98605739D01*
X123222736Y-98605733D01*
X123030293Y-98458067D01*
X123030292Y-98458066D01*
X123030289Y-98458064D01*
X122820212Y-98336776D01*
X122820205Y-98336773D01*
X122596104Y-98243947D01*
X122361785Y-98181161D01*
X122121289Y-98149500D01*
X122121288Y-98149500D01*
X121878712Y-98149500D01*
X121878711Y-98149500D01*
X121638214Y-98181161D01*
X121403895Y-98243947D01*
X121179794Y-98336773D01*
X121179785Y-98336777D01*
X120969706Y-98458067D01*
X120777263Y-98605733D01*
X120777256Y-98605739D01*
X120605739Y-98777256D01*
X120605733Y-98777263D01*
X120458067Y-98969706D01*
X120336777Y-99179785D01*
X120336773Y-99179794D01*
X120243947Y-99403895D01*
X120181161Y-99638214D01*
X120149500Y-99878711D01*
X119000500Y-99878711D01*
X119000500Y-90349983D01*
X123694500Y-90349983D01*
X123694500Y-91650001D01*
X123694501Y-91650018D01*
X123705000Y-91752796D01*
X123705001Y-91752799D01*
X123743618Y-91869336D01*
X123760186Y-91919334D01*
X123831130Y-92034354D01*
X123852289Y-92068657D01*
X123976344Y-92192712D01*
X124131120Y-92288178D01*
X124177845Y-92340126D01*
X124189068Y-92409088D01*
X124161224Y-92473171D01*
X124153706Y-92481398D01*
X124014889Y-92620215D01*
X123889951Y-92792179D01*
X123793444Y-92981585D01*
X123727753Y-93183760D01*
X123713077Y-93276421D01*
X123694500Y-93393713D01*
X123694500Y-93606287D01*
X123727754Y-93816243D01*
X123783048Y-93986421D01*
X123793444Y-94018414D01*
X123889951Y-94207820D01*
X124014890Y-94379786D01*
X124165213Y-94530109D01*
X124337179Y-94655048D01*
X124337181Y-94655049D01*
X124337184Y-94655051D01*
X124526588Y-94751557D01*
X124728757Y-94817246D01*
X124938713Y-94850500D01*
X124938714Y-94850500D01*
X125451286Y-94850500D01*
X125451287Y-94850500D01*
X125661243Y-94817246D01*
X125863412Y-94751557D01*
X126052816Y-94655051D01*
X126163887Y-94574354D01*
X126224786Y-94530109D01*
X126224788Y-94530106D01*
X126224792Y-94530104D01*
X126375104Y-94379792D01*
X126375106Y-94379788D01*
X126375109Y-94379786D01*
X126500048Y-94207820D01*
X126500047Y-94207820D01*
X126500051Y-94207816D01*
X126596557Y-94018412D01*
X126662246Y-93816243D01*
X126695500Y-93606287D01*
X126695500Y-93393713D01*
X126662246Y-93183757D01*
X126596557Y-92981588D01*
X126500051Y-92792184D01*
X126500049Y-92792181D01*
X126500048Y-92792179D01*
X126375109Y-92620213D01*
X126236294Y-92481398D01*
X126202809Y-92420075D01*
X126207793Y-92350383D01*
X126249665Y-92294450D01*
X126258879Y-92288178D01*
X126264331Y-92284814D01*
X126264334Y-92284814D01*
X126413656Y-92192712D01*
X126537712Y-92068656D01*
X126629814Y-91919334D01*
X126684999Y-91752797D01*
X126695500Y-91650009D01*
X126695499Y-90349992D01*
X126684999Y-90247203D01*
X126629814Y-90080666D01*
X126537712Y-89931344D01*
X126413656Y-89807288D01*
X126320376Y-89749753D01*
X126264336Y-89715187D01*
X126264331Y-89715185D01*
X126242093Y-89707816D01*
X126097797Y-89660001D01*
X126097795Y-89660000D01*
X125995010Y-89649500D01*
X124394998Y-89649500D01*
X124394981Y-89649501D01*
X124292203Y-89660000D01*
X124292200Y-89660001D01*
X124125668Y-89715185D01*
X124125663Y-89715187D01*
X123976342Y-89807289D01*
X123852289Y-89931342D01*
X123760187Y-90080663D01*
X123760185Y-90080668D01*
X123740015Y-90141538D01*
X123705001Y-90247203D01*
X123705001Y-90247204D01*
X123705000Y-90247204D01*
X123694500Y-90349983D01*
X119000500Y-90349983D01*
X119000500Y-87435646D01*
X128307000Y-87435646D01*
X128307000Y-87664353D01*
X128342778Y-87890246D01*
X128342778Y-87890249D01*
X128413450Y-88107755D01*
X128437517Y-88154988D01*
X128517283Y-88311538D01*
X128651714Y-88496566D01*
X128813434Y-88658286D01*
X128848492Y-88683757D01*
X128897938Y-88719682D01*
X128940603Y-88775013D01*
X128946582Y-88844626D01*
X128913976Y-88906421D01*
X128897938Y-88920318D01*
X128813432Y-88981715D01*
X128651716Y-89143431D01*
X128651716Y-89143432D01*
X128651714Y-89143434D01*
X128593980Y-89222896D01*
X128517283Y-89328461D01*
X128413450Y-89532244D01*
X128342778Y-89749750D01*
X128342778Y-89749753D01*
X128333665Y-89807289D01*
X128307000Y-89975646D01*
X128307000Y-90204354D01*
X128323303Y-90307288D01*
X128342778Y-90430246D01*
X128342778Y-90430249D01*
X128413450Y-90647755D01*
X128464122Y-90747204D01*
X128517283Y-90851538D01*
X128651714Y-91036566D01*
X128813434Y-91198286D01*
X128882923Y-91248773D01*
X128897938Y-91259682D01*
X128940603Y-91315013D01*
X128946582Y-91384626D01*
X128913976Y-91446421D01*
X128897938Y-91460318D01*
X128813432Y-91521715D01*
X128651716Y-91683431D01*
X128651716Y-91683432D01*
X128651714Y-91683434D01*
X128601319Y-91752797D01*
X128517283Y-91868461D01*
X128413450Y-92072244D01*
X128342778Y-92289750D01*
X128342778Y-92289753D01*
X128307000Y-92515646D01*
X128307000Y-92744353D01*
X128342778Y-92970246D01*
X128342778Y-92970249D01*
X128413450Y-93187755D01*
X128437517Y-93234988D01*
X128517283Y-93391538D01*
X128651714Y-93576566D01*
X128813434Y-93738286D01*
X128882923Y-93788773D01*
X128897938Y-93799682D01*
X128940603Y-93855013D01*
X128946582Y-93924626D01*
X128913976Y-93986421D01*
X128897938Y-94000318D01*
X128813432Y-94061715D01*
X128651716Y-94223431D01*
X128651716Y-94223432D01*
X128651714Y-94223434D01*
X128593980Y-94302896D01*
X128517283Y-94408461D01*
X128413450Y-94612244D01*
X128342778Y-94829750D01*
X128342778Y-94829753D01*
X128307000Y-95055646D01*
X128307000Y-95284353D01*
X128342778Y-95510246D01*
X128342778Y-95510249D01*
X128413450Y-95727755D01*
X128437517Y-95774988D01*
X128517283Y-95931538D01*
X128651714Y-96116566D01*
X128813434Y-96278286D01*
X128882923Y-96328773D01*
X128897938Y-96339682D01*
X128940603Y-96395013D01*
X128946582Y-96464626D01*
X128913976Y-96526421D01*
X128897938Y-96540318D01*
X128813432Y-96601715D01*
X128651716Y-96763431D01*
X128651716Y-96763432D01*
X128651714Y-96763434D01*
X128593980Y-96842896D01*
X128517283Y-96948461D01*
X128413450Y-97152244D01*
X128342778Y-97369750D01*
X128342778Y-97369753D01*
X128307000Y-97595646D01*
X128307000Y-97824353D01*
X128342778Y-98050246D01*
X128342778Y-98050249D01*
X128413450Y-98267755D01*
X128516209Y-98469431D01*
X128517283Y-98471538D01*
X128651714Y-98656566D01*
X128813434Y-98818286D01*
X128882923Y-98868773D01*
X128897938Y-98879682D01*
X128940603Y-98935013D01*
X128946582Y-99004626D01*
X128913976Y-99066421D01*
X128897938Y-99080318D01*
X128813432Y-99141715D01*
X128651716Y-99303431D01*
X128651716Y-99303432D01*
X128651714Y-99303434D01*
X128593980Y-99382896D01*
X128517283Y-99488461D01*
X128413450Y-99692244D01*
X128342778Y-99909750D01*
X128342778Y-99909753D01*
X128307000Y-100135646D01*
X128307000Y-100364353D01*
X128342778Y-100590246D01*
X128342778Y-100590249D01*
X128413450Y-100807755D01*
X128446076Y-100871786D01*
X128517283Y-101011538D01*
X128651714Y-101196566D01*
X128813434Y-101358286D01*
X128998462Y-101492717D01*
X129095052Y-101541932D01*
X129202244Y-101596549D01*
X129419751Y-101667221D01*
X129419752Y-101667221D01*
X129419755Y-101667222D01*
X129645646Y-101703000D01*
X129645647Y-101703000D01*
X129874353Y-101703000D01*
X129874354Y-101703000D01*
X130100245Y-101667222D01*
X130100248Y-101667221D01*
X130100249Y-101667221D01*
X130317755Y-101596549D01*
X130317755Y-101596548D01*
X130317758Y-101596548D01*
X130521538Y-101492717D01*
X130706566Y-101358286D01*
X130868286Y-101196566D01*
X131002717Y-101011538D01*
X131106548Y-100807758D01*
X131106549Y-100807755D01*
X131177221Y-100590249D01*
X131177221Y-100590248D01*
X131177222Y-100590245D01*
X131213000Y-100364354D01*
X131213000Y-100135646D01*
X131177222Y-99909755D01*
X131177221Y-99909751D01*
X131177221Y-99909750D01*
X131106549Y-99692244D01*
X131002716Y-99488461D01*
X130868286Y-99303434D01*
X130706566Y-99141714D01*
X130622059Y-99080316D01*
X130579396Y-99024988D01*
X130573417Y-98955375D01*
X130606023Y-98893580D01*
X130622056Y-98879685D01*
X130706566Y-98818286D01*
X130868286Y-98656566D01*
X131002717Y-98471538D01*
X131106548Y-98267758D01*
X131144972Y-98149500D01*
X131177221Y-98050249D01*
X131177221Y-98050248D01*
X131177222Y-98050245D01*
X131213000Y-97824354D01*
X131213000Y-97595646D01*
X131177222Y-97369755D01*
X131177221Y-97369751D01*
X131177221Y-97369750D01*
X131106549Y-97152244D01*
X131025069Y-96992331D01*
X131002717Y-96948462D01*
X130868286Y-96763434D01*
X130706566Y-96601714D01*
X130622059Y-96540316D01*
X130579396Y-96484988D01*
X130573417Y-96415375D01*
X130606023Y-96353580D01*
X130622056Y-96339685D01*
X130706566Y-96278286D01*
X130868286Y-96116566D01*
X131002717Y-95931538D01*
X131106548Y-95727758D01*
X131138415Y-95629682D01*
X131177221Y-95510249D01*
X131177221Y-95510248D01*
X131177222Y-95510245D01*
X131213000Y-95284354D01*
X131213000Y-95055646D01*
X131177222Y-94829755D01*
X131177221Y-94829751D01*
X131177221Y-94829750D01*
X131106549Y-94612244D01*
X131064699Y-94530109D01*
X131002717Y-94408462D01*
X130868286Y-94223434D01*
X130706566Y-94061714D01*
X130622059Y-94000316D01*
X130579396Y-93944988D01*
X130573417Y-93875375D01*
X130606023Y-93813580D01*
X130622056Y-93799685D01*
X130706566Y-93738286D01*
X130868286Y-93576566D01*
X131002717Y-93391538D01*
X131106548Y-93187758D01*
X131120437Y-93145013D01*
X131177221Y-92970249D01*
X131177221Y-92970248D01*
X131177222Y-92970245D01*
X131213000Y-92744354D01*
X131213000Y-92515646D01*
X131177222Y-92289755D01*
X131177221Y-92289751D01*
X131177221Y-92289750D01*
X131106549Y-92072244D01*
X131079245Y-92018657D01*
X131002717Y-91868462D01*
X130868286Y-91683434D01*
X130706566Y-91521714D01*
X130622059Y-91460316D01*
X130579396Y-91404988D01*
X130573417Y-91335375D01*
X130606023Y-91273580D01*
X130622056Y-91259685D01*
X130706566Y-91198286D01*
X130868286Y-91036566D01*
X131002717Y-90851538D01*
X131106548Y-90647758D01*
X131128347Y-90580668D01*
X131177221Y-90430249D01*
X131177221Y-90430248D01*
X131177222Y-90430245D01*
X131213000Y-90204354D01*
X131213000Y-89975646D01*
X131177222Y-89749755D01*
X131177221Y-89749751D01*
X131177221Y-89749750D01*
X131106549Y-89532244D01*
X131056427Y-89433874D01*
X131002717Y-89328462D01*
X130868286Y-89143434D01*
X130706566Y-88981714D01*
X130622059Y-88920316D01*
X130579396Y-88864988D01*
X130573417Y-88795375D01*
X130606023Y-88733580D01*
X130622056Y-88719685D01*
X130706566Y-88658286D01*
X130868286Y-88496566D01*
X131002717Y-88311538D01*
X131106548Y-88107758D01*
X131138415Y-88009682D01*
X131177221Y-87890249D01*
X131177221Y-87890248D01*
X131177222Y-87890245D01*
X131213000Y-87664354D01*
X131213000Y-87435646D01*
X143547000Y-87435646D01*
X143547000Y-87664353D01*
X143582778Y-87890246D01*
X143582778Y-87890249D01*
X143653450Y-88107755D01*
X143677517Y-88154988D01*
X143757283Y-88311538D01*
X143891714Y-88496566D01*
X144053434Y-88658286D01*
X144088492Y-88683757D01*
X144137938Y-88719682D01*
X144180603Y-88775013D01*
X144186582Y-88844626D01*
X144153976Y-88906421D01*
X144137938Y-88920318D01*
X144053432Y-88981715D01*
X143891716Y-89143431D01*
X143891716Y-89143432D01*
X143891714Y-89143434D01*
X143833980Y-89222896D01*
X143757283Y-89328461D01*
X143653450Y-89532244D01*
X143582778Y-89749750D01*
X143582778Y-89749753D01*
X143573665Y-89807289D01*
X143547000Y-89975646D01*
X143547000Y-90204354D01*
X143563303Y-90307288D01*
X143582778Y-90430246D01*
X143582778Y-90430249D01*
X143653450Y-90647755D01*
X143704122Y-90747204D01*
X143757283Y-90851538D01*
X143891714Y-91036566D01*
X144053434Y-91198286D01*
X144053437Y-91198288D01*
X144138362Y-91259990D01*
X144181028Y-91315320D01*
X144187007Y-91384933D01*
X144166242Y-91424285D01*
X144164899Y-91441347D01*
X144889981Y-92166428D01*
X144816174Y-92186205D01*
X144707575Y-92248905D01*
X144618905Y-92337575D01*
X144556205Y-92446174D01*
X144536428Y-92519981D01*
X143811347Y-91794899D01*
X143811346Y-91794900D01*
X143757713Y-91868719D01*
X143653917Y-92072431D01*
X143583265Y-92289874D01*
X143583265Y-92289875D01*
X143547500Y-92515686D01*
X143547500Y-92744313D01*
X143583265Y-92970124D01*
X143583265Y-92970125D01*
X143653917Y-93187568D01*
X143757711Y-93391276D01*
X143811347Y-93465098D01*
X143811347Y-93465099D01*
X144536428Y-92740018D01*
X144556205Y-92813826D01*
X144618905Y-92922425D01*
X144707575Y-93011095D01*
X144816174Y-93073795D01*
X144889981Y-93093571D01*
X144164899Y-93818651D01*
X144166226Y-93835505D01*
X144181029Y-93854702D01*
X144187008Y-93924316D01*
X144154402Y-93986111D01*
X144138364Y-94000007D01*
X144053440Y-94061709D01*
X144053431Y-94061716D01*
X143891716Y-94223431D01*
X143891716Y-94223432D01*
X143891714Y-94223434D01*
X143833980Y-94302896D01*
X143757283Y-94408461D01*
X143653450Y-94612244D01*
X143582778Y-94829750D01*
X143582778Y-94829753D01*
X143547000Y-95055646D01*
X143547000Y-95284353D01*
X143582778Y-95510246D01*
X143582778Y-95510249D01*
X143653450Y-95727755D01*
X143677517Y-95774988D01*
X143757283Y-95931538D01*
X143891714Y-96116566D01*
X144053434Y-96278286D01*
X144122923Y-96328773D01*
X144137938Y-96339682D01*
X144180603Y-96395013D01*
X144186582Y-96464626D01*
X144153976Y-96526421D01*
X144137938Y-96540318D01*
X144053432Y-96601715D01*
X143891716Y-96763431D01*
X143891716Y-96763432D01*
X143891714Y-96763434D01*
X143833980Y-96842896D01*
X143757283Y-96948461D01*
X143653450Y-97152244D01*
X143582778Y-97369750D01*
X143582778Y-97369753D01*
X143547000Y-97595646D01*
X143547000Y-97824353D01*
X143582778Y-98050246D01*
X143582778Y-98050249D01*
X143653450Y-98267755D01*
X143756209Y-98469431D01*
X143757283Y-98471538D01*
X143891714Y-98656566D01*
X144053434Y-98818286D01*
X144122923Y-98868773D01*
X144137938Y-98879682D01*
X144180603Y-98935013D01*
X144186582Y-99004626D01*
X144153976Y-99066421D01*
X144137938Y-99080318D01*
X144053432Y-99141715D01*
X143891716Y-99303431D01*
X143891716Y-99303432D01*
X143891714Y-99303434D01*
X143833980Y-99382896D01*
X143757283Y-99488461D01*
X143653450Y-99692244D01*
X143582778Y-99909750D01*
X143582778Y-99909753D01*
X143547000Y-100135646D01*
X143547000Y-100364353D01*
X143582778Y-100590246D01*
X143582778Y-100590249D01*
X143653450Y-100807755D01*
X143686076Y-100871786D01*
X143757283Y-101011538D01*
X143891714Y-101196566D01*
X144053434Y-101358286D01*
X144238462Y-101492717D01*
X144335052Y-101541932D01*
X144442244Y-101596549D01*
X144659751Y-101667221D01*
X144659752Y-101667221D01*
X144659755Y-101667222D01*
X144885646Y-101703000D01*
X144885647Y-101703000D01*
X145114353Y-101703000D01*
X145114354Y-101703000D01*
X145340245Y-101667222D01*
X145340248Y-101667221D01*
X145340249Y-101667221D01*
X145557755Y-101596549D01*
X145557755Y-101596548D01*
X145557758Y-101596548D01*
X145761538Y-101492717D01*
X145946566Y-101358286D01*
X146108286Y-101196566D01*
X146191890Y-101081492D01*
X146247219Y-101038827D01*
X146268010Y-101032762D01*
X146333497Y-101019737D01*
X146479179Y-100959394D01*
X146610289Y-100871789D01*
X147603367Y-99878711D01*
X201649500Y-99878711D01*
X201649500Y-100121288D01*
X201681161Y-100361785D01*
X201743947Y-100596104D01*
X201831616Y-100807755D01*
X201836776Y-100820212D01*
X201958064Y-101030289D01*
X201958066Y-101030292D01*
X201958067Y-101030293D01*
X202105733Y-101222736D01*
X202105739Y-101222743D01*
X202277256Y-101394260D01*
X202277263Y-101394266D01*
X202390321Y-101481018D01*
X202469711Y-101541936D01*
X202679788Y-101663224D01*
X202903900Y-101756054D01*
X203138211Y-101818838D01*
X203318586Y-101842584D01*
X203378711Y-101850500D01*
X203378712Y-101850500D01*
X203621289Y-101850500D01*
X203669388Y-101844167D01*
X203861789Y-101818838D01*
X204096100Y-101756054D01*
X204320212Y-101663224D01*
X204530289Y-101541936D01*
X204722738Y-101394265D01*
X204894265Y-101222738D01*
X205041936Y-101030289D01*
X205163224Y-100820212D01*
X205256054Y-100596100D01*
X205318838Y-100361789D01*
X205350500Y-100121288D01*
X205350500Y-99878712D01*
X205318838Y-99638211D01*
X205256054Y-99403900D01*
X205163224Y-99179788D01*
X205041936Y-98969711D01*
X204925742Y-98818284D01*
X204894266Y-98777263D01*
X204894260Y-98777256D01*
X204722743Y-98605739D01*
X204722736Y-98605733D01*
X204530293Y-98458067D01*
X204530292Y-98458066D01*
X204530289Y-98458064D01*
X204320212Y-98336776D01*
X204320205Y-98336773D01*
X204096104Y-98243947D01*
X203861785Y-98181161D01*
X203621289Y-98149500D01*
X203621288Y-98149500D01*
X203378712Y-98149500D01*
X203378711Y-98149500D01*
X203138214Y-98181161D01*
X202903895Y-98243947D01*
X202679794Y-98336773D01*
X202679785Y-98336777D01*
X202469706Y-98458067D01*
X202277263Y-98605733D01*
X202277256Y-98605739D01*
X202105739Y-98777256D01*
X202105733Y-98777263D01*
X201958067Y-98969706D01*
X201836777Y-99179785D01*
X201836773Y-99179794D01*
X201743947Y-99403895D01*
X201681161Y-99638214D01*
X201649500Y-99878711D01*
X147603367Y-99878711D01*
X147843864Y-99638214D01*
X148663794Y-98818283D01*
X149012647Y-98469429D01*
X149073968Y-98435946D01*
X149119724Y-98434639D01*
X149235646Y-98453000D01*
X149235647Y-98453000D01*
X149464353Y-98453000D01*
X149464354Y-98453000D01*
X149690245Y-98417222D01*
X149690248Y-98417221D01*
X149690249Y-98417221D01*
X149907755Y-98346549D01*
X149907755Y-98346548D01*
X149907758Y-98346548D01*
X150111538Y-98242717D01*
X150296566Y-98108286D01*
X150458286Y-97946566D01*
X150592717Y-97761538D01*
X150696548Y-97557758D01*
X150757634Y-97369755D01*
X150767221Y-97340249D01*
X150767221Y-97340248D01*
X150767222Y-97340245D01*
X150803000Y-97114354D01*
X150803000Y-96885646D01*
X150767222Y-96659755D01*
X150767221Y-96659751D01*
X150767221Y-96659750D01*
X150696549Y-96442244D01*
X150613007Y-96278284D01*
X150592717Y-96238462D01*
X150458286Y-96053434D01*
X150296566Y-95891714D01*
X150212059Y-95830316D01*
X150169396Y-95774988D01*
X150163417Y-95705375D01*
X150196023Y-95643580D01*
X150212056Y-95629685D01*
X150296566Y-95568286D01*
X150458286Y-95406566D01*
X150592717Y-95221538D01*
X150696548Y-95017758D01*
X150757634Y-94829755D01*
X150767221Y-94800249D01*
X150767221Y-94800248D01*
X150767222Y-94800245D01*
X150803000Y-94574354D01*
X150803000Y-94345646D01*
X150767222Y-94119755D01*
X150767221Y-94119751D01*
X150767221Y-94119750D01*
X150696549Y-93902244D01*
X150662544Y-93835505D01*
X150592717Y-93698462D01*
X150458286Y-93513434D01*
X150296566Y-93351714D01*
X150212059Y-93290316D01*
X150169396Y-93234988D01*
X150163417Y-93165375D01*
X150196023Y-93103580D01*
X150212056Y-93089685D01*
X150296566Y-93028286D01*
X150458286Y-92866566D01*
X150592717Y-92681538D01*
X150696548Y-92477758D01*
X150718860Y-92409088D01*
X150767221Y-92260249D01*
X150767221Y-92260248D01*
X150767222Y-92260245D01*
X150803000Y-92034354D01*
X150803000Y-91805646D01*
X150767222Y-91579755D01*
X150767221Y-91579751D01*
X150767221Y-91579750D01*
X150696549Y-91362244D01*
X150695406Y-91360000D01*
X150592717Y-91158462D01*
X150458286Y-90973434D01*
X150296566Y-90811714D01*
X150212059Y-90750316D01*
X150169396Y-90694988D01*
X150163417Y-90625375D01*
X150196023Y-90563580D01*
X150212056Y-90549685D01*
X150296566Y-90488286D01*
X150458286Y-90326566D01*
X150592717Y-90141538D01*
X150696548Y-89937758D01*
X150711023Y-89893209D01*
X150767221Y-89720249D01*
X150767221Y-89720248D01*
X150767222Y-89720245D01*
X150803000Y-89494354D01*
X150803000Y-89265646D01*
X150767222Y-89039755D01*
X150767221Y-89039751D01*
X150767221Y-89039750D01*
X150696549Y-88822244D01*
X150613007Y-88658284D01*
X150592717Y-88618462D01*
X150458286Y-88433434D01*
X150296566Y-88271714D01*
X150212059Y-88210316D01*
X150169396Y-88154988D01*
X150163417Y-88085375D01*
X150196023Y-88023580D01*
X150212056Y-88009685D01*
X150296566Y-87948286D01*
X150458286Y-87786566D01*
X150592717Y-87601538D01*
X150696548Y-87397758D01*
X150709697Y-87357289D01*
X150767221Y-87180249D01*
X150767221Y-87180248D01*
X150767222Y-87180245D01*
X150803000Y-86954354D01*
X150803000Y-86725646D01*
X150767222Y-86499755D01*
X150767221Y-86499751D01*
X150767221Y-86499750D01*
X150696549Y-86282244D01*
X150680912Y-86251555D01*
X150592717Y-86078462D01*
X150458286Y-85893434D01*
X150296566Y-85731714D01*
X150212059Y-85670316D01*
X150169396Y-85614988D01*
X150163417Y-85545375D01*
X150196023Y-85483580D01*
X150212056Y-85469685D01*
X150296566Y-85408286D01*
X150458286Y-85246566D01*
X150592717Y-85061538D01*
X150696548Y-84857758D01*
X150734065Y-84742292D01*
X150767221Y-84640249D01*
X150767221Y-84640248D01*
X150767222Y-84640245D01*
X150803000Y-84414354D01*
X150803000Y-84185646D01*
X150767222Y-83959755D01*
X150767221Y-83959751D01*
X150767221Y-83959750D01*
X150696549Y-83742244D01*
X150687757Y-83724988D01*
X150592717Y-83538462D01*
X150458286Y-83353434D01*
X150296566Y-83191714D01*
X150212059Y-83130316D01*
X150169396Y-83074988D01*
X150163417Y-83005375D01*
X150196023Y-82943580D01*
X150212056Y-82929685D01*
X150296566Y-82868286D01*
X150458286Y-82706566D01*
X150592717Y-82521538D01*
X150696548Y-82317758D01*
X150764994Y-82107102D01*
X150767221Y-82100249D01*
X150767221Y-82100248D01*
X150767222Y-82100245D01*
X150803000Y-81874354D01*
X150803000Y-81645646D01*
X150767222Y-81419755D01*
X150767221Y-81419751D01*
X150767221Y-81419750D01*
X150696549Y-81202244D01*
X150687598Y-81184676D01*
X150592717Y-80998462D01*
X150458286Y-80813434D01*
X150296566Y-80651714D01*
X150212059Y-80590316D01*
X150169396Y-80534988D01*
X150163417Y-80465375D01*
X150196023Y-80403580D01*
X150212056Y-80389685D01*
X150296566Y-80328286D01*
X150458286Y-80166566D01*
X150592717Y-79981538D01*
X150696548Y-79777758D01*
X150726305Y-79686174D01*
X150767221Y-79560249D01*
X150767221Y-79560248D01*
X150767222Y-79560245D01*
X150803000Y-79334354D01*
X150803000Y-79105646D01*
X150767222Y-78879755D01*
X150767221Y-78879751D01*
X150767221Y-78879750D01*
X150696549Y-78662244D01*
X150687757Y-78644988D01*
X150592717Y-78458462D01*
X150458286Y-78273434D01*
X150296566Y-78111714D01*
X150212059Y-78050316D01*
X150169396Y-77994988D01*
X150163417Y-77925375D01*
X150196023Y-77863580D01*
X150212056Y-77849685D01*
X150296566Y-77788286D01*
X150458286Y-77626566D01*
X150592717Y-77441538D01*
X150696548Y-77237758D01*
X150712758Y-77187870D01*
X150767221Y-77020249D01*
X150767221Y-77020248D01*
X150767222Y-77020245D01*
X150803000Y-76794354D01*
X150803000Y-76565646D01*
X150767222Y-76339755D01*
X150767221Y-76339751D01*
X150767221Y-76339750D01*
X150696549Y-76122244D01*
X150687757Y-76104988D01*
X150592717Y-75918462D01*
X150458286Y-75733434D01*
X150296566Y-75571714D01*
X150212059Y-75510316D01*
X150169396Y-75454988D01*
X150163417Y-75385375D01*
X150196023Y-75323580D01*
X150212056Y-75309685D01*
X150296566Y-75248286D01*
X150458286Y-75086566D01*
X150592717Y-74901538D01*
X150696548Y-74697758D01*
X150703733Y-74675646D01*
X150767221Y-74480249D01*
X150767221Y-74480248D01*
X150767222Y-74480245D01*
X150803000Y-74254354D01*
X150803000Y-74025646D01*
X150767222Y-73799755D01*
X150767221Y-73799751D01*
X150767221Y-73799750D01*
X150696549Y-73582244D01*
X150687757Y-73564988D01*
X150592717Y-73378462D01*
X150458286Y-73193434D01*
X150296566Y-73031714D01*
X150212059Y-72970316D01*
X150169396Y-72914988D01*
X150163417Y-72845375D01*
X150196023Y-72783580D01*
X150212056Y-72769685D01*
X150296566Y-72708286D01*
X150458286Y-72546566D01*
X150592717Y-72361538D01*
X150696548Y-72157758D01*
X150717766Y-72092456D01*
X150767221Y-71940249D01*
X150767221Y-71940248D01*
X150767222Y-71940245D01*
X150803000Y-71714354D01*
X150803000Y-71485646D01*
X150767222Y-71259755D01*
X150767221Y-71259751D01*
X150767221Y-71259750D01*
X150696549Y-71042244D01*
X150683690Y-71017007D01*
X150592717Y-70838462D01*
X150458286Y-70653434D01*
X150296566Y-70491714D01*
X150212059Y-70430316D01*
X150169396Y-70374988D01*
X150163417Y-70305375D01*
X150196023Y-70243580D01*
X150212056Y-70229685D01*
X150296566Y-70168286D01*
X150458286Y-70006566D01*
X150592717Y-69821538D01*
X150696548Y-69617758D01*
X150767222Y-69400245D01*
X150803000Y-69174354D01*
X150803000Y-68945646D01*
X150767222Y-68719755D01*
X150767221Y-68719751D01*
X150767221Y-68719750D01*
X150696549Y-68502244D01*
X150592716Y-68298461D01*
X150586750Y-68290249D01*
X150458286Y-68113434D01*
X150296566Y-67951714D01*
X150212059Y-67890316D01*
X150169396Y-67834988D01*
X150163417Y-67765375D01*
X150196023Y-67703580D01*
X150212056Y-67689685D01*
X150296566Y-67628286D01*
X150458286Y-67466566D01*
X150592717Y-67281538D01*
X150696548Y-67077758D01*
X150767222Y-66860245D01*
X150803000Y-66634354D01*
X150803000Y-66405646D01*
X150767222Y-66179755D01*
X150767221Y-66179751D01*
X150767221Y-66179750D01*
X150696549Y-65962244D01*
X150684960Y-65939500D01*
X150592717Y-65758462D01*
X150458286Y-65573434D01*
X150296566Y-65411714D01*
X150211634Y-65350007D01*
X150168970Y-65294678D01*
X150162991Y-65225064D01*
X150195597Y-65163269D01*
X150211637Y-65149371D01*
X150296239Y-65087905D01*
X150457902Y-64926242D01*
X150592288Y-64741276D01*
X150696082Y-64537570D01*
X150766734Y-64320128D01*
X150781009Y-64230000D01*
X149755589Y-64230000D01*
X149793795Y-64163826D01*
X149826250Y-64042700D01*
X149826250Y-63917300D01*
X149793795Y-63796174D01*
X149755589Y-63730000D01*
X150781009Y-63730000D01*
X150766734Y-63639871D01*
X150696082Y-63422429D01*
X150592288Y-63218723D01*
X150457902Y-63033757D01*
X150296242Y-62872097D01*
X150211635Y-62810626D01*
X150168970Y-62755296D01*
X150162991Y-62685682D01*
X150195597Y-62623887D01*
X150211625Y-62609999D01*
X150296566Y-62548286D01*
X150458286Y-62386566D01*
X150592717Y-62201538D01*
X150696548Y-61997758D01*
X150729055Y-61897711D01*
X150767221Y-61780249D01*
X150767221Y-61780248D01*
X150767222Y-61780245D01*
X150803000Y-61554354D01*
X150803000Y-61325646D01*
X150767222Y-61099755D01*
X150767221Y-61099751D01*
X150767221Y-61099750D01*
X150696549Y-60882244D01*
X150680069Y-60849901D01*
X150592717Y-60678462D01*
X150458286Y-60493434D01*
X150296566Y-60331714D01*
X150295098Y-60330647D01*
X150271182Y-60313270D01*
X150271159Y-60313255D01*
X150261875Y-60306510D01*
X150111538Y-60197283D01*
X150039989Y-60160827D01*
X149907755Y-60093450D01*
X149690248Y-60022778D01*
X149481748Y-59989755D01*
X149464354Y-59987000D01*
X149235646Y-59987000D01*
X149163399Y-59998443D01*
X149009753Y-60022778D01*
X149009750Y-60022778D01*
X148792244Y-60093450D01*
X148588461Y-60197283D01*
X148515903Y-60250000D01*
X148403434Y-60331714D01*
X148403432Y-60331716D01*
X148403431Y-60331716D01*
X148241716Y-60493431D01*
X148241716Y-60493432D01*
X148241714Y-60493434D01*
X148199532Y-60551492D01*
X148107283Y-60678461D01*
X148003450Y-60882244D01*
X147932778Y-61099750D01*
X147932778Y-61099753D01*
X147919407Y-61184174D01*
X147897000Y-61325646D01*
X147897000Y-61554354D01*
X147900378Y-61575683D01*
X147932778Y-61780246D01*
X147932778Y-61780249D01*
X148003450Y-61997755D01*
X148089465Y-62166569D01*
X148107283Y-62201538D01*
X148241714Y-62386566D01*
X148403434Y-62548286D01*
X148488364Y-62609991D01*
X148531029Y-62665321D01*
X148537008Y-62734935D01*
X148504402Y-62796730D01*
X148488364Y-62810627D01*
X148403757Y-62872097D01*
X148242097Y-63033757D01*
X148107711Y-63218723D01*
X148003917Y-63422429D01*
X147933265Y-63639871D01*
X147918991Y-63730000D01*
X148944411Y-63730000D01*
X148906205Y-63796174D01*
X148873750Y-63917300D01*
X148873750Y-64042700D01*
X148906205Y-64163826D01*
X148944411Y-64230000D01*
X147918991Y-64230000D01*
X147933265Y-64320128D01*
X148003917Y-64537570D01*
X148107711Y-64741276D01*
X148242097Y-64926242D01*
X148403757Y-65087902D01*
X148403763Y-65087907D01*
X148488363Y-65149372D01*
X148531029Y-65204701D01*
X148537008Y-65274315D01*
X148504403Y-65336110D01*
X148488364Y-65350007D01*
X148403440Y-65411709D01*
X148403431Y-65411716D01*
X148241716Y-65573431D01*
X148241716Y-65573432D01*
X148241714Y-65573434D01*
X148183980Y-65652896D01*
X148107283Y-65758461D01*
X148003450Y-65962244D01*
X147932778Y-66179750D01*
X147932778Y-66179753D01*
X147914046Y-66298024D01*
X147897000Y-66405646D01*
X147897000Y-66634354D01*
X147908130Y-66704626D01*
X147932778Y-66860246D01*
X147932778Y-66860249D01*
X148003450Y-67077755D01*
X148051595Y-67172244D01*
X148107283Y-67281538D01*
X148241714Y-67466566D01*
X148403434Y-67628286D01*
X148472923Y-67678773D01*
X148487938Y-67689682D01*
X148530603Y-67745013D01*
X148536582Y-67814626D01*
X148503976Y-67876421D01*
X148487938Y-67890318D01*
X148403432Y-67951715D01*
X148241716Y-68113431D01*
X148241716Y-68113432D01*
X148241714Y-68113434D01*
X148187633Y-68187870D01*
X148107283Y-68298461D01*
X148003450Y-68502244D01*
X147932778Y-68719750D01*
X147932778Y-68719753D01*
X147904774Y-68896562D01*
X147897000Y-68945646D01*
X147897000Y-69174354D01*
X147914889Y-69287299D01*
X147932778Y-69400246D01*
X147932778Y-69400249D01*
X148003450Y-69617755D01*
X148003452Y-69617758D01*
X148107283Y-69821538D01*
X148241714Y-70006566D01*
X148403434Y-70168286D01*
X148454363Y-70205288D01*
X148487938Y-70229682D01*
X148530603Y-70285013D01*
X148536582Y-70354626D01*
X148503976Y-70416421D01*
X148487938Y-70430318D01*
X148403432Y-70491715D01*
X148241716Y-70653431D01*
X148241716Y-70653432D01*
X148241714Y-70653434D01*
X148200616Y-70710000D01*
X148107283Y-70838461D01*
X148003450Y-71042244D01*
X147932778Y-71259750D01*
X147932778Y-71259753D01*
X147897000Y-71485646D01*
X147897000Y-71714353D01*
X147932778Y-71940246D01*
X147932778Y-71940249D01*
X148003450Y-72157755D01*
X148107283Y-72361538D01*
X148241714Y-72546566D01*
X148403434Y-72708286D01*
X148419406Y-72719890D01*
X148487938Y-72769682D01*
X148530603Y-72825013D01*
X148536582Y-72894626D01*
X148503976Y-72956421D01*
X148487938Y-72970318D01*
X148403432Y-73031715D01*
X148241716Y-73193431D01*
X148241716Y-73193432D01*
X148241714Y-73193434D01*
X148212606Y-73233498D01*
X148107283Y-73378461D01*
X148003450Y-73582244D01*
X147932778Y-73799750D01*
X147932778Y-73799753D01*
X147897000Y-74025646D01*
X147897000Y-74254353D01*
X147932778Y-74480246D01*
X147932778Y-74480249D01*
X148003450Y-74697755D01*
X148075853Y-74839853D01*
X148107283Y-74901538D01*
X148241714Y-75086566D01*
X148403434Y-75248286D01*
X148409646Y-75252799D01*
X148487938Y-75309682D01*
X148530603Y-75365013D01*
X148536582Y-75434626D01*
X148503976Y-75496421D01*
X148487938Y-75510318D01*
X148403432Y-75571715D01*
X148241716Y-75733431D01*
X148241716Y-75733432D01*
X148241714Y-75733434D01*
X148204386Y-75784812D01*
X148107283Y-75918461D01*
X148003450Y-76122244D01*
X147932778Y-76339750D01*
X147932778Y-76339753D01*
X147897000Y-76565646D01*
X147897000Y-76794353D01*
X147932778Y-77020246D01*
X147932778Y-77020249D01*
X148003450Y-77237755D01*
X148107283Y-77441538D01*
X148241714Y-77626566D01*
X148403434Y-77788286D01*
X148472923Y-77838773D01*
X148487938Y-77849682D01*
X148530603Y-77905013D01*
X148536582Y-77974626D01*
X148503976Y-78036421D01*
X148487938Y-78050318D01*
X148403432Y-78111715D01*
X148241716Y-78273431D01*
X148241716Y-78273432D01*
X148241714Y-78273434D01*
X148183980Y-78352896D01*
X148107283Y-78458461D01*
X148003450Y-78662244D01*
X147932778Y-78879750D01*
X147932778Y-78879753D01*
X147932778Y-78879755D01*
X147897000Y-79105646D01*
X147897000Y-79334354D01*
X147906408Y-79393750D01*
X147932778Y-79560246D01*
X147932778Y-79560249D01*
X148003450Y-79777755D01*
X148050451Y-79869999D01*
X148107283Y-79981538D01*
X148241714Y-80166566D01*
X148403434Y-80328286D01*
X148472923Y-80378773D01*
X148487938Y-80389682D01*
X148530603Y-80445013D01*
X148536582Y-80514626D01*
X148503976Y-80576421D01*
X148487938Y-80590318D01*
X148403432Y-80651715D01*
X148241716Y-80813431D01*
X148241716Y-80813432D01*
X148241714Y-80813434D01*
X148183980Y-80892896D01*
X148107283Y-80998461D01*
X148003450Y-81202244D01*
X147932778Y-81419750D01*
X147932778Y-81419753D01*
X147930942Y-81431344D01*
X147897000Y-81645646D01*
X147897000Y-81874354D01*
X147909705Y-81954569D01*
X147932778Y-82100246D01*
X147932778Y-82100249D01*
X148003450Y-82317755D01*
X148065746Y-82440017D01*
X148107283Y-82521538D01*
X148241714Y-82706566D01*
X148403434Y-82868286D01*
X148472923Y-82918773D01*
X148487938Y-82929682D01*
X148530603Y-82985013D01*
X148536582Y-83054626D01*
X148503976Y-83116421D01*
X148487938Y-83130318D01*
X148403432Y-83191715D01*
X148241716Y-83353431D01*
X148241716Y-83353432D01*
X148241714Y-83353434D01*
X148193835Y-83419334D01*
X148107283Y-83538461D01*
X148003450Y-83742244D01*
X147932778Y-83959750D01*
X147932778Y-83959753D01*
X147915529Y-84068657D01*
X147897000Y-84185646D01*
X147897000Y-84414354D01*
X147907649Y-84481588D01*
X147932778Y-84640246D01*
X147932778Y-84640249D01*
X148003450Y-84857755D01*
X148051980Y-84953000D01*
X148107283Y-85061538D01*
X148241714Y-85246566D01*
X148403434Y-85408286D01*
X148472923Y-85458773D01*
X148487938Y-85469682D01*
X148530603Y-85525013D01*
X148536582Y-85594626D01*
X148503976Y-85656421D01*
X148487938Y-85670318D01*
X148403432Y-85731715D01*
X148241716Y-85893431D01*
X148241716Y-85893432D01*
X148241714Y-85893434D01*
X148183980Y-85972896D01*
X148107283Y-86078461D01*
X148003450Y-86282244D01*
X147932778Y-86499750D01*
X147932778Y-86499753D01*
X147897000Y-86725646D01*
X147897000Y-86954353D01*
X147932778Y-87180246D01*
X147932778Y-87180249D01*
X148003450Y-87397755D01*
X148107283Y-87601538D01*
X148241714Y-87786566D01*
X148403434Y-87948286D01*
X148433178Y-87969896D01*
X148487938Y-88009682D01*
X148530603Y-88065013D01*
X148536582Y-88134626D01*
X148503976Y-88196421D01*
X148487938Y-88210318D01*
X148403432Y-88271715D01*
X148241716Y-88433431D01*
X148241716Y-88433432D01*
X148241714Y-88433434D01*
X148206730Y-88481585D01*
X148107283Y-88618461D01*
X148003450Y-88822244D01*
X147932778Y-89039750D01*
X147932778Y-89039753D01*
X147932271Y-89042957D01*
X147897000Y-89265646D01*
X147897000Y-89494354D01*
X147900811Y-89518414D01*
X147932778Y-89720246D01*
X147932778Y-89720249D01*
X148003450Y-89937755D01*
X148068859Y-90066126D01*
X148107283Y-90141538D01*
X148241714Y-90326566D01*
X148403434Y-90488286D01*
X148472923Y-90538773D01*
X148487938Y-90549682D01*
X148530603Y-90605013D01*
X148536582Y-90674626D01*
X148503976Y-90736421D01*
X148487938Y-90750318D01*
X148403432Y-90811715D01*
X148241716Y-90973431D01*
X148241716Y-90973432D01*
X148241714Y-90973434D01*
X148233003Y-90985424D01*
X148107283Y-91158461D01*
X148003450Y-91362244D01*
X147932778Y-91579750D01*
X147932778Y-91579753D01*
X147897000Y-91805646D01*
X147897000Y-92034353D01*
X147932778Y-92260246D01*
X147932778Y-92260249D01*
X148003450Y-92477755D01*
X148107283Y-92681538D01*
X148241714Y-92866566D01*
X148403434Y-93028286D01*
X148466072Y-93073795D01*
X148487938Y-93089682D01*
X148530603Y-93145013D01*
X148536582Y-93214626D01*
X148503976Y-93276421D01*
X148487938Y-93290318D01*
X148403432Y-93351715D01*
X148241716Y-93513431D01*
X148241716Y-93513432D01*
X148241714Y-93513434D01*
X148195846Y-93576566D01*
X148107283Y-93698461D01*
X148003450Y-93902244D01*
X147932778Y-94119750D01*
X147932778Y-94119753D01*
X147897000Y-94345646D01*
X147897000Y-94574353D01*
X147915360Y-94690273D01*
X147906405Y-94759566D01*
X147880568Y-94797352D01*
X146096540Y-96581381D01*
X146035217Y-96614866D01*
X145965525Y-96609882D01*
X145935974Y-96594018D01*
X145862062Y-96540318D01*
X145819396Y-96484988D01*
X145813417Y-96415375D01*
X145846022Y-96353580D01*
X145862056Y-96339685D01*
X145946566Y-96278286D01*
X146108286Y-96116566D01*
X146242717Y-95931538D01*
X146346548Y-95727758D01*
X146378415Y-95629682D01*
X146417221Y-95510249D01*
X146417221Y-95510248D01*
X146417222Y-95510245D01*
X146453000Y-95284354D01*
X146453000Y-95055646D01*
X146417222Y-94829755D01*
X146417221Y-94829751D01*
X146417221Y-94829750D01*
X146346549Y-94612244D01*
X146304699Y-94530109D01*
X146242717Y-94408462D01*
X146108286Y-94223434D01*
X145946566Y-94061714D01*
X145861634Y-94000007D01*
X145818969Y-93944676D01*
X145812990Y-93875063D01*
X145833756Y-93835705D01*
X145835098Y-93818651D01*
X145110018Y-93093571D01*
X145183826Y-93073795D01*
X145292425Y-93011095D01*
X145381095Y-92922425D01*
X145443795Y-92813826D01*
X145463571Y-92740019D01*
X146188651Y-93465099D01*
X146188651Y-93465098D01*
X146242288Y-93391276D01*
X146346082Y-93187568D01*
X146416734Y-92970125D01*
X146416734Y-92970124D01*
X146452500Y-92744313D01*
X146452500Y-92515686D01*
X146416734Y-92289875D01*
X146416734Y-92289874D01*
X146346082Y-92072431D01*
X146242292Y-91868731D01*
X146242288Y-91868725D01*
X146188651Y-91794900D01*
X146188651Y-91794899D01*
X145463571Y-92519980D01*
X145443795Y-92446174D01*
X145381095Y-92337575D01*
X145292425Y-92248905D01*
X145183826Y-92186205D01*
X145110016Y-92166428D01*
X145835099Y-91441347D01*
X145833772Y-91424493D01*
X145818970Y-91405297D01*
X145812991Y-91335683D01*
X145845597Y-91273888D01*
X145861633Y-91259993D01*
X145946566Y-91198286D01*
X146108286Y-91036566D01*
X146242717Y-90851538D01*
X146346548Y-90647758D01*
X146368347Y-90580668D01*
X146417221Y-90430249D01*
X146417221Y-90430248D01*
X146417222Y-90430245D01*
X146453000Y-90204354D01*
X146453000Y-89975646D01*
X146417222Y-89749755D01*
X146417221Y-89749751D01*
X146417221Y-89749750D01*
X146346549Y-89532244D01*
X146296427Y-89433874D01*
X146242717Y-89328462D01*
X146108286Y-89143434D01*
X145946566Y-88981714D01*
X145862059Y-88920316D01*
X145819396Y-88864988D01*
X145813417Y-88795375D01*
X145846023Y-88733580D01*
X145862056Y-88719685D01*
X145946566Y-88658286D01*
X146108286Y-88496566D01*
X146242717Y-88311538D01*
X146346548Y-88107758D01*
X146378415Y-88009682D01*
X146417221Y-87890249D01*
X146417221Y-87890248D01*
X146417222Y-87890245D01*
X146453000Y-87664354D01*
X146453000Y-87435646D01*
X146417222Y-87209755D01*
X146417221Y-87209751D01*
X146417221Y-87209750D01*
X146346549Y-86992244D01*
X146242716Y-86788461D01*
X146197078Y-86725646D01*
X146108286Y-86603434D01*
X145946566Y-86441714D01*
X145761538Y-86307283D01*
X145712392Y-86282242D01*
X145557755Y-86203450D01*
X145340248Y-86132778D01*
X145170826Y-86105944D01*
X145114354Y-86097000D01*
X144885646Y-86097000D01*
X144810349Y-86108926D01*
X144659753Y-86132778D01*
X144659750Y-86132778D01*
X144442244Y-86203450D01*
X144238461Y-86307283D01*
X144155963Y-86367222D01*
X144053434Y-86441714D01*
X144053432Y-86441716D01*
X144053431Y-86441716D01*
X143891716Y-86603431D01*
X143891716Y-86603432D01*
X143891714Y-86603434D01*
X143833980Y-86682896D01*
X143757283Y-86788461D01*
X143653450Y-86992244D01*
X143582778Y-87209750D01*
X143582778Y-87209753D01*
X143547000Y-87435646D01*
X131213000Y-87435646D01*
X131177222Y-87209755D01*
X131177221Y-87209751D01*
X131177221Y-87209750D01*
X131106549Y-86992244D01*
X131002716Y-86788461D01*
X130957078Y-86725646D01*
X130868286Y-86603434D01*
X130706566Y-86441714D01*
X130521538Y-86307283D01*
X130472392Y-86282242D01*
X130317755Y-86203450D01*
X130100248Y-86132778D01*
X129930826Y-86105944D01*
X129874354Y-86097000D01*
X129645646Y-86097000D01*
X129570349Y-86108926D01*
X129419753Y-86132778D01*
X129419750Y-86132778D01*
X129202244Y-86203450D01*
X128998461Y-86307283D01*
X128915963Y-86367222D01*
X128813434Y-86441714D01*
X128813432Y-86441716D01*
X128813431Y-86441716D01*
X128651716Y-86603431D01*
X128651716Y-86603432D01*
X128651714Y-86603434D01*
X128593980Y-86682896D01*
X128517283Y-86788461D01*
X128413450Y-86992244D01*
X128342778Y-87209750D01*
X128342778Y-87209753D01*
X128307000Y-87435646D01*
X119000500Y-87435646D01*
X119000500Y-81849983D01*
X123694500Y-81849983D01*
X123694500Y-83150001D01*
X123694501Y-83150018D01*
X123705000Y-83252796D01*
X123705001Y-83252799D01*
X123739387Y-83356567D01*
X123760186Y-83419334D01*
X123852288Y-83568656D01*
X123976344Y-83692712D01*
X123999967Y-83707283D01*
X124131120Y-83788178D01*
X124177845Y-83840126D01*
X124189068Y-83909088D01*
X124161224Y-83973171D01*
X124153706Y-83981398D01*
X124014889Y-84120215D01*
X123889951Y-84292179D01*
X123793444Y-84481585D01*
X123727753Y-84683760D01*
X123702044Y-84846082D01*
X123694500Y-84893713D01*
X123694500Y-85106287D01*
X123727754Y-85316243D01*
X123789981Y-85507758D01*
X123793444Y-85518414D01*
X123889951Y-85707820D01*
X124014890Y-85879786D01*
X124165213Y-86030109D01*
X124337179Y-86155048D01*
X124337181Y-86155049D01*
X124337184Y-86155051D01*
X124526588Y-86251557D01*
X124728757Y-86317246D01*
X124938713Y-86350500D01*
X124938714Y-86350500D01*
X125451286Y-86350500D01*
X125451287Y-86350500D01*
X125661243Y-86317246D01*
X125863412Y-86251557D01*
X126052816Y-86155051D01*
X126132717Y-86097000D01*
X126224786Y-86030109D01*
X126224788Y-86030106D01*
X126224792Y-86030104D01*
X126375104Y-85879792D01*
X126375106Y-85879788D01*
X126375109Y-85879786D01*
X126500048Y-85707820D01*
X126500047Y-85707820D01*
X126500051Y-85707816D01*
X126596557Y-85518412D01*
X126662246Y-85316243D01*
X126695500Y-85106287D01*
X126695500Y-84893713D01*
X126662246Y-84683757D01*
X126596557Y-84481588D01*
X126500051Y-84292184D01*
X126500049Y-84292181D01*
X126500048Y-84292179D01*
X126375109Y-84120213D01*
X126236294Y-83981398D01*
X126202809Y-83920075D01*
X126207793Y-83850383D01*
X126249665Y-83794450D01*
X126258879Y-83788178D01*
X126264331Y-83784814D01*
X126264334Y-83784814D01*
X126413656Y-83692712D01*
X126537712Y-83568656D01*
X126629814Y-83419334D01*
X126640964Y-83385686D01*
X128589500Y-83385686D01*
X128589500Y-83614313D01*
X128625265Y-83840124D01*
X128625265Y-83840125D01*
X128695917Y-84057568D01*
X128799711Y-84261276D01*
X128853347Y-84335098D01*
X128853347Y-84335099D01*
X129578428Y-83610018D01*
X129598205Y-83683826D01*
X129660905Y-83792425D01*
X129749575Y-83881095D01*
X129858174Y-83943795D01*
X129931981Y-83963571D01*
X129206899Y-84688651D01*
X129280725Y-84742288D01*
X129280731Y-84742292D01*
X129484431Y-84846082D01*
X129701875Y-84916734D01*
X129927687Y-84952500D01*
X130156313Y-84952500D01*
X130382124Y-84916734D01*
X130382125Y-84916734D01*
X130599568Y-84846082D01*
X130803276Y-84742288D01*
X130877098Y-84688651D01*
X130152018Y-83963571D01*
X130225826Y-83943795D01*
X130334425Y-83881095D01*
X130423095Y-83792425D01*
X130485795Y-83683826D01*
X130505571Y-83610019D01*
X131230651Y-84335099D01*
X131247232Y-84333794D01*
X131267010Y-84318543D01*
X131336624Y-84312564D01*
X131376877Y-84333802D01*
X131393347Y-84335099D01*
X132118428Y-83610018D01*
X132138205Y-83683826D01*
X132200905Y-83792425D01*
X132289575Y-83881095D01*
X132398174Y-83943795D01*
X132471981Y-83963571D01*
X131746899Y-84688651D01*
X131820725Y-84742288D01*
X131820731Y-84742292D01*
X132024431Y-84846082D01*
X132241875Y-84916734D01*
X132467687Y-84952500D01*
X132696313Y-84952500D01*
X132922124Y-84916734D01*
X132922125Y-84916734D01*
X133139568Y-84846082D01*
X133343276Y-84742288D01*
X133417098Y-84688651D01*
X132692018Y-83963571D01*
X132765826Y-83943795D01*
X132874425Y-83881095D01*
X132963095Y-83792425D01*
X133025795Y-83683826D01*
X133045571Y-83610019D01*
X133770651Y-84335099D01*
X133770651Y-84335098D01*
X133824288Y-84261276D01*
X133928082Y-84057568D01*
X133998734Y-83840125D01*
X133998734Y-83840124D01*
X134034500Y-83614313D01*
X134034500Y-83385686D01*
X133998734Y-83159875D01*
X133998734Y-83159874D01*
X133928082Y-82942431D01*
X133824292Y-82738731D01*
X133824288Y-82738725D01*
X133770651Y-82664900D01*
X133770651Y-82664899D01*
X133045571Y-83389980D01*
X133025795Y-83316174D01*
X132963095Y-83207575D01*
X132874425Y-83118905D01*
X132765826Y-83056205D01*
X132692016Y-83036428D01*
X133228812Y-82499635D01*
X139257000Y-82499635D01*
X139257000Y-84500370D01*
X139257001Y-84500376D01*
X139263408Y-84559983D01*
X139313702Y-84694828D01*
X139313706Y-84694835D01*
X139399952Y-84810044D01*
X139399955Y-84810047D01*
X139515164Y-84896293D01*
X139515171Y-84896297D01*
X139650017Y-84946591D01*
X139650016Y-84946591D01*
X139656944Y-84947335D01*
X139709627Y-84953000D01*
X141710372Y-84952999D01*
X141769983Y-84946591D01*
X141904831Y-84896296D01*
X141905687Y-84895654D01*
X141906688Y-84895281D01*
X141912609Y-84892048D01*
X141913073Y-84892899D01*
X141971147Y-84871235D01*
X142039421Y-84886083D01*
X142054302Y-84895647D01*
X142055169Y-84896296D01*
X142055171Y-84896296D01*
X142055173Y-84896298D01*
X142190017Y-84946591D01*
X142190016Y-84946591D01*
X142196944Y-84947335D01*
X142249627Y-84953000D01*
X144250372Y-84952999D01*
X144309983Y-84946591D01*
X144444831Y-84896296D01*
X144560046Y-84810046D01*
X144646296Y-84694831D01*
X144696591Y-84559983D01*
X144703000Y-84500373D01*
X144702999Y-82499628D01*
X144696591Y-82440017D01*
X144650991Y-82317758D01*
X144646297Y-82305171D01*
X144646293Y-82305164D01*
X144560047Y-82189955D01*
X144560044Y-82189952D01*
X144444835Y-82103706D01*
X144444828Y-82103702D01*
X144309982Y-82053408D01*
X144309983Y-82053408D01*
X144250383Y-82047001D01*
X144250381Y-82047000D01*
X144250373Y-82047000D01*
X144250364Y-82047000D01*
X142249629Y-82047000D01*
X142249623Y-82047001D01*
X142190016Y-82053408D01*
X142055171Y-82103702D01*
X142055166Y-82103705D01*
X142054308Y-82104348D01*
X142053304Y-82104722D01*
X142047386Y-82107954D01*
X142046921Y-82107102D01*
X141988843Y-82128763D01*
X141920571Y-82113910D01*
X141905692Y-82104348D01*
X141904833Y-82103705D01*
X141904828Y-82103702D01*
X141769982Y-82053408D01*
X141769983Y-82053408D01*
X141710383Y-82047001D01*
X141710381Y-82047000D01*
X141710373Y-82047000D01*
X141710364Y-82047000D01*
X139709629Y-82047000D01*
X139709623Y-82047001D01*
X139650016Y-82053408D01*
X139515171Y-82103702D01*
X139515164Y-82103706D01*
X139399955Y-82189952D01*
X139399952Y-82189955D01*
X139313706Y-82305164D01*
X139313702Y-82305171D01*
X139263408Y-82440017D01*
X139257001Y-82499616D01*
X139257001Y-82499623D01*
X139257000Y-82499635D01*
X133228812Y-82499635D01*
X133319822Y-82408625D01*
X133417099Y-82311347D01*
X133343276Y-82257711D01*
X133139568Y-82153917D01*
X132922124Y-82083265D01*
X132696313Y-82047500D01*
X132467687Y-82047500D01*
X132241875Y-82083265D01*
X132241874Y-82083265D01*
X132024431Y-82153917D01*
X131820719Y-82257713D01*
X131746900Y-82311346D01*
X131746899Y-82311347D01*
X132471981Y-83036428D01*
X132398174Y-83056205D01*
X132289575Y-83118905D01*
X132200905Y-83207575D01*
X132138205Y-83316174D01*
X132118428Y-83389981D01*
X131393347Y-82664899D01*
X131376762Y-82666205D01*
X131356986Y-82681455D01*
X131287372Y-82687433D01*
X131247126Y-82666196D01*
X131230651Y-82664899D01*
X130505571Y-83389980D01*
X130485795Y-83316174D01*
X130423095Y-83207575D01*
X130334425Y-83118905D01*
X130225826Y-83056205D01*
X130152016Y-83036428D01*
X130877099Y-82311347D01*
X130803276Y-82257711D01*
X130599568Y-82153917D01*
X130382124Y-82083265D01*
X130156313Y-82047500D01*
X129927687Y-82047500D01*
X129701875Y-82083265D01*
X129701874Y-82083265D01*
X129484431Y-82153917D01*
X129280719Y-82257713D01*
X129206900Y-82311346D01*
X129206899Y-82311347D01*
X129931981Y-83036428D01*
X129858174Y-83056205D01*
X129749575Y-83118905D01*
X129660905Y-83207575D01*
X129598205Y-83316174D01*
X129578428Y-83389981D01*
X128853347Y-82664899D01*
X128853346Y-82664900D01*
X128799713Y-82738719D01*
X128695917Y-82942431D01*
X128625265Y-83159874D01*
X128625265Y-83159875D01*
X128589500Y-83385686D01*
X126640964Y-83385686D01*
X126684999Y-83252797D01*
X126695500Y-83150009D01*
X126695499Y-81849992D01*
X126684999Y-81747203D01*
X126629814Y-81580666D01*
X126537712Y-81431344D01*
X126413656Y-81307288D01*
X126305080Y-81240318D01*
X126264336Y-81215187D01*
X126264331Y-81215185D01*
X126242093Y-81207816D01*
X126097797Y-81160001D01*
X126097795Y-81160000D01*
X125995010Y-81149500D01*
X124394998Y-81149500D01*
X124394981Y-81149501D01*
X124292203Y-81160000D01*
X124292200Y-81160001D01*
X124125668Y-81215185D01*
X124125663Y-81215187D01*
X123976342Y-81307289D01*
X123852289Y-81431342D01*
X123760187Y-81580663D01*
X123760186Y-81580666D01*
X123705001Y-81747203D01*
X123705001Y-81747204D01*
X123705000Y-81747204D01*
X123694500Y-81849983D01*
X119000500Y-81849983D01*
X119000500Y-64643713D01*
X124784500Y-64643713D01*
X124784500Y-64856286D01*
X124815364Y-65051158D01*
X124817754Y-65066243D01*
X124869358Y-65225064D01*
X124883444Y-65268414D01*
X124979951Y-65457820D01*
X125104890Y-65629786D01*
X125218430Y-65743326D01*
X125251915Y-65804649D01*
X125246931Y-65874341D01*
X125205059Y-65930274D01*
X125174083Y-65947189D01*
X125042669Y-65996203D01*
X125042664Y-65996206D01*
X124927455Y-66082452D01*
X124927452Y-66082455D01*
X124841206Y-66197664D01*
X124841202Y-66197671D01*
X124790908Y-66332517D01*
X124784501Y-66392116D01*
X124784500Y-66392135D01*
X124784500Y-68187870D01*
X124784501Y-68187876D01*
X124790908Y-68247483D01*
X124841202Y-68382328D01*
X124841206Y-68382335D01*
X124927452Y-68497544D01*
X124927455Y-68497547D01*
X125042664Y-68583793D01*
X125042671Y-68583797D01*
X125177517Y-68634091D01*
X125177516Y-68634091D01*
X125184444Y-68634835D01*
X125237127Y-68640500D01*
X126825500Y-68640499D01*
X126892539Y-68660184D01*
X126938294Y-68712987D01*
X126949500Y-68764499D01*
X126949500Y-69907518D01*
X126929815Y-69974557D01*
X126877011Y-70020312D01*
X126807853Y-70030256D01*
X126769205Y-70018003D01*
X126653217Y-69958904D01*
X126451129Y-69893242D01*
X126241246Y-69860000D01*
X126028754Y-69860000D01*
X125818872Y-69893242D01*
X125818869Y-69893242D01*
X125616782Y-69958904D01*
X125427439Y-70055380D01*
X125373282Y-70094727D01*
X125373282Y-70094728D01*
X126005591Y-70727037D01*
X125942007Y-70744075D01*
X125827993Y-70809901D01*
X125734901Y-70902993D01*
X125669075Y-71017007D01*
X125652037Y-71080591D01*
X125019728Y-70448282D01*
X125019727Y-70448282D01*
X124980380Y-70502439D01*
X124883904Y-70691782D01*
X124818242Y-70893869D01*
X124818242Y-70893872D01*
X124785000Y-71103753D01*
X124785000Y-71316246D01*
X124818242Y-71526127D01*
X124818242Y-71526130D01*
X124883904Y-71728217D01*
X124980375Y-71917550D01*
X125019728Y-71971716D01*
X125652037Y-71339408D01*
X125669075Y-71402993D01*
X125734901Y-71517007D01*
X125827993Y-71610099D01*
X125942007Y-71675925D01*
X126005589Y-71692962D01*
X125373282Y-72325269D01*
X125373282Y-72325270D01*
X125427452Y-72364626D01*
X125427451Y-72364626D01*
X125436495Y-72369234D01*
X125487292Y-72417208D01*
X125504087Y-72485029D01*
X125481550Y-72551164D01*
X125436499Y-72590202D01*
X125427182Y-72594949D01*
X125255213Y-72719890D01*
X125104890Y-72870213D01*
X124979951Y-73042179D01*
X124883444Y-73231585D01*
X124817753Y-73433760D01*
X124788205Y-73620318D01*
X124784500Y-73643713D01*
X124784500Y-73856287D01*
X124817754Y-74066243D01*
X124878875Y-74254354D01*
X124883444Y-74268414D01*
X124979951Y-74457820D01*
X125104890Y-74629786D01*
X125218430Y-74743326D01*
X125251915Y-74804649D01*
X125246931Y-74874341D01*
X125205059Y-74930274D01*
X125174083Y-74947189D01*
X125042669Y-74996203D01*
X125042664Y-74996206D01*
X124927455Y-75082452D01*
X124927452Y-75082455D01*
X124841206Y-75197664D01*
X124841202Y-75197671D01*
X124790908Y-75332517D01*
X124785226Y-75385375D01*
X124784501Y-75392123D01*
X124784500Y-75392135D01*
X124784500Y-77187870D01*
X124784501Y-77187876D01*
X124790908Y-77247483D01*
X124841202Y-77382328D01*
X124841206Y-77382335D01*
X124927452Y-77497544D01*
X124927455Y-77497547D01*
X125042664Y-77583793D01*
X125042671Y-77583797D01*
X125177517Y-77634091D01*
X125177516Y-77634091D01*
X125184444Y-77634835D01*
X125237127Y-77640500D01*
X127032872Y-77640499D01*
X127092483Y-77634091D01*
X127227331Y-77583796D01*
X127342546Y-77497546D01*
X127428796Y-77382331D01*
X127479091Y-77247483D01*
X127485500Y-77187873D01*
X127485499Y-75392128D01*
X127479091Y-75332517D01*
X127449357Y-75252797D01*
X127428797Y-75197671D01*
X127428793Y-75197664D01*
X127342547Y-75082455D01*
X127342544Y-75082452D01*
X127227335Y-74996206D01*
X127227328Y-74996202D01*
X127095917Y-74947189D01*
X127039983Y-74905318D01*
X127015566Y-74839853D01*
X127030418Y-74771580D01*
X127051563Y-74743332D01*
X127165104Y-74629792D01*
X127229486Y-74541175D01*
X127282350Y-74499500D01*
X127379179Y-74459394D01*
X127510289Y-74371789D01*
X128371789Y-73510289D01*
X128424538Y-73431344D01*
X128459394Y-73379179D01*
X128519737Y-73233497D01*
X128527706Y-73193434D01*
X128550500Y-73078843D01*
X128550500Y-72921158D01*
X128550500Y-65921158D01*
X128550500Y-65921155D01*
X128550499Y-65921153D01*
X128541187Y-65874341D01*
X128519737Y-65766503D01*
X128516406Y-65758461D01*
X128459397Y-65620827D01*
X128459390Y-65620814D01*
X128371790Y-65489712D01*
X128316328Y-65434250D01*
X128260289Y-65378211D01*
X127537258Y-64655180D01*
X127503773Y-64593857D01*
X127508757Y-64524165D01*
X127537256Y-64479821D01*
X128180259Y-63836819D01*
X128241582Y-63803334D01*
X128267940Y-63800500D01*
X129186691Y-63800500D01*
X129253730Y-63820185D01*
X129274372Y-63836819D01*
X129931982Y-64494428D01*
X129858174Y-64514205D01*
X129749575Y-64576905D01*
X129660905Y-64665575D01*
X129598205Y-64774174D01*
X129578428Y-64847981D01*
X128853347Y-64122899D01*
X128853346Y-64122900D01*
X128799713Y-64196719D01*
X128695917Y-64400431D01*
X128625265Y-64617874D01*
X128625265Y-64617875D01*
X128589500Y-64843686D01*
X128589500Y-65072313D01*
X128625265Y-65298124D01*
X128625265Y-65298125D01*
X128695917Y-65515568D01*
X128799711Y-65719276D01*
X128853347Y-65793098D01*
X128853347Y-65793099D01*
X129578428Y-65068018D01*
X129598205Y-65141826D01*
X129660905Y-65250425D01*
X129749575Y-65339095D01*
X129858174Y-65401795D01*
X129931981Y-65421571D01*
X129206899Y-66146651D01*
X129280725Y-66200288D01*
X129280731Y-66200292D01*
X129484431Y-66304082D01*
X129701875Y-66374734D01*
X129927687Y-66410500D01*
X130156313Y-66410500D01*
X130382124Y-66374734D01*
X130382125Y-66374734D01*
X130599568Y-66304082D01*
X130803276Y-66200288D01*
X130877098Y-66146651D01*
X130152018Y-65421571D01*
X130225826Y-65401795D01*
X130334425Y-65339095D01*
X130423095Y-65250425D01*
X130485795Y-65141826D01*
X130505571Y-65068019D01*
X131230651Y-65793099D01*
X131247232Y-65791794D01*
X131267010Y-65776543D01*
X131336624Y-65770564D01*
X131376877Y-65791802D01*
X131393347Y-65793099D01*
X132118428Y-65068018D01*
X132138205Y-65141826D01*
X132200905Y-65250425D01*
X132289575Y-65339095D01*
X132398174Y-65401795D01*
X132471981Y-65421571D01*
X131746899Y-66146651D01*
X131820725Y-66200288D01*
X131820731Y-66200292D01*
X132024431Y-66304082D01*
X132241875Y-66374734D01*
X132467687Y-66410500D01*
X132696313Y-66410500D01*
X132922124Y-66374734D01*
X132922125Y-66374734D01*
X133139568Y-66304082D01*
X133343276Y-66200288D01*
X133417098Y-66146651D01*
X132692018Y-65421571D01*
X132765826Y-65401795D01*
X132874425Y-65339095D01*
X132963095Y-65250425D01*
X133025795Y-65141826D01*
X133045571Y-65068019D01*
X133770651Y-65793099D01*
X133770651Y-65793098D01*
X133824288Y-65719276D01*
X133928082Y-65515568D01*
X133998734Y-65298125D01*
X133998734Y-65298124D01*
X134034500Y-65072313D01*
X134034500Y-64843686D01*
X133998734Y-64617875D01*
X133998734Y-64617874D01*
X133928082Y-64400431D01*
X133824292Y-64196731D01*
X133824288Y-64196725D01*
X133770651Y-64122900D01*
X133770651Y-64122899D01*
X133045571Y-64847980D01*
X133025795Y-64774174D01*
X132963095Y-64665575D01*
X132874425Y-64576905D01*
X132765826Y-64514205D01*
X132692016Y-64494428D01*
X133228812Y-63957635D01*
X139257000Y-63957635D01*
X139257000Y-65958370D01*
X139257001Y-65958376D01*
X139263408Y-66017983D01*
X139313702Y-66152828D01*
X139313706Y-66152835D01*
X139399952Y-66268044D01*
X139399955Y-66268047D01*
X139515164Y-66354293D01*
X139515171Y-66354297D01*
X139650017Y-66404591D01*
X139650016Y-66404591D01*
X139656944Y-66405335D01*
X139709627Y-66411000D01*
X141710372Y-66410999D01*
X141769983Y-66404591D01*
X141850034Y-66374734D01*
X141904826Y-66354298D01*
X141904826Y-66354297D01*
X141904831Y-66354296D01*
X141905687Y-66353654D01*
X141906688Y-66353281D01*
X141912609Y-66350048D01*
X141913073Y-66350899D01*
X141971147Y-66329235D01*
X142039421Y-66344083D01*
X142054302Y-66353647D01*
X142055169Y-66354296D01*
X142055171Y-66354296D01*
X142055173Y-66354298D01*
X142190017Y-66404591D01*
X142190016Y-66404591D01*
X142196944Y-66405335D01*
X142249627Y-66411000D01*
X144250372Y-66410999D01*
X144309983Y-66404591D01*
X144444831Y-66354296D01*
X144560046Y-66268046D01*
X144646296Y-66152831D01*
X144696591Y-66017983D01*
X144703000Y-65958373D01*
X144702999Y-63957628D01*
X144696591Y-63898017D01*
X144666091Y-63816243D01*
X144646297Y-63763171D01*
X144646293Y-63763164D01*
X144560047Y-63647955D01*
X144560044Y-63647952D01*
X144444835Y-63561706D01*
X144444828Y-63561702D01*
X144309982Y-63511408D01*
X144309983Y-63511408D01*
X144250383Y-63505001D01*
X144250381Y-63505000D01*
X144250373Y-63505000D01*
X144250364Y-63505000D01*
X142249629Y-63505000D01*
X142249623Y-63505001D01*
X142190016Y-63511408D01*
X142055171Y-63561702D01*
X142055166Y-63561705D01*
X142054308Y-63562348D01*
X142053304Y-63562722D01*
X142047386Y-63565954D01*
X142046921Y-63565102D01*
X141988843Y-63586763D01*
X141920571Y-63571910D01*
X141905692Y-63562348D01*
X141904833Y-63561705D01*
X141904828Y-63561702D01*
X141769982Y-63511408D01*
X141769983Y-63511408D01*
X141710383Y-63505001D01*
X141710381Y-63505000D01*
X141710373Y-63505000D01*
X141710364Y-63505000D01*
X139709629Y-63505000D01*
X139709623Y-63505001D01*
X139650016Y-63511408D01*
X139515171Y-63561702D01*
X139515164Y-63561706D01*
X139399955Y-63647952D01*
X139399952Y-63647955D01*
X139313706Y-63763164D01*
X139313702Y-63763171D01*
X139263408Y-63898017D01*
X139257067Y-63957000D01*
X139257001Y-63957623D01*
X139257000Y-63957635D01*
X133228812Y-63957635D01*
X133319822Y-63866625D01*
X133417099Y-63769347D01*
X133343276Y-63715711D01*
X133139568Y-63611917D01*
X132922124Y-63541265D01*
X132696313Y-63505500D01*
X132467687Y-63505500D01*
X132241875Y-63541265D01*
X132241874Y-63541265D01*
X132024431Y-63611917D01*
X131820719Y-63715713D01*
X131746900Y-63769346D01*
X131746899Y-63769347D01*
X132471981Y-64494428D01*
X132398174Y-64514205D01*
X132289575Y-64576905D01*
X132200905Y-64665575D01*
X132138205Y-64774174D01*
X132118428Y-64847981D01*
X131393347Y-64122899D01*
X131378377Y-64124078D01*
X131364893Y-64136056D01*
X131360503Y-64136742D01*
X131356986Y-64139455D01*
X131326298Y-64142090D01*
X131295862Y-64146849D01*
X131291797Y-64145052D01*
X131287372Y-64145433D01*
X131260133Y-64131059D01*
X131244055Y-64123954D01*
X131230651Y-64122899D01*
X130505571Y-64847980D01*
X130485795Y-64774174D01*
X130423095Y-64665575D01*
X130334425Y-64576905D01*
X130225826Y-64514205D01*
X130152017Y-64494428D01*
X130809628Y-63836819D01*
X130870951Y-63803334D01*
X130897309Y-63800500D01*
X131078844Y-63800500D01*
X131078845Y-63800499D01*
X131233497Y-63769737D01*
X131379179Y-63709394D01*
X131510289Y-63621789D01*
X131621789Y-63510289D01*
X131695554Y-63399890D01*
X131710966Y-63381110D01*
X132462235Y-62629841D01*
X132523556Y-62596358D01*
X132569311Y-62595051D01*
X132603713Y-62600500D01*
X132603714Y-62600500D01*
X132816286Y-62600500D01*
X132816287Y-62600500D01*
X133026243Y-62567246D01*
X133228412Y-62501557D01*
X133417816Y-62405051D01*
X133504138Y-62342335D01*
X133589786Y-62280109D01*
X133589788Y-62280106D01*
X133589792Y-62280104D01*
X133740104Y-62129792D01*
X133740106Y-62129788D01*
X133740109Y-62129786D01*
X133809047Y-62034899D01*
X133865051Y-61957816D01*
X133869793Y-61948508D01*
X133917763Y-61897711D01*
X133985583Y-61880911D01*
X134051719Y-61903445D01*
X134090763Y-61948500D01*
X134095373Y-61957547D01*
X134134728Y-62011716D01*
X134767037Y-61379408D01*
X134784075Y-61442993D01*
X134849901Y-61557007D01*
X134942993Y-61650099D01*
X135057007Y-61715925D01*
X135120590Y-61732962D01*
X134488282Y-62365269D01*
X134488282Y-62365270D01*
X134542449Y-62404624D01*
X134731782Y-62501095D01*
X134933870Y-62566757D01*
X135143754Y-62600000D01*
X135356246Y-62600000D01*
X135566127Y-62566757D01*
X135566130Y-62566757D01*
X135768217Y-62501095D01*
X135957554Y-62404622D01*
X136011716Y-62365270D01*
X136011717Y-62365270D01*
X135379408Y-61732962D01*
X135442993Y-61715925D01*
X135557007Y-61650099D01*
X135650099Y-61557007D01*
X135715925Y-61442993D01*
X135732962Y-61379408D01*
X136365270Y-62011717D01*
X136365270Y-62011716D01*
X136404622Y-61957554D01*
X136501095Y-61768217D01*
X136566757Y-61566130D01*
X136566757Y-61566127D01*
X136600000Y-61356246D01*
X136600000Y-61143753D01*
X136566757Y-60933872D01*
X136566757Y-60933869D01*
X136501095Y-60731782D01*
X136404624Y-60542449D01*
X136365270Y-60488282D01*
X136365269Y-60488282D01*
X135732962Y-61120590D01*
X135715925Y-61057007D01*
X135650099Y-60942993D01*
X135557007Y-60849901D01*
X135442993Y-60784075D01*
X135379409Y-60767037D01*
X135794310Y-60352135D01*
X137609500Y-60352135D01*
X137609500Y-62147870D01*
X137609501Y-62147876D01*
X137615908Y-62207483D01*
X137666202Y-62342328D01*
X137666206Y-62342335D01*
X137752452Y-62457544D01*
X137752455Y-62457547D01*
X137867664Y-62543793D01*
X137867671Y-62543797D01*
X138002517Y-62594091D01*
X138002516Y-62594091D01*
X138009444Y-62594835D01*
X138062127Y-62600500D01*
X139857872Y-62600499D01*
X139917483Y-62594091D01*
X140052331Y-62543796D01*
X140167546Y-62457546D01*
X140253796Y-62342331D01*
X140302810Y-62210916D01*
X140344681Y-62154984D01*
X140410145Y-62130566D01*
X140478418Y-62145417D01*
X140506673Y-62166569D01*
X140620213Y-62280109D01*
X140792179Y-62405048D01*
X140792181Y-62405049D01*
X140792184Y-62405051D01*
X140981588Y-62501557D01*
X141183757Y-62567246D01*
X141393713Y-62600500D01*
X141393714Y-62600500D01*
X141606286Y-62600500D01*
X141606287Y-62600500D01*
X141816243Y-62567246D01*
X142018412Y-62501557D01*
X142207816Y-62405051D01*
X142294138Y-62342335D01*
X142379786Y-62280109D01*
X142379788Y-62280106D01*
X142379792Y-62280104D01*
X142530104Y-62129792D01*
X142530106Y-62129788D01*
X142530109Y-62129786D01*
X142599047Y-62034899D01*
X142655051Y-61957816D01*
X142659793Y-61948508D01*
X142707763Y-61897711D01*
X142775583Y-61880911D01*
X142841719Y-61903445D01*
X142880763Y-61948500D01*
X142885373Y-61957547D01*
X142924728Y-62011716D01*
X143557037Y-61379408D01*
X143574075Y-61442993D01*
X143639901Y-61557007D01*
X143732993Y-61650099D01*
X143847007Y-61715925D01*
X143910590Y-61732962D01*
X143278282Y-62365269D01*
X143278282Y-62365270D01*
X143332449Y-62404624D01*
X143521782Y-62501095D01*
X143723870Y-62566757D01*
X143933754Y-62600000D01*
X144146246Y-62600000D01*
X144356127Y-62566757D01*
X144356130Y-62566757D01*
X144558217Y-62501095D01*
X144747554Y-62404622D01*
X144801716Y-62365270D01*
X144801717Y-62365270D01*
X144169408Y-61732962D01*
X144232993Y-61715925D01*
X144347007Y-61650099D01*
X144440099Y-61557007D01*
X144505925Y-61442993D01*
X144522962Y-61379409D01*
X145155270Y-62011717D01*
X145155270Y-62011716D01*
X145194622Y-61957554D01*
X145291095Y-61768217D01*
X145356757Y-61566130D01*
X145356757Y-61566127D01*
X145390000Y-61356246D01*
X145390000Y-61143753D01*
X145356757Y-60933872D01*
X145356757Y-60933869D01*
X145291095Y-60731782D01*
X145194624Y-60542449D01*
X145155270Y-60488282D01*
X145155269Y-60488282D01*
X144522962Y-61120590D01*
X144505925Y-61057007D01*
X144440099Y-60942993D01*
X144347007Y-60849901D01*
X144232993Y-60784075D01*
X144169409Y-60767037D01*
X144801716Y-60134728D01*
X144747550Y-60095375D01*
X144558217Y-59998904D01*
X144356129Y-59933242D01*
X144206454Y-59909536D01*
X144146246Y-59900000D01*
X143933754Y-59900000D01*
X143723872Y-59933242D01*
X143723869Y-59933242D01*
X143521782Y-59998904D01*
X143332439Y-60095380D01*
X143278282Y-60134727D01*
X143278282Y-60134728D01*
X143910591Y-60767037D01*
X143847007Y-60784075D01*
X143732993Y-60849901D01*
X143639901Y-60942993D01*
X143574075Y-61057007D01*
X143557037Y-61120591D01*
X142924728Y-60488282D01*
X142924727Y-60488282D01*
X142885380Y-60542440D01*
X142885376Y-60542446D01*
X142880760Y-60551505D01*
X142832781Y-60602297D01*
X142764959Y-60619087D01*
X142698826Y-60596543D01*
X142659794Y-60551493D01*
X142655051Y-60542184D01*
X142655049Y-60542181D01*
X142655048Y-60542179D01*
X142530109Y-60370213D01*
X142379786Y-60219890D01*
X142207820Y-60094951D01*
X142018414Y-59998444D01*
X142018413Y-59998443D01*
X142018412Y-59998443D01*
X141816243Y-59932754D01*
X141816241Y-59932753D01*
X141816240Y-59932753D01*
X141654957Y-59907208D01*
X141606287Y-59899500D01*
X141393713Y-59899500D01*
X141345042Y-59907208D01*
X141183760Y-59932753D01*
X140981585Y-59998444D01*
X140792179Y-60094951D01*
X140620215Y-60219889D01*
X140506673Y-60333431D01*
X140445350Y-60366915D01*
X140375658Y-60361931D01*
X140319725Y-60320059D01*
X140302810Y-60289082D01*
X140253797Y-60157671D01*
X140253793Y-60157664D01*
X140167547Y-60042455D01*
X140167544Y-60042452D01*
X140052335Y-59956206D01*
X140052328Y-59956202D01*
X139917482Y-59905908D01*
X139917483Y-59905908D01*
X139857883Y-59899501D01*
X139857881Y-59899500D01*
X139857873Y-59899500D01*
X139857864Y-59899500D01*
X138062129Y-59899500D01*
X138062123Y-59899501D01*
X138002516Y-59905908D01*
X137867671Y-59956202D01*
X137867664Y-59956206D01*
X137752455Y-60042452D01*
X137752452Y-60042455D01*
X137666206Y-60157664D01*
X137666202Y-60157671D01*
X137615908Y-60292517D01*
X137609501Y-60352116D01*
X137609500Y-60352135D01*
X135794310Y-60352135D01*
X135885320Y-60261125D01*
X136011716Y-60134728D01*
X135957550Y-60095375D01*
X135768217Y-59998904D01*
X135566129Y-59933242D01*
X135356246Y-59900000D01*
X135143754Y-59900000D01*
X134933872Y-59933242D01*
X134933869Y-59933242D01*
X134731782Y-59998904D01*
X134542439Y-60095380D01*
X134488282Y-60134727D01*
X134488282Y-60134728D01*
X135120591Y-60767037D01*
X135057007Y-60784075D01*
X134942993Y-60849901D01*
X134849901Y-60942993D01*
X134784075Y-61057007D01*
X134767037Y-61120591D01*
X134134728Y-60488282D01*
X134134727Y-60488282D01*
X134095380Y-60542440D01*
X134095376Y-60542446D01*
X134090760Y-60551505D01*
X134042781Y-60602297D01*
X133974959Y-60619087D01*
X133908826Y-60596543D01*
X133869794Y-60551493D01*
X133865051Y-60542184D01*
X133865049Y-60542181D01*
X133865048Y-60542179D01*
X133740109Y-60370213D01*
X133589786Y-60219890D01*
X133417820Y-60094951D01*
X133228414Y-59998444D01*
X133228413Y-59998443D01*
X133228412Y-59998443D01*
X133026243Y-59932754D01*
X133026241Y-59932753D01*
X133026240Y-59932753D01*
X132864957Y-59907208D01*
X132816287Y-59899500D01*
X132603713Y-59899500D01*
X132555042Y-59907208D01*
X132393760Y-59932753D01*
X132191585Y-59998444D01*
X132002179Y-60094951D01*
X131830215Y-60219889D01*
X131716673Y-60333431D01*
X131655350Y-60366915D01*
X131585658Y-60361931D01*
X131529725Y-60320059D01*
X131512810Y-60289082D01*
X131463797Y-60157671D01*
X131463793Y-60157664D01*
X131377547Y-60042455D01*
X131377544Y-60042452D01*
X131262335Y-59956206D01*
X131262328Y-59956202D01*
X131127482Y-59905908D01*
X131127483Y-59905908D01*
X131067883Y-59899501D01*
X131067881Y-59899500D01*
X131067873Y-59899500D01*
X131067864Y-59899500D01*
X129272129Y-59899500D01*
X129272123Y-59899501D01*
X129212516Y-59905908D01*
X129077671Y-59956202D01*
X129077664Y-59956206D01*
X128962455Y-60042452D01*
X128962452Y-60042455D01*
X128876206Y-60157664D01*
X128876202Y-60157671D01*
X128825908Y-60292517D01*
X128821694Y-60331716D01*
X128819500Y-60352127D01*
X128819500Y-61249999D01*
X128819501Y-62075500D01*
X128799816Y-62142539D01*
X128747013Y-62188294D01*
X128695501Y-62199500D01*
X127806153Y-62199500D01*
X127651510Y-62230260D01*
X127645676Y-62232030D01*
X127644901Y-62229477D01*
X127586855Y-62235657D01*
X127524409Y-62204316D01*
X127488820Y-62144189D01*
X127485000Y-62113650D01*
X127485000Y-62103753D01*
X127451757Y-61893872D01*
X127451757Y-61893869D01*
X127386095Y-61691782D01*
X127289624Y-61502449D01*
X127250270Y-61448282D01*
X127250269Y-61448282D01*
X126617962Y-62080590D01*
X126600925Y-62017007D01*
X126535099Y-61902993D01*
X126442007Y-61809901D01*
X126327993Y-61744075D01*
X126264409Y-61727037D01*
X126896716Y-61094728D01*
X126842550Y-61055375D01*
X126653217Y-60958904D01*
X126451129Y-60893242D01*
X126241246Y-60860000D01*
X126028754Y-60860000D01*
X125818872Y-60893242D01*
X125818869Y-60893242D01*
X125616782Y-60958904D01*
X125427439Y-61055380D01*
X125373282Y-61094727D01*
X125373282Y-61094728D01*
X126005591Y-61727037D01*
X125942007Y-61744075D01*
X125827993Y-61809901D01*
X125734901Y-61902993D01*
X125669075Y-62017007D01*
X125652037Y-62080591D01*
X125019728Y-61448282D01*
X125019727Y-61448282D01*
X124980380Y-61502439D01*
X124883904Y-61691782D01*
X124818242Y-61893869D01*
X124818242Y-61893872D01*
X124785000Y-62103753D01*
X124785000Y-62316246D01*
X124818242Y-62526127D01*
X124818242Y-62526130D01*
X124883904Y-62728217D01*
X124980375Y-62917550D01*
X125019728Y-62971716D01*
X125652037Y-62339408D01*
X125669075Y-62402993D01*
X125734901Y-62517007D01*
X125827993Y-62610099D01*
X125942007Y-62675925D01*
X126005590Y-62692962D01*
X125373282Y-63325269D01*
X125373282Y-63325270D01*
X125427452Y-63364626D01*
X125427451Y-63364626D01*
X125436495Y-63369234D01*
X125487292Y-63417208D01*
X125504087Y-63485029D01*
X125481550Y-63551164D01*
X125436499Y-63590202D01*
X125427182Y-63594949D01*
X125255213Y-63719890D01*
X125104890Y-63870213D01*
X124979951Y-64042179D01*
X124883444Y-64231585D01*
X124883443Y-64231587D01*
X124883443Y-64231588D01*
X124880606Y-64240318D01*
X124817753Y-64433760D01*
X124784500Y-64643713D01*
X119000500Y-64643713D01*
X119000500Y-59750000D01*
X157402970Y-59750000D01*
X158345854Y-59750000D01*
X158307370Y-59816657D01*
X158275000Y-59937465D01*
X158275000Y-60062535D01*
X158307370Y-60183343D01*
X158345854Y-60250000D01*
X157402970Y-60250000D01*
X157433242Y-60441127D01*
X157433242Y-60441130D01*
X157498904Y-60643217D01*
X157595379Y-60832557D01*
X157720272Y-61004459D01*
X157720276Y-61004464D01*
X157870535Y-61154723D01*
X157870540Y-61154727D01*
X158042442Y-61279620D01*
X158231782Y-61376095D01*
X158433871Y-61441757D01*
X158500000Y-61452231D01*
X158500000Y-60404145D01*
X158566657Y-60442630D01*
X158687465Y-60475000D01*
X158812535Y-60475000D01*
X158933343Y-60442630D01*
X159000000Y-60404145D01*
X159000000Y-61452230D01*
X159066126Y-61441757D01*
X159066129Y-61441757D01*
X159268217Y-61376095D01*
X159457557Y-61279620D01*
X159629459Y-61154727D01*
X159629464Y-61154723D01*
X159779721Y-61004466D01*
X159899371Y-60839781D01*
X159954701Y-60797115D01*
X160024314Y-60791136D01*
X160086110Y-60823741D01*
X160100008Y-60839781D01*
X160219890Y-61004785D01*
X160219894Y-61004790D01*
X160370213Y-61155109D01*
X160542179Y-61280048D01*
X160542181Y-61280049D01*
X160542184Y-61280051D01*
X160731588Y-61376557D01*
X160933757Y-61442246D01*
X161143713Y-61475500D01*
X161143714Y-61475500D01*
X161356286Y-61475500D01*
X161356287Y-61475500D01*
X161566243Y-61442246D01*
X161768412Y-61376557D01*
X161957816Y-61280051D01*
X162022449Y-61233093D01*
X162129786Y-61155109D01*
X162129788Y-61155106D01*
X162129792Y-61155104D01*
X162280104Y-61004792D01*
X162399683Y-60840204D01*
X162455011Y-60797540D01*
X162524624Y-60791561D01*
X162586420Y-60824166D01*
X162600313Y-60840199D01*
X162668368Y-60933869D01*
X162719896Y-61004792D01*
X162870213Y-61155109D01*
X163042179Y-61280048D01*
X163042181Y-61280049D01*
X163042184Y-61280051D01*
X163231588Y-61376557D01*
X163433757Y-61442246D01*
X163643713Y-61475500D01*
X163643714Y-61475500D01*
X163856286Y-61475500D01*
X163856287Y-61475500D01*
X164066243Y-61442246D01*
X164268412Y-61376557D01*
X164457816Y-61280051D01*
X164629792Y-61155104D01*
X164768604Y-61016291D01*
X164829923Y-60982809D01*
X164899615Y-60987793D01*
X164955549Y-61029664D01*
X164961821Y-61038878D01*
X164965185Y-61044333D01*
X164965186Y-61044334D01*
X165057288Y-61193656D01*
X165181344Y-61317712D01*
X165330666Y-61409814D01*
X165497203Y-61464999D01*
X165599991Y-61475500D01*
X166900008Y-61475499D01*
X167002797Y-61464999D01*
X167169334Y-61409814D01*
X167305793Y-61325646D01*
X173297000Y-61325646D01*
X173297000Y-61554354D01*
X173300378Y-61575683D01*
X173332778Y-61780246D01*
X173332778Y-61780249D01*
X173403450Y-61997755D01*
X173489465Y-62166569D01*
X173507283Y-62201538D01*
X173641714Y-62386566D01*
X173803434Y-62548286D01*
X173888364Y-62609991D01*
X173931029Y-62665321D01*
X173937008Y-62734935D01*
X173904402Y-62796730D01*
X173888364Y-62810627D01*
X173803757Y-62872097D01*
X173642097Y-63033757D01*
X173507711Y-63218723D01*
X173403917Y-63422429D01*
X173333265Y-63639871D01*
X173318991Y-63730000D01*
X174344411Y-63730000D01*
X174306205Y-63796174D01*
X174273750Y-63917300D01*
X174273750Y-64042700D01*
X174306205Y-64163826D01*
X174344411Y-64230000D01*
X173318991Y-64230000D01*
X173333265Y-64320128D01*
X173403917Y-64537570D01*
X173507711Y-64741276D01*
X173642097Y-64926242D01*
X173803757Y-65087902D01*
X173803763Y-65087907D01*
X173888363Y-65149372D01*
X173931029Y-65204701D01*
X173937008Y-65274315D01*
X173904403Y-65336110D01*
X173888364Y-65350007D01*
X173803440Y-65411709D01*
X173803431Y-65411716D01*
X173641716Y-65573431D01*
X173641716Y-65573432D01*
X173641714Y-65573434D01*
X173583980Y-65652896D01*
X173507283Y-65758461D01*
X173403450Y-65962244D01*
X173332778Y-66179750D01*
X173332778Y-66179753D01*
X173314046Y-66298024D01*
X173297000Y-66405646D01*
X173297000Y-66634354D01*
X173308130Y-66704626D01*
X173332778Y-66860246D01*
X173332778Y-66860249D01*
X173403450Y-67077755D01*
X173451595Y-67172244D01*
X173507283Y-67281538D01*
X173641714Y-67466566D01*
X173803434Y-67628286D01*
X173872923Y-67678773D01*
X173887938Y-67689682D01*
X173930603Y-67745013D01*
X173936582Y-67814626D01*
X173903976Y-67876421D01*
X173887938Y-67890318D01*
X173803432Y-67951715D01*
X173641716Y-68113431D01*
X173641716Y-68113432D01*
X173641714Y-68113434D01*
X173587633Y-68187870D01*
X173507283Y-68298461D01*
X173403450Y-68502244D01*
X173332778Y-68719750D01*
X173332778Y-68719753D01*
X173304774Y-68896562D01*
X173297000Y-68945646D01*
X173297000Y-69174354D01*
X173314889Y-69287299D01*
X173332778Y-69400246D01*
X173332778Y-69400249D01*
X173403450Y-69617755D01*
X173403452Y-69617758D01*
X173507283Y-69821538D01*
X173641714Y-70006566D01*
X173803434Y-70168286D01*
X173854363Y-70205288D01*
X173887938Y-70229682D01*
X173930603Y-70285013D01*
X173936582Y-70354626D01*
X173903976Y-70416421D01*
X173887938Y-70430318D01*
X173803432Y-70491715D01*
X173641716Y-70653431D01*
X173641716Y-70653432D01*
X173641714Y-70653434D01*
X173600616Y-70710000D01*
X173507283Y-70838461D01*
X173403450Y-71042244D01*
X173332778Y-71259750D01*
X173332778Y-71259753D01*
X173297000Y-71485646D01*
X173297000Y-71714353D01*
X173332778Y-71940246D01*
X173332778Y-71940249D01*
X173403450Y-72157755D01*
X173507283Y-72361538D01*
X173641714Y-72546566D01*
X173803434Y-72708286D01*
X173819406Y-72719890D01*
X173887938Y-72769682D01*
X173930603Y-72825013D01*
X173936582Y-72894626D01*
X173903976Y-72956421D01*
X173887938Y-72970318D01*
X173803432Y-73031715D01*
X173641716Y-73193431D01*
X173641716Y-73193432D01*
X173641714Y-73193434D01*
X173612606Y-73233498D01*
X173507283Y-73378461D01*
X173403450Y-73582244D01*
X173332778Y-73799750D01*
X173332778Y-73799753D01*
X173297000Y-74025646D01*
X173297000Y-74254353D01*
X173332778Y-74480246D01*
X173332778Y-74480249D01*
X173403450Y-74697755D01*
X173475853Y-74839853D01*
X173507283Y-74901538D01*
X173641714Y-75086566D01*
X173803434Y-75248286D01*
X173809646Y-75252799D01*
X173887938Y-75309682D01*
X173930603Y-75365013D01*
X173936582Y-75434626D01*
X173903976Y-75496421D01*
X173887938Y-75510318D01*
X173803432Y-75571715D01*
X173641716Y-75733431D01*
X173641716Y-75733432D01*
X173641714Y-75733434D01*
X173604386Y-75784812D01*
X173507283Y-75918461D01*
X173403450Y-76122244D01*
X173332778Y-76339750D01*
X173332778Y-76339753D01*
X173297000Y-76565646D01*
X173297000Y-76794353D01*
X173332778Y-77020246D01*
X173332778Y-77020249D01*
X173403450Y-77237755D01*
X173507283Y-77441538D01*
X173641714Y-77626566D01*
X173803434Y-77788286D01*
X173872923Y-77838773D01*
X173887938Y-77849682D01*
X173930603Y-77905013D01*
X173936582Y-77974626D01*
X173903976Y-78036421D01*
X173887938Y-78050318D01*
X173803432Y-78111715D01*
X173641716Y-78273431D01*
X173641716Y-78273432D01*
X173641714Y-78273434D01*
X173583980Y-78352896D01*
X173507283Y-78458461D01*
X173403450Y-78662244D01*
X173332778Y-78879750D01*
X173332778Y-78879753D01*
X173332778Y-78879755D01*
X173297000Y-79105646D01*
X173297000Y-79334354D01*
X173306408Y-79393750D01*
X173332778Y-79560246D01*
X173332778Y-79560249D01*
X173403450Y-79777755D01*
X173450451Y-79869999D01*
X173507283Y-79981538D01*
X173641714Y-80166566D01*
X173803434Y-80328286D01*
X173872923Y-80378773D01*
X173887938Y-80389682D01*
X173930603Y-80445013D01*
X173936582Y-80514626D01*
X173903976Y-80576421D01*
X173887938Y-80590318D01*
X173803432Y-80651715D01*
X173641716Y-80813431D01*
X173641716Y-80813432D01*
X173641714Y-80813434D01*
X173583980Y-80892896D01*
X173507283Y-80998461D01*
X173403450Y-81202244D01*
X173332778Y-81419750D01*
X173332778Y-81419753D01*
X173330942Y-81431344D01*
X173297000Y-81645646D01*
X173297000Y-81874354D01*
X173309705Y-81954569D01*
X173332778Y-82100246D01*
X173332778Y-82100249D01*
X173403450Y-82317755D01*
X173465746Y-82440017D01*
X173507283Y-82521538D01*
X173641714Y-82706566D01*
X173803434Y-82868286D01*
X173872923Y-82918773D01*
X173887938Y-82929682D01*
X173930603Y-82985013D01*
X173936582Y-83054626D01*
X173903976Y-83116421D01*
X173887938Y-83130318D01*
X173803432Y-83191715D01*
X173641716Y-83353431D01*
X173641716Y-83353432D01*
X173641714Y-83353434D01*
X173593835Y-83419334D01*
X173507283Y-83538461D01*
X173403450Y-83742244D01*
X173332778Y-83959750D01*
X173332778Y-83959753D01*
X173315529Y-84068657D01*
X173297000Y-84185646D01*
X173297000Y-84414354D01*
X173307649Y-84481588D01*
X173332778Y-84640246D01*
X173332778Y-84640249D01*
X173403450Y-84857755D01*
X173451980Y-84953000D01*
X173507283Y-85061538D01*
X173641714Y-85246566D01*
X173803434Y-85408286D01*
X173872923Y-85458773D01*
X173887938Y-85469682D01*
X173930603Y-85525013D01*
X173936582Y-85594626D01*
X173903976Y-85656421D01*
X173887938Y-85670318D01*
X173803432Y-85731715D01*
X173641716Y-85893431D01*
X173641716Y-85893432D01*
X173641714Y-85893434D01*
X173583980Y-85972896D01*
X173507283Y-86078461D01*
X173403450Y-86282244D01*
X173332778Y-86499750D01*
X173332778Y-86499753D01*
X173297000Y-86725646D01*
X173297000Y-86954353D01*
X173332778Y-87180246D01*
X173332778Y-87180249D01*
X173403450Y-87397755D01*
X173507283Y-87601538D01*
X173641714Y-87786566D01*
X173803434Y-87948286D01*
X173833178Y-87969896D01*
X173887938Y-88009682D01*
X173930603Y-88065013D01*
X173936582Y-88134626D01*
X173903976Y-88196421D01*
X173887938Y-88210318D01*
X173803432Y-88271715D01*
X173641716Y-88433431D01*
X173641716Y-88433432D01*
X173641714Y-88433434D01*
X173606730Y-88481585D01*
X173507283Y-88618461D01*
X173403450Y-88822244D01*
X173332778Y-89039750D01*
X173332778Y-89039753D01*
X173332271Y-89042957D01*
X173297000Y-89265646D01*
X173297000Y-89494354D01*
X173300811Y-89518414D01*
X173332778Y-89720246D01*
X173332778Y-89720249D01*
X173403450Y-89937755D01*
X173468859Y-90066126D01*
X173507283Y-90141538D01*
X173641714Y-90326566D01*
X173803434Y-90488286D01*
X173872923Y-90538773D01*
X173887938Y-90549682D01*
X173930603Y-90605013D01*
X173936582Y-90674626D01*
X173903976Y-90736421D01*
X173887938Y-90750318D01*
X173803432Y-90811715D01*
X173641716Y-90973431D01*
X173641716Y-90973432D01*
X173641714Y-90973434D01*
X173633003Y-90985424D01*
X173507283Y-91158461D01*
X173403450Y-91362244D01*
X173332778Y-91579750D01*
X173332778Y-91579753D01*
X173297000Y-91805646D01*
X173297000Y-92034353D01*
X173332778Y-92260246D01*
X173332778Y-92260249D01*
X173403450Y-92477755D01*
X173507283Y-92681538D01*
X173641714Y-92866566D01*
X173803434Y-93028286D01*
X173866072Y-93073795D01*
X173887938Y-93089682D01*
X173930603Y-93145013D01*
X173936582Y-93214626D01*
X173903976Y-93276421D01*
X173887938Y-93290318D01*
X173803432Y-93351715D01*
X173641716Y-93513431D01*
X173641716Y-93513432D01*
X173641714Y-93513434D01*
X173595846Y-93576566D01*
X173507283Y-93698461D01*
X173403450Y-93902244D01*
X173332778Y-94119750D01*
X173332778Y-94119753D01*
X173297000Y-94345646D01*
X173297000Y-94574353D01*
X173332778Y-94800246D01*
X173332778Y-94800249D01*
X173403450Y-95017755D01*
X173507283Y-95221538D01*
X173641714Y-95406566D01*
X173803434Y-95568286D01*
X173872923Y-95618773D01*
X173887938Y-95629682D01*
X173930603Y-95685013D01*
X173936582Y-95754626D01*
X173903976Y-95816421D01*
X173887938Y-95830318D01*
X173803432Y-95891715D01*
X173641716Y-96053431D01*
X173641716Y-96053432D01*
X173641714Y-96053434D01*
X173595846Y-96116566D01*
X173507283Y-96238461D01*
X173403450Y-96442244D01*
X173332778Y-96659750D01*
X173332778Y-96659753D01*
X173297000Y-96885646D01*
X173297000Y-97114353D01*
X173332778Y-97340246D01*
X173332778Y-97340249D01*
X173403450Y-97557755D01*
X173507283Y-97761538D01*
X173641714Y-97946566D01*
X173803434Y-98108286D01*
X173988462Y-98242717D01*
X174173063Y-98336776D01*
X174192244Y-98346549D01*
X174409751Y-98417221D01*
X174409752Y-98417221D01*
X174409755Y-98417222D01*
X174635646Y-98453000D01*
X174635647Y-98453000D01*
X174864353Y-98453000D01*
X174864354Y-98453000D01*
X175090245Y-98417222D01*
X175090248Y-98417221D01*
X175090249Y-98417221D01*
X175307755Y-98346549D01*
X175307755Y-98346548D01*
X175307758Y-98346548D01*
X175511538Y-98242717D01*
X175696566Y-98108286D01*
X175858286Y-97946566D01*
X175992717Y-97761538D01*
X176096548Y-97557758D01*
X176157634Y-97369755D01*
X176167221Y-97340249D01*
X176167221Y-97340248D01*
X176167222Y-97340245D01*
X176203000Y-97114354D01*
X176203000Y-96885646D01*
X176167222Y-96659755D01*
X176167221Y-96659751D01*
X176167221Y-96659750D01*
X176096549Y-96442244D01*
X176013007Y-96278284D01*
X175992717Y-96238462D01*
X175858286Y-96053434D01*
X175696566Y-95891714D01*
X175612059Y-95830316D01*
X175569396Y-95774988D01*
X175563417Y-95705375D01*
X175596023Y-95643580D01*
X175612056Y-95629685D01*
X175696566Y-95568286D01*
X175858286Y-95406566D01*
X175992717Y-95221538D01*
X176096548Y-95017758D01*
X176157634Y-94829755D01*
X176167221Y-94800249D01*
X176167221Y-94800248D01*
X176167222Y-94800245D01*
X176182761Y-94702135D01*
X179939500Y-94702135D01*
X179939500Y-96797870D01*
X179939501Y-96797876D01*
X179945908Y-96857483D01*
X179996202Y-96992328D01*
X179996206Y-96992335D01*
X180082452Y-97107544D01*
X180082455Y-97107547D01*
X180197664Y-97193793D01*
X180197671Y-97193797D01*
X180332517Y-97244091D01*
X180332516Y-97244091D01*
X180339444Y-97244835D01*
X180392127Y-97250500D01*
X181387872Y-97250499D01*
X181447483Y-97244091D01*
X181582331Y-97193796D01*
X181697546Y-97107546D01*
X181783796Y-96992331D01*
X181834091Y-96857483D01*
X181840500Y-96797873D01*
X181840499Y-94702135D01*
X193439500Y-94702135D01*
X193439500Y-96797870D01*
X193439501Y-96797876D01*
X193445908Y-96857483D01*
X193496202Y-96992328D01*
X193496206Y-96992335D01*
X193582452Y-97107544D01*
X193582455Y-97107547D01*
X193697664Y-97193793D01*
X193697671Y-97193797D01*
X193832517Y-97244091D01*
X193832516Y-97244091D01*
X193839444Y-97244835D01*
X193892127Y-97250500D01*
X194887872Y-97250499D01*
X194947483Y-97244091D01*
X195082331Y-97193796D01*
X195197546Y-97107546D01*
X195283796Y-96992331D01*
X195334091Y-96857483D01*
X195340500Y-96797873D01*
X195340499Y-94702128D01*
X195334091Y-94642517D01*
X195322799Y-94612242D01*
X195283797Y-94507671D01*
X195283793Y-94507664D01*
X195197547Y-94392455D01*
X195197544Y-94392452D01*
X195082335Y-94306206D01*
X195082328Y-94306202D01*
X194947482Y-94255908D01*
X194947483Y-94255908D01*
X194887883Y-94249501D01*
X194887881Y-94249500D01*
X194887873Y-94249500D01*
X194887864Y-94249500D01*
X193892129Y-94249500D01*
X193892123Y-94249501D01*
X193832516Y-94255908D01*
X193697671Y-94306202D01*
X193697664Y-94306206D01*
X193582455Y-94392452D01*
X193582452Y-94392455D01*
X193496206Y-94507664D01*
X193496202Y-94507671D01*
X193445908Y-94642517D01*
X193440774Y-94690273D01*
X193439501Y-94702123D01*
X193439500Y-94702135D01*
X181840499Y-94702135D01*
X181840499Y-94702128D01*
X181834091Y-94642517D01*
X181822799Y-94612242D01*
X181783797Y-94507671D01*
X181783793Y-94507664D01*
X181697547Y-94392455D01*
X181697544Y-94392452D01*
X181582335Y-94306206D01*
X181582328Y-94306202D01*
X181447482Y-94255908D01*
X181447483Y-94255908D01*
X181387883Y-94249501D01*
X181387881Y-94249500D01*
X181387873Y-94249500D01*
X181387864Y-94249500D01*
X180392129Y-94249500D01*
X180392123Y-94249501D01*
X180332516Y-94255908D01*
X180197671Y-94306202D01*
X180197664Y-94306206D01*
X180082455Y-94392452D01*
X180082452Y-94392455D01*
X179996206Y-94507664D01*
X179996202Y-94507671D01*
X179945908Y-94642517D01*
X179940774Y-94690273D01*
X179939501Y-94702123D01*
X179939500Y-94702135D01*
X176182761Y-94702135D01*
X176203000Y-94574354D01*
X176203000Y-94345646D01*
X176167222Y-94119755D01*
X176167221Y-94119751D01*
X176167221Y-94119750D01*
X176096549Y-93902244D01*
X176062544Y-93835505D01*
X175992717Y-93698462D01*
X175858286Y-93513434D01*
X175696566Y-93351714D01*
X175612059Y-93290316D01*
X175569396Y-93234988D01*
X175563417Y-93165375D01*
X175596023Y-93103580D01*
X175612056Y-93089685D01*
X175696566Y-93028286D01*
X175858286Y-92866566D01*
X175992717Y-92681538D01*
X176096548Y-92477758D01*
X176118860Y-92409088D01*
X176167221Y-92260249D01*
X176167221Y-92260248D01*
X176167222Y-92260245D01*
X176203000Y-92034354D01*
X176203000Y-91805646D01*
X176167222Y-91579755D01*
X176167221Y-91579751D01*
X176167221Y-91579750D01*
X176096549Y-91362244D01*
X176095406Y-91360000D01*
X175992717Y-91158462D01*
X175858286Y-90973434D01*
X175696566Y-90811714D01*
X175612059Y-90750316D01*
X175569396Y-90694988D01*
X175563417Y-90625375D01*
X175596023Y-90563580D01*
X175612056Y-90549685D01*
X175696566Y-90488286D01*
X175858286Y-90326566D01*
X175992717Y-90141538D01*
X176096548Y-89937758D01*
X176111023Y-89893209D01*
X176167221Y-89720249D01*
X176167221Y-89720248D01*
X176167222Y-89720245D01*
X176203000Y-89494354D01*
X176203000Y-89265646D01*
X176167222Y-89039755D01*
X176167221Y-89039751D01*
X176167221Y-89039750D01*
X176096549Y-88822244D01*
X176013007Y-88658284D01*
X175992717Y-88618462D01*
X175858286Y-88433434D01*
X175696566Y-88271714D01*
X175612059Y-88210316D01*
X175569396Y-88154988D01*
X175563417Y-88085375D01*
X175596023Y-88023580D01*
X175612056Y-88009685D01*
X175696566Y-87948286D01*
X175744869Y-87899983D01*
X181489500Y-87899983D01*
X181489500Y-91600001D01*
X181489501Y-91600018D01*
X181500000Y-91702796D01*
X181500001Y-91702799D01*
X181530521Y-91794900D01*
X181555186Y-91869334D01*
X181647288Y-92018656D01*
X181771344Y-92142712D01*
X181920666Y-92234814D01*
X182087203Y-92289999D01*
X182189991Y-92300500D01*
X185890008Y-92300499D01*
X185992797Y-92289999D01*
X186159334Y-92234814D01*
X186308656Y-92142712D01*
X186432712Y-92018656D01*
X186524814Y-91869334D01*
X186579999Y-91702797D01*
X186590500Y-91600009D01*
X186590499Y-89606790D01*
X188690000Y-89606790D01*
X188690000Y-89893209D01*
X188722066Y-90177801D01*
X188722068Y-90177817D01*
X188785799Y-90457042D01*
X188785803Y-90457054D01*
X188880396Y-90727383D01*
X189004662Y-90985424D01*
X189157042Y-91227935D01*
X189268608Y-91367836D01*
X190124728Y-90511716D01*
X190210278Y-90629466D01*
X190360534Y-90779722D01*
X190478282Y-90865270D01*
X189622162Y-91721390D01*
X189762064Y-91832957D01*
X190004575Y-91985337D01*
X190262616Y-92109603D01*
X190532945Y-92204196D01*
X190532957Y-92204200D01*
X190812182Y-92267931D01*
X190812198Y-92267933D01*
X191096790Y-92299999D01*
X191096792Y-92300000D01*
X191383208Y-92300000D01*
X191383209Y-92299999D01*
X191667801Y-92267933D01*
X191667817Y-92267931D01*
X191947042Y-92204200D01*
X191947054Y-92204196D01*
X192217383Y-92109603D01*
X192475424Y-91985337D01*
X192717935Y-91832958D01*
X192857836Y-91721389D01*
X192001717Y-90865271D01*
X192119466Y-90779722D01*
X192269722Y-90629466D01*
X192355271Y-90511717D01*
X193211389Y-91367836D01*
X193322958Y-91227935D01*
X193475337Y-90985424D01*
X193599603Y-90727383D01*
X193694196Y-90457054D01*
X193694200Y-90457042D01*
X193757931Y-90177817D01*
X193757933Y-90177801D01*
X193789999Y-89893209D01*
X193790000Y-89893207D01*
X193790000Y-89606792D01*
X193789999Y-89606790D01*
X193757933Y-89322198D01*
X193757931Y-89322182D01*
X193694200Y-89042957D01*
X193694196Y-89042945D01*
X193599603Y-88772616D01*
X193475337Y-88514575D01*
X193322957Y-88272064D01*
X193211390Y-88132162D01*
X192355270Y-88988281D01*
X192269722Y-88870534D01*
X192119466Y-88720278D01*
X192001716Y-88634728D01*
X192857836Y-87778608D01*
X192717935Y-87667042D01*
X192475424Y-87514662D01*
X192217383Y-87390396D01*
X191947054Y-87295803D01*
X191947042Y-87295799D01*
X191667817Y-87232068D01*
X191667801Y-87232066D01*
X191383209Y-87200000D01*
X191096790Y-87200000D01*
X190812198Y-87232066D01*
X190812182Y-87232068D01*
X190532957Y-87295799D01*
X190532945Y-87295803D01*
X190262616Y-87390396D01*
X190004575Y-87514662D01*
X189762070Y-87667038D01*
X189622163Y-87778609D01*
X190478282Y-88634728D01*
X190360534Y-88720278D01*
X190210278Y-88870534D01*
X190124728Y-88988282D01*
X189268609Y-88132163D01*
X189157038Y-88272070D01*
X189004662Y-88514575D01*
X188880396Y-88772616D01*
X188785803Y-89042945D01*
X188785799Y-89042957D01*
X188722068Y-89322182D01*
X188722066Y-89322198D01*
X188690000Y-89606790D01*
X186590499Y-89606790D01*
X186590499Y-87899992D01*
X186590498Y-87899980D01*
X186584336Y-87839656D01*
X186583038Y-87826955D01*
X186579999Y-87797203D01*
X186524814Y-87630666D01*
X186432712Y-87481344D01*
X186308656Y-87357288D01*
X186159334Y-87265186D01*
X185992797Y-87210001D01*
X185992795Y-87210000D01*
X185890010Y-87199500D01*
X182189998Y-87199500D01*
X182189981Y-87199501D01*
X182087203Y-87210000D01*
X182087200Y-87210001D01*
X181920668Y-87265185D01*
X181920663Y-87265187D01*
X181771342Y-87357289D01*
X181647289Y-87481342D01*
X181555187Y-87630663D01*
X181555186Y-87630666D01*
X181500001Y-87797203D01*
X181500001Y-87797204D01*
X181500000Y-87797204D01*
X181489500Y-87899983D01*
X175744869Y-87899983D01*
X175858286Y-87786566D01*
X175992717Y-87601538D01*
X176096548Y-87397758D01*
X176109697Y-87357289D01*
X176167221Y-87180249D01*
X176167221Y-87180248D01*
X176167222Y-87180245D01*
X176203000Y-86954354D01*
X176203000Y-86725646D01*
X176167222Y-86499755D01*
X176167221Y-86499751D01*
X176167221Y-86499750D01*
X176096549Y-86282244D01*
X176080912Y-86251555D01*
X175992717Y-86078462D01*
X175858286Y-85893434D01*
X175696566Y-85731714D01*
X175612059Y-85670316D01*
X175569396Y-85614988D01*
X175563417Y-85545375D01*
X175596023Y-85483580D01*
X175612056Y-85469685D01*
X175696566Y-85408286D01*
X175858286Y-85246566D01*
X175992717Y-85061538D01*
X176096548Y-84857758D01*
X176134065Y-84742292D01*
X176167221Y-84640249D01*
X176167221Y-84640248D01*
X176167222Y-84640245D01*
X176203000Y-84414354D01*
X176203000Y-84185646D01*
X176167222Y-83959755D01*
X176167221Y-83959751D01*
X176167221Y-83959750D01*
X176096549Y-83742244D01*
X176087757Y-83724988D01*
X175992717Y-83538462D01*
X175858286Y-83353434D01*
X175696566Y-83191714D01*
X175612059Y-83130316D01*
X175569396Y-83074988D01*
X175563417Y-83005375D01*
X175596023Y-82943580D01*
X175612056Y-82929685D01*
X175696566Y-82868286D01*
X175858286Y-82706566D01*
X175992717Y-82521538D01*
X176096548Y-82317758D01*
X176098631Y-82311347D01*
X176117766Y-82252457D01*
X176117766Y-82252456D01*
X176167221Y-82100249D01*
X176167221Y-82100248D01*
X176167222Y-82100245D01*
X176203000Y-81874354D01*
X176203000Y-81645646D01*
X176167222Y-81419755D01*
X176167221Y-81419751D01*
X176167221Y-81419750D01*
X176096549Y-81202244D01*
X176087598Y-81184676D01*
X175992717Y-80998462D01*
X175858286Y-80813434D01*
X175696566Y-80651714D01*
X175612059Y-80590316D01*
X175569396Y-80534988D01*
X175563417Y-80465375D01*
X175596023Y-80403580D01*
X175612056Y-80389685D01*
X175696566Y-80328286D01*
X175858286Y-80166566D01*
X175992717Y-79981538D01*
X176096548Y-79777758D01*
X176117753Y-79712496D01*
X176167221Y-79560249D01*
X176167221Y-79560248D01*
X176167222Y-79560245D01*
X176203000Y-79334354D01*
X176203000Y-79105646D01*
X176167222Y-78879755D01*
X176167221Y-78879751D01*
X176167221Y-78879750D01*
X176096549Y-78662244D01*
X176087757Y-78644988D01*
X175992717Y-78458462D01*
X175858286Y-78273434D01*
X175696566Y-78111714D01*
X175612059Y-78050316D01*
X175569396Y-77994988D01*
X175563417Y-77925375D01*
X175596023Y-77863580D01*
X175612056Y-77849685D01*
X175696566Y-77788286D01*
X175858286Y-77626566D01*
X175992717Y-77441538D01*
X176096548Y-77237758D01*
X176112758Y-77187870D01*
X176167221Y-77020249D01*
X176167221Y-77020248D01*
X176167222Y-77020245D01*
X176203000Y-76794354D01*
X176203000Y-76565646D01*
X176167222Y-76339755D01*
X176167221Y-76339751D01*
X176167221Y-76339750D01*
X176096549Y-76122244D01*
X176087757Y-76104988D01*
X175992717Y-75918462D01*
X175858286Y-75733434D01*
X175696566Y-75571714D01*
X175612059Y-75510316D01*
X175569396Y-75454988D01*
X175563417Y-75385375D01*
X175596023Y-75323580D01*
X175612056Y-75309685D01*
X175696566Y-75248286D01*
X175858286Y-75086566D01*
X175992717Y-74901538D01*
X176096548Y-74697758D01*
X176103733Y-74675646D01*
X176167221Y-74480249D01*
X176167221Y-74480248D01*
X176167222Y-74480245D01*
X176203000Y-74254354D01*
X176203000Y-74025646D01*
X176167222Y-73799755D01*
X176167221Y-73799751D01*
X176167221Y-73799750D01*
X176096549Y-73582244D01*
X176087757Y-73564988D01*
X175992717Y-73378462D01*
X175858286Y-73193434D01*
X175696566Y-73031714D01*
X175612059Y-72970316D01*
X175569396Y-72914988D01*
X175563417Y-72845375D01*
X175596023Y-72783580D01*
X175612056Y-72769685D01*
X175696566Y-72708286D01*
X175858286Y-72546566D01*
X175992717Y-72361538D01*
X176096548Y-72157758D01*
X176103733Y-72135646D01*
X178797000Y-72135646D01*
X178797000Y-72364353D01*
X178832778Y-72590246D01*
X178832778Y-72590249D01*
X178903450Y-72807755D01*
X178986280Y-72970318D01*
X179007283Y-73011538D01*
X179141714Y-73196566D01*
X179303434Y-73358286D01*
X179331204Y-73378462D01*
X179387938Y-73419682D01*
X179430603Y-73475013D01*
X179436582Y-73544626D01*
X179403976Y-73606421D01*
X179387938Y-73620318D01*
X179303432Y-73681715D01*
X179141716Y-73843431D01*
X179141716Y-73843432D01*
X179141714Y-73843434D01*
X179132376Y-73856287D01*
X179007283Y-74028461D01*
X178903450Y-74232244D01*
X178832778Y-74449750D01*
X178832778Y-74449753D01*
X178827948Y-74480249D01*
X178797000Y-74675646D01*
X178797000Y-74904354D01*
X178811547Y-74996202D01*
X178832778Y-75130246D01*
X178832778Y-75130249D01*
X178903450Y-75347755D01*
X178986280Y-75510318D01*
X179007283Y-75551538D01*
X179141714Y-75736566D01*
X179303434Y-75898286D01*
X179331204Y-75918462D01*
X179387938Y-75959682D01*
X179430603Y-76015013D01*
X179436582Y-76084626D01*
X179403976Y-76146421D01*
X179387938Y-76160318D01*
X179303432Y-76221715D01*
X179141716Y-76383431D01*
X179141716Y-76383432D01*
X179141714Y-76383434D01*
X179083980Y-76462896D01*
X179007283Y-76568461D01*
X178903450Y-76772244D01*
X178832778Y-76989750D01*
X178832778Y-76989753D01*
X178797000Y-77215646D01*
X178797000Y-77444353D01*
X178832778Y-77670246D01*
X178832778Y-77670249D01*
X178903450Y-77887755D01*
X178986280Y-78050318D01*
X179007283Y-78091538D01*
X179141714Y-78276566D01*
X179303434Y-78438286D01*
X179331204Y-78458462D01*
X179388362Y-78499990D01*
X179431028Y-78555320D01*
X179437007Y-78624933D01*
X179416242Y-78664285D01*
X179414899Y-78681347D01*
X180139981Y-79406428D01*
X180066174Y-79426205D01*
X179957575Y-79488905D01*
X179868905Y-79577575D01*
X179806205Y-79686174D01*
X179786428Y-79759980D01*
X179061347Y-79034899D01*
X179061346Y-79034900D01*
X179007713Y-79108719D01*
X178903917Y-79312431D01*
X178833265Y-79529874D01*
X178833265Y-79529875D01*
X178797500Y-79755686D01*
X178797500Y-79984313D01*
X178833265Y-80210124D01*
X178833265Y-80210125D01*
X178903917Y-80427568D01*
X179007711Y-80631276D01*
X179061347Y-80705098D01*
X179061347Y-80705099D01*
X179786428Y-79980018D01*
X179806205Y-80053826D01*
X179868905Y-80162425D01*
X179957575Y-80251095D01*
X180066174Y-80313795D01*
X180139981Y-80333571D01*
X179414899Y-81058651D01*
X179416226Y-81075505D01*
X179431029Y-81094702D01*
X179437008Y-81164316D01*
X179404402Y-81226111D01*
X179388364Y-81240007D01*
X179303440Y-81301709D01*
X179303431Y-81301716D01*
X179141716Y-81463431D01*
X179141716Y-81463432D01*
X179141714Y-81463434D01*
X179093275Y-81530104D01*
X179007283Y-81648461D01*
X178903450Y-81852244D01*
X178832778Y-82069750D01*
X178832778Y-82069753D01*
X178797000Y-82295646D01*
X178797000Y-82524353D01*
X178832778Y-82750246D01*
X178832778Y-82750249D01*
X178903450Y-82967755D01*
X178980465Y-83118905D01*
X179007283Y-83171538D01*
X179141714Y-83356566D01*
X179303434Y-83518286D01*
X179372762Y-83568656D01*
X179387938Y-83579682D01*
X179430603Y-83635013D01*
X179436582Y-83704626D01*
X179403976Y-83766421D01*
X179387938Y-83780318D01*
X179303432Y-83841715D01*
X179141716Y-84003431D01*
X179141716Y-84003432D01*
X179141714Y-84003434D01*
X179102383Y-84057568D01*
X179007283Y-84188461D01*
X178903450Y-84392244D01*
X178832778Y-84609750D01*
X178832778Y-84609753D01*
X178797000Y-84835646D01*
X178797000Y-85064354D01*
X178803642Y-85106287D01*
X178832778Y-85290246D01*
X178832778Y-85290249D01*
X178903450Y-85507755D01*
X178986280Y-85670318D01*
X179007283Y-85711538D01*
X179141714Y-85896566D01*
X179303434Y-86058286D01*
X179488462Y-86192717D01*
X179664165Y-86282242D01*
X179692244Y-86296549D01*
X179909751Y-86367221D01*
X179909752Y-86367221D01*
X179909755Y-86367222D01*
X180135646Y-86403000D01*
X180135647Y-86403000D01*
X180364353Y-86403000D01*
X180364354Y-86403000D01*
X180590245Y-86367222D01*
X180590248Y-86367221D01*
X180590249Y-86367221D01*
X180807755Y-86296549D01*
X180807755Y-86296548D01*
X180807758Y-86296548D01*
X181011538Y-86192717D01*
X181196566Y-86058286D01*
X181358286Y-85896566D01*
X181492717Y-85711538D01*
X181596548Y-85507758D01*
X181667222Y-85290245D01*
X181703000Y-85064354D01*
X181703000Y-84835646D01*
X181667222Y-84609755D01*
X181667221Y-84609751D01*
X181667221Y-84609750D01*
X181596549Y-84392244D01*
X181566767Y-84333794D01*
X181492717Y-84188462D01*
X181358286Y-84003434D01*
X181196566Y-83841714D01*
X181112059Y-83780316D01*
X181069396Y-83724988D01*
X181063417Y-83655375D01*
X181096023Y-83593580D01*
X181112056Y-83579685D01*
X181196566Y-83518286D01*
X181358286Y-83356566D01*
X181492717Y-83171538D01*
X181596548Y-82967758D01*
X181667222Y-82750245D01*
X181703000Y-82524354D01*
X181703000Y-82295646D01*
X181667222Y-82069755D01*
X181667221Y-82069751D01*
X181667221Y-82069750D01*
X181596549Y-81852244D01*
X181544868Y-81750814D01*
X181492717Y-81648462D01*
X181358286Y-81463434D01*
X181196566Y-81301714D01*
X181111634Y-81240007D01*
X181068969Y-81184676D01*
X181062990Y-81115063D01*
X181083756Y-81075705D01*
X181085098Y-81058651D01*
X180360018Y-80333571D01*
X180433826Y-80313795D01*
X180542425Y-80251095D01*
X180631095Y-80162425D01*
X180693795Y-80053826D01*
X180713571Y-79980019D01*
X181438651Y-80705099D01*
X181438651Y-80705098D01*
X181492288Y-80631276D01*
X181596082Y-80427568D01*
X181666734Y-80210125D01*
X181666734Y-80210124D01*
X181702500Y-79984313D01*
X181702500Y-79755686D01*
X181666734Y-79529875D01*
X181666734Y-79529874D01*
X181596082Y-79312431D01*
X181492292Y-79108731D01*
X181492288Y-79108725D01*
X181438651Y-79034900D01*
X181438651Y-79034899D01*
X180713571Y-79759980D01*
X180693795Y-79686174D01*
X180631095Y-79577575D01*
X180542425Y-79488905D01*
X180433826Y-79426205D01*
X180360016Y-79406428D01*
X181085099Y-78681347D01*
X181083772Y-78664493D01*
X181068970Y-78645297D01*
X181062991Y-78575683D01*
X181095597Y-78513888D01*
X181111633Y-78499993D01*
X181196566Y-78438286D01*
X181358286Y-78276566D01*
X181492717Y-78091538D01*
X181596548Y-77887758D01*
X181667222Y-77670245D01*
X181703000Y-77444354D01*
X181703000Y-77215646D01*
X181667222Y-76989755D01*
X181667221Y-76989751D01*
X181667221Y-76989750D01*
X181596549Y-76772244D01*
X181492716Y-76568461D01*
X181490671Y-76565646D01*
X181358286Y-76383434D01*
X181196566Y-76221714D01*
X181112059Y-76160316D01*
X181069396Y-76104988D01*
X181063417Y-76035375D01*
X181096023Y-75973580D01*
X181112056Y-75959685D01*
X181196566Y-75898286D01*
X181358286Y-75736566D01*
X181492717Y-75551538D01*
X181596548Y-75347758D01*
X181645315Y-75197669D01*
X181667221Y-75130249D01*
X181667221Y-75130248D01*
X181667222Y-75130245D01*
X181703000Y-74904354D01*
X181703000Y-74675646D01*
X181667222Y-74449755D01*
X181667221Y-74449751D01*
X181667221Y-74449750D01*
X181596549Y-74232244D01*
X181492716Y-74028461D01*
X181490671Y-74025646D01*
X181358286Y-73843434D01*
X181196566Y-73681714D01*
X181112059Y-73620316D01*
X181069396Y-73564988D01*
X181063417Y-73495375D01*
X181096023Y-73433580D01*
X181112056Y-73419685D01*
X181196566Y-73358286D01*
X181358286Y-73196566D01*
X181492717Y-73011538D01*
X181596548Y-72807758D01*
X181667222Y-72590245D01*
X181703000Y-72364354D01*
X181703000Y-72135646D01*
X194037000Y-72135646D01*
X194037000Y-72364353D01*
X194072778Y-72590246D01*
X194072778Y-72590249D01*
X194143450Y-72807755D01*
X194226280Y-72970318D01*
X194247283Y-73011538D01*
X194381714Y-73196566D01*
X194543434Y-73358286D01*
X194571204Y-73378462D01*
X194627938Y-73419682D01*
X194670603Y-73475013D01*
X194676582Y-73544626D01*
X194643976Y-73606421D01*
X194627938Y-73620318D01*
X194543432Y-73681715D01*
X194381716Y-73843431D01*
X194381716Y-73843432D01*
X194381714Y-73843434D01*
X194372376Y-73856287D01*
X194247283Y-74028461D01*
X194143450Y-74232244D01*
X194072778Y-74449750D01*
X194072778Y-74449753D01*
X194067948Y-74480249D01*
X194037000Y-74675646D01*
X194037000Y-74904354D01*
X194051547Y-74996202D01*
X194072778Y-75130246D01*
X194072778Y-75130249D01*
X194143450Y-75347755D01*
X194226280Y-75510318D01*
X194247283Y-75551538D01*
X194381714Y-75736566D01*
X194543434Y-75898286D01*
X194571204Y-75918462D01*
X194627938Y-75959682D01*
X194670603Y-76015013D01*
X194676582Y-76084626D01*
X194643976Y-76146421D01*
X194627938Y-76160318D01*
X194543432Y-76221715D01*
X194381716Y-76383431D01*
X194381716Y-76383432D01*
X194381714Y-76383434D01*
X194323980Y-76462896D01*
X194247283Y-76568461D01*
X194143450Y-76772244D01*
X194072778Y-76989750D01*
X194072778Y-76989753D01*
X194037000Y-77215646D01*
X194037000Y-77444353D01*
X194072778Y-77670246D01*
X194072778Y-77670249D01*
X194143450Y-77887755D01*
X194226280Y-78050318D01*
X194247283Y-78091538D01*
X194381714Y-78276566D01*
X194543434Y-78438286D01*
X194571204Y-78458462D01*
X194627938Y-78499682D01*
X194670603Y-78555013D01*
X194676582Y-78624626D01*
X194643976Y-78686421D01*
X194627938Y-78700318D01*
X194543432Y-78761715D01*
X194381716Y-78923431D01*
X194381716Y-78923432D01*
X194381714Y-78923434D01*
X194323980Y-79002896D01*
X194247283Y-79108461D01*
X194143450Y-79312244D01*
X194072778Y-79529750D01*
X194072778Y-79529753D01*
X194037000Y-79755646D01*
X194037000Y-79984353D01*
X194072778Y-80210246D01*
X194072778Y-80210249D01*
X194143450Y-80427755D01*
X194226280Y-80590318D01*
X194247283Y-80631538D01*
X194381714Y-80816566D01*
X194543434Y-80978286D01*
X194571204Y-80998462D01*
X194627938Y-81039682D01*
X194670603Y-81095013D01*
X194676582Y-81164626D01*
X194643976Y-81226421D01*
X194627938Y-81240318D01*
X194543432Y-81301715D01*
X194381716Y-81463431D01*
X194381716Y-81463432D01*
X194381714Y-81463434D01*
X194333275Y-81530104D01*
X194247283Y-81648461D01*
X194143450Y-81852244D01*
X194072778Y-82069750D01*
X194072778Y-82069753D01*
X194037000Y-82295646D01*
X194037000Y-82524353D01*
X194072778Y-82750246D01*
X194072778Y-82750249D01*
X194143450Y-82967755D01*
X194220465Y-83118905D01*
X194247283Y-83171538D01*
X194381714Y-83356566D01*
X194543434Y-83518286D01*
X194612762Y-83568656D01*
X194627938Y-83579682D01*
X194670603Y-83635013D01*
X194676582Y-83704626D01*
X194643976Y-83766421D01*
X194627938Y-83780318D01*
X194543432Y-83841715D01*
X194381716Y-84003431D01*
X194381716Y-84003432D01*
X194381714Y-84003434D01*
X194342383Y-84057568D01*
X194247283Y-84188461D01*
X194143450Y-84392244D01*
X194072778Y-84609750D01*
X194072778Y-84609753D01*
X194037000Y-84835646D01*
X194037000Y-85064354D01*
X194043642Y-85106287D01*
X194072778Y-85290246D01*
X194072778Y-85290249D01*
X194143450Y-85507755D01*
X194226280Y-85670318D01*
X194247283Y-85711538D01*
X194381714Y-85896566D01*
X194543434Y-86058286D01*
X194728462Y-86192717D01*
X194904165Y-86282242D01*
X194932244Y-86296549D01*
X195149751Y-86367221D01*
X195149752Y-86367221D01*
X195149755Y-86367222D01*
X195375646Y-86403000D01*
X195375647Y-86403000D01*
X195604353Y-86403000D01*
X195604354Y-86403000D01*
X195830245Y-86367222D01*
X195830248Y-86367221D01*
X195830249Y-86367221D01*
X196047755Y-86296549D01*
X196047755Y-86296548D01*
X196047758Y-86296548D01*
X196251538Y-86192717D01*
X196436566Y-86058286D01*
X196598286Y-85896566D01*
X196725182Y-85721908D01*
X196780512Y-85679243D01*
X196850125Y-85673264D01*
X196911920Y-85705870D01*
X196946278Y-85766709D01*
X196949500Y-85794794D01*
X196949500Y-87828846D01*
X196980261Y-87983489D01*
X196980264Y-87983501D01*
X197040602Y-88129172D01*
X197040609Y-88129185D01*
X197128210Y-88260288D01*
X197128213Y-88260292D01*
X198378211Y-89510289D01*
X198474712Y-89606790D01*
X198489712Y-89621790D01*
X198620814Y-89709390D01*
X198620827Y-89709397D01*
X198772131Y-89772068D01*
X198771302Y-89774068D01*
X198821571Y-89807017D01*
X198827449Y-89814488D01*
X198874890Y-89879785D01*
X198874894Y-89879790D01*
X199013705Y-90018601D01*
X199047190Y-90079924D01*
X199042206Y-90149616D01*
X199000334Y-90205549D01*
X198991121Y-90211821D01*
X198836342Y-90307289D01*
X198712289Y-90431342D01*
X198620187Y-90580663D01*
X198620185Y-90580668D01*
X198605371Y-90625375D01*
X198565001Y-90747203D01*
X198565001Y-90747204D01*
X198565000Y-90747204D01*
X198554500Y-90849983D01*
X198554500Y-92150001D01*
X198554501Y-92150018D01*
X198565000Y-92252796D01*
X198565001Y-92252799D01*
X198593897Y-92339999D01*
X198620186Y-92419334D01*
X198712288Y-92568656D01*
X198836344Y-92692712D01*
X198985666Y-92784814D01*
X199152203Y-92839999D01*
X199254991Y-92850500D01*
X200855008Y-92850499D01*
X200957797Y-92839999D01*
X201124334Y-92784814D01*
X201273656Y-92692712D01*
X201397712Y-92568656D01*
X201489814Y-92419334D01*
X201544999Y-92252797D01*
X201555500Y-92150009D01*
X201555499Y-90849992D01*
X201544999Y-90747203D01*
X201489814Y-90580666D01*
X201397712Y-90431344D01*
X201273656Y-90307288D01*
X201124334Y-90215186D01*
X201124333Y-90215185D01*
X201118878Y-90211821D01*
X201072154Y-90159873D01*
X201060931Y-90090910D01*
X201088775Y-90026828D01*
X201096272Y-90018623D01*
X201235104Y-89879792D01*
X201360051Y-89707816D01*
X201456557Y-89518412D01*
X201522246Y-89316243D01*
X201555500Y-89106287D01*
X201555500Y-88893713D01*
X201522246Y-88683757D01*
X201456557Y-88481588D01*
X201360051Y-88292184D01*
X201360049Y-88292181D01*
X201360048Y-88292179D01*
X201235109Y-88120213D01*
X201084786Y-87969890D01*
X200912820Y-87844951D01*
X200723414Y-87748444D01*
X200723413Y-87748443D01*
X200723412Y-87748443D01*
X200521243Y-87682754D01*
X200521241Y-87682753D01*
X200521240Y-87682753D01*
X200359957Y-87657208D01*
X200311287Y-87649500D01*
X199798713Y-87649500D01*
X199750042Y-87657208D01*
X199588760Y-87682753D01*
X199386585Y-87748444D01*
X199197185Y-87844948D01*
X199155347Y-87875344D01*
X199089540Y-87898822D01*
X199021486Y-87882995D01*
X198994783Y-87862705D01*
X198586819Y-87454741D01*
X198553334Y-87393418D01*
X198550500Y-87367060D01*
X198550500Y-84206230D01*
X198570185Y-84139191D01*
X198622989Y-84093436D01*
X198692147Y-84083492D01*
X198755703Y-84112517D01*
X198762181Y-84118549D01*
X198836344Y-84192712D01*
X198985666Y-84284814D01*
X199152203Y-84339999D01*
X199254991Y-84350500D01*
X200855008Y-84350499D01*
X200957797Y-84339999D01*
X201124334Y-84284814D01*
X201273656Y-84192712D01*
X201397712Y-84068656D01*
X201489814Y-83919334D01*
X201544999Y-83752797D01*
X201555500Y-83650009D01*
X201555499Y-82349992D01*
X201550920Y-82305171D01*
X201544999Y-82247203D01*
X201544998Y-82247200D01*
X201526029Y-82189955D01*
X201489814Y-82080666D01*
X201397712Y-81931344D01*
X201273656Y-81807288D01*
X201124334Y-81715186D01*
X201124333Y-81715185D01*
X201118878Y-81711821D01*
X201072154Y-81659873D01*
X201060931Y-81590910D01*
X201088775Y-81526828D01*
X201096272Y-81518623D01*
X201235104Y-81379792D01*
X201360051Y-81207816D01*
X201456557Y-81018412D01*
X201522246Y-80816243D01*
X201555500Y-80606287D01*
X201555500Y-80393713D01*
X201522246Y-80183757D01*
X201456557Y-79981588D01*
X201360051Y-79792184D01*
X201360049Y-79792181D01*
X201360048Y-79792179D01*
X201235109Y-79620213D01*
X201084786Y-79469890D01*
X200912820Y-79344951D01*
X200723414Y-79248444D01*
X200723413Y-79248443D01*
X200723412Y-79248443D01*
X200521243Y-79182754D01*
X200521241Y-79182753D01*
X200521240Y-79182753D01*
X200359957Y-79157208D01*
X200311287Y-79149500D01*
X199798713Y-79149500D01*
X199750042Y-79157208D01*
X199588760Y-79182753D01*
X199386585Y-79248444D01*
X199197179Y-79344951D01*
X199025213Y-79469890D01*
X198874890Y-79620213D01*
X198749951Y-79792179D01*
X198653444Y-79981585D01*
X198587753Y-80183760D01*
X198554500Y-80393713D01*
X198554500Y-80606286D01*
X198587308Y-80813432D01*
X198587754Y-80816243D01*
X198646960Y-80998461D01*
X198653444Y-81018414D01*
X198749951Y-81207820D01*
X198874890Y-81379786D01*
X199013705Y-81518601D01*
X199047190Y-81579924D01*
X199042206Y-81649616D01*
X199000334Y-81705549D01*
X198991121Y-81711821D01*
X198836345Y-81807287D01*
X198717563Y-81926069D01*
X198656240Y-81959553D01*
X198586548Y-81954569D01*
X198530615Y-81912697D01*
X198515321Y-81885840D01*
X198459394Y-81750821D01*
X198459392Y-81750818D01*
X198459390Y-81750814D01*
X198371789Y-81619711D01*
X198371786Y-81619707D01*
X196959431Y-80207353D01*
X196925946Y-80146030D01*
X196924639Y-80100273D01*
X196943000Y-79984352D01*
X196943000Y-79755646D01*
X196936166Y-79712496D01*
X196907222Y-79529755D01*
X196907221Y-79529751D01*
X196907221Y-79529750D01*
X196836549Y-79312244D01*
X196804041Y-79248443D01*
X196732717Y-79108462D01*
X196598286Y-78923434D01*
X196436566Y-78761714D01*
X196352059Y-78700316D01*
X196309396Y-78644988D01*
X196303417Y-78575375D01*
X196336023Y-78513580D01*
X196352056Y-78499685D01*
X196436566Y-78438286D01*
X196598286Y-78276566D01*
X196732717Y-78091538D01*
X196836548Y-77887758D01*
X196907222Y-77670245D01*
X196943000Y-77444354D01*
X196943000Y-77215646D01*
X196907222Y-76989755D01*
X196907221Y-76989751D01*
X196907221Y-76989750D01*
X196836549Y-76772244D01*
X196732716Y-76568461D01*
X196730671Y-76565646D01*
X196598286Y-76383434D01*
X196436566Y-76221714D01*
X196352059Y-76160316D01*
X196309396Y-76104988D01*
X196303417Y-76035375D01*
X196336023Y-75973580D01*
X196352056Y-75959685D01*
X196436566Y-75898286D01*
X196598286Y-75736566D01*
X196732717Y-75551538D01*
X196836548Y-75347758D01*
X196885315Y-75197669D01*
X196907221Y-75130249D01*
X196907221Y-75130248D01*
X196907222Y-75130245D01*
X196943000Y-74904354D01*
X196943000Y-74675646D01*
X196907222Y-74449755D01*
X196907221Y-74449751D01*
X196907221Y-74449750D01*
X196836549Y-74232244D01*
X196732716Y-74028461D01*
X196730671Y-74025646D01*
X196598286Y-73843434D01*
X196436566Y-73681714D01*
X196352059Y-73620316D01*
X196309396Y-73564988D01*
X196303417Y-73495375D01*
X196336023Y-73433580D01*
X196352056Y-73419685D01*
X196436566Y-73358286D01*
X196598286Y-73196566D01*
X196732717Y-73011538D01*
X196836548Y-72807758D01*
X196907222Y-72590245D01*
X196943000Y-72364354D01*
X196943000Y-72135646D01*
X196907222Y-71909755D01*
X196907221Y-71909751D01*
X196907221Y-71909750D01*
X196836549Y-71692244D01*
X196824947Y-71669473D01*
X196732717Y-71488462D01*
X196598286Y-71303434D01*
X196436566Y-71141714D01*
X196251538Y-71007283D01*
X196178150Y-70969890D01*
X196047755Y-70903450D01*
X195830248Y-70832778D01*
X195660826Y-70805944D01*
X195604354Y-70797000D01*
X195375646Y-70797000D01*
X195300349Y-70808926D01*
X195149753Y-70832778D01*
X195149750Y-70832778D01*
X194932244Y-70903450D01*
X194728461Y-71007283D01*
X194680345Y-71042242D01*
X194543434Y-71141714D01*
X194543432Y-71141716D01*
X194543431Y-71141716D01*
X194381716Y-71303431D01*
X194381716Y-71303432D01*
X194381714Y-71303434D01*
X194372406Y-71316246D01*
X194247283Y-71488461D01*
X194143450Y-71692244D01*
X194072778Y-71909750D01*
X194072778Y-71909753D01*
X194037000Y-72135646D01*
X181703000Y-72135646D01*
X181667222Y-71909755D01*
X181667221Y-71909751D01*
X181667221Y-71909750D01*
X181596549Y-71692244D01*
X181584947Y-71669473D01*
X181492717Y-71488462D01*
X181358286Y-71303434D01*
X181196566Y-71141714D01*
X181011538Y-71007283D01*
X180938150Y-70969890D01*
X180807755Y-70903450D01*
X180590248Y-70832778D01*
X180420826Y-70805944D01*
X180364354Y-70797000D01*
X180135646Y-70797000D01*
X180060349Y-70808926D01*
X179909753Y-70832778D01*
X179909750Y-70832778D01*
X179692244Y-70903450D01*
X179488461Y-71007283D01*
X179440345Y-71042242D01*
X179303434Y-71141714D01*
X179303432Y-71141716D01*
X179303431Y-71141716D01*
X179141716Y-71303431D01*
X179141716Y-71303432D01*
X179141714Y-71303434D01*
X179132406Y-71316246D01*
X179007283Y-71488461D01*
X178903450Y-71692244D01*
X178832778Y-71909750D01*
X178832778Y-71909753D01*
X178797000Y-72135646D01*
X176103733Y-72135646D01*
X176113272Y-72106287D01*
X176117766Y-72092457D01*
X176117766Y-72092456D01*
X176167221Y-71940249D01*
X176167221Y-71940248D01*
X176167222Y-71940245D01*
X176203000Y-71714354D01*
X176203000Y-71485646D01*
X176167222Y-71259755D01*
X176167221Y-71259751D01*
X176167221Y-71259750D01*
X176096549Y-71042244D01*
X176083690Y-71017007D01*
X175992717Y-70838462D01*
X175858286Y-70653434D01*
X175696566Y-70491714D01*
X175612059Y-70430316D01*
X175569396Y-70374988D01*
X175563417Y-70305375D01*
X175596023Y-70243580D01*
X175612056Y-70229685D01*
X175696566Y-70168286D01*
X175858286Y-70006566D01*
X175992717Y-69821538D01*
X176096548Y-69617758D01*
X176167222Y-69400245D01*
X176203000Y-69174354D01*
X176203000Y-68945646D01*
X176184639Y-68829723D01*
X176193593Y-68760430D01*
X176219428Y-68722647D01*
X178010286Y-66931790D01*
X178010289Y-66931789D01*
X178121789Y-66820289D01*
X178209394Y-66689179D01*
X178269737Y-66543497D01*
X178293547Y-66423799D01*
X178300500Y-66388843D01*
X178300500Y-66231158D01*
X178300500Y-60922939D01*
X178320185Y-60855900D01*
X178336819Y-60835258D01*
X178440489Y-60731588D01*
X178615446Y-60556630D01*
X178676767Y-60523147D01*
X178746458Y-60528131D01*
X178802392Y-60570002D01*
X178825598Y-60624914D01*
X178832778Y-60670248D01*
X178832778Y-60670249D01*
X178903450Y-60887755D01*
X178963080Y-61004785D01*
X179007283Y-61091538D01*
X179141714Y-61276566D01*
X179303434Y-61438286D01*
X179309913Y-61442993D01*
X179388362Y-61499990D01*
X179431028Y-61555320D01*
X179437007Y-61624933D01*
X179416242Y-61664285D01*
X179414899Y-61681347D01*
X180139981Y-62406428D01*
X180066174Y-62426205D01*
X179957575Y-62488905D01*
X179868905Y-62577575D01*
X179806205Y-62686174D01*
X179786428Y-62759981D01*
X179061347Y-62034899D01*
X179061346Y-62034900D01*
X179007713Y-62108719D01*
X178903917Y-62312431D01*
X178833265Y-62529874D01*
X178833265Y-62529875D01*
X178797500Y-62755686D01*
X178797500Y-62984313D01*
X178833265Y-63210124D01*
X178833265Y-63210125D01*
X178903917Y-63427568D01*
X179007711Y-63631276D01*
X179061347Y-63705098D01*
X179061347Y-63705099D01*
X179786428Y-62980018D01*
X179806205Y-63053826D01*
X179868905Y-63162425D01*
X179957575Y-63251095D01*
X180066174Y-63313795D01*
X180139981Y-63333571D01*
X179414899Y-64058651D01*
X179416226Y-64075505D01*
X179431029Y-64094702D01*
X179437008Y-64164316D01*
X179404402Y-64226111D01*
X179388364Y-64240007D01*
X179303440Y-64301709D01*
X179303431Y-64301716D01*
X179141716Y-64463431D01*
X179141716Y-64463432D01*
X179141714Y-64463434D01*
X179093275Y-64530104D01*
X179007283Y-64648461D01*
X178903450Y-64852244D01*
X178832778Y-65069750D01*
X178832778Y-65069753D01*
X178797000Y-65295646D01*
X178797000Y-65524353D01*
X178832778Y-65750246D01*
X178832778Y-65750249D01*
X178903450Y-65967755D01*
X178916873Y-65994099D01*
X179007283Y-66171538D01*
X179141714Y-66356566D01*
X179303434Y-66518286D01*
X179372923Y-66568773D01*
X179387938Y-66579682D01*
X179430603Y-66635013D01*
X179436582Y-66704626D01*
X179403976Y-66766421D01*
X179387938Y-66780318D01*
X179303432Y-66841715D01*
X179141716Y-67003431D01*
X179141716Y-67003432D01*
X179141714Y-67003434D01*
X179094327Y-67068656D01*
X179007283Y-67188461D01*
X178903450Y-67392244D01*
X178832778Y-67609750D01*
X178832778Y-67609753D01*
X178797000Y-67835646D01*
X178797000Y-68064353D01*
X178832778Y-68290246D01*
X178832778Y-68290249D01*
X178903450Y-68507755D01*
X178967822Y-68634091D01*
X179007283Y-68711538D01*
X179141714Y-68896566D01*
X179303434Y-69058286D01*
X179488462Y-69192717D01*
X179692242Y-69296548D01*
X179692244Y-69296549D01*
X179909751Y-69367221D01*
X179909752Y-69367221D01*
X179909755Y-69367222D01*
X180135646Y-69403000D01*
X180135647Y-69403000D01*
X180364353Y-69403000D01*
X180364354Y-69403000D01*
X180590245Y-69367222D01*
X180590248Y-69367221D01*
X180590249Y-69367221D01*
X180807755Y-69296549D01*
X180807755Y-69296548D01*
X180807758Y-69296548D01*
X181011538Y-69192717D01*
X181196566Y-69058286D01*
X181358286Y-68896566D01*
X181492717Y-68711538D01*
X181596548Y-68507758D01*
X181664552Y-68298462D01*
X181667221Y-68290249D01*
X181667221Y-68290248D01*
X181667222Y-68290245D01*
X181703000Y-68064354D01*
X181703000Y-67835646D01*
X181667222Y-67609755D01*
X181667221Y-67609751D01*
X181667221Y-67609750D01*
X181596549Y-67392244D01*
X181569928Y-67339998D01*
X181492717Y-67188462D01*
X181358286Y-67003434D01*
X181196566Y-66841714D01*
X181112059Y-66780316D01*
X181069396Y-66724988D01*
X181063417Y-66655375D01*
X181096023Y-66593580D01*
X181112056Y-66579685D01*
X181196566Y-66518286D01*
X181358286Y-66356566D01*
X181492717Y-66171538D01*
X181596548Y-65967758D01*
X181653298Y-65793099D01*
X181667221Y-65750249D01*
X181667221Y-65750248D01*
X181667222Y-65750245D01*
X181703000Y-65524354D01*
X181703000Y-65295646D01*
X181667222Y-65069755D01*
X181667221Y-65069751D01*
X181667221Y-65069750D01*
X181596549Y-64852244D01*
X181596548Y-64852242D01*
X181492717Y-64648462D01*
X181358286Y-64463434D01*
X181196566Y-64301714D01*
X181111634Y-64240007D01*
X181068969Y-64184676D01*
X181062990Y-64115063D01*
X181083756Y-64075705D01*
X181085098Y-64058651D01*
X180360018Y-63333571D01*
X180433826Y-63313795D01*
X180542425Y-63251095D01*
X180631095Y-63162425D01*
X180693795Y-63053826D01*
X180713571Y-62980019D01*
X181438651Y-63705099D01*
X181438651Y-63705098D01*
X181492288Y-63631276D01*
X181596082Y-63427568D01*
X181666734Y-63210125D01*
X181666734Y-63210124D01*
X181702500Y-62984313D01*
X181702500Y-62755686D01*
X181666734Y-62529875D01*
X181666734Y-62529874D01*
X181596082Y-62312431D01*
X181492292Y-62108731D01*
X181492288Y-62108725D01*
X181438651Y-62034900D01*
X181438651Y-62034899D01*
X180713571Y-62759980D01*
X180693795Y-62686174D01*
X180631095Y-62577575D01*
X180542425Y-62488905D01*
X180433826Y-62426205D01*
X180360016Y-62406428D01*
X181085099Y-61681347D01*
X181083772Y-61664493D01*
X181068970Y-61645297D01*
X181062991Y-61575683D01*
X181095597Y-61513888D01*
X181111633Y-61499993D01*
X181196566Y-61438286D01*
X181358286Y-61276566D01*
X181492717Y-61091538D01*
X181596548Y-60887758D01*
X181606899Y-60855900D01*
X181667221Y-60670249D01*
X181667221Y-60670248D01*
X181667222Y-60670245D01*
X181703000Y-60444354D01*
X181703000Y-60215646D01*
X181667222Y-59989755D01*
X181667221Y-59989751D01*
X181667221Y-59989750D01*
X181596549Y-59772244D01*
X181492716Y-59568461D01*
X181484658Y-59557370D01*
X181358286Y-59383434D01*
X181196566Y-59221714D01*
X181112059Y-59160316D01*
X181069396Y-59104988D01*
X181063417Y-59035375D01*
X181096023Y-58973580D01*
X181112056Y-58959685D01*
X181196566Y-58898286D01*
X181358286Y-58736566D01*
X181492717Y-58551538D01*
X181596548Y-58347758D01*
X181667222Y-58130245D01*
X181703000Y-57904354D01*
X181703000Y-57675646D01*
X181667222Y-57449755D01*
X181667221Y-57449751D01*
X181667221Y-57449750D01*
X181596549Y-57232244D01*
X181492716Y-57028461D01*
X181358286Y-56843434D01*
X181196566Y-56681714D01*
X181112059Y-56620316D01*
X181069396Y-56564988D01*
X181063417Y-56495375D01*
X181096023Y-56433580D01*
X181112056Y-56419685D01*
X181196566Y-56358286D01*
X181358286Y-56196566D01*
X181492717Y-56011538D01*
X181596548Y-55807758D01*
X181667222Y-55590245D01*
X181703000Y-55364354D01*
X181703000Y-55135646D01*
X194037000Y-55135646D01*
X194037000Y-55364353D01*
X194072778Y-55590246D01*
X194072778Y-55590249D01*
X194143450Y-55807755D01*
X194143452Y-55807758D01*
X194247283Y-56011538D01*
X194381714Y-56196566D01*
X194543434Y-56358286D01*
X194571547Y-56378711D01*
X194627938Y-56419682D01*
X194670603Y-56475013D01*
X194676582Y-56544626D01*
X194643976Y-56606421D01*
X194627938Y-56620318D01*
X194543432Y-56681715D01*
X194381716Y-56843431D01*
X194381716Y-56843432D01*
X194381714Y-56843434D01*
X194323980Y-56922896D01*
X194247283Y-57028461D01*
X194143450Y-57232244D01*
X194072778Y-57449750D01*
X194072778Y-57449753D01*
X194037000Y-57675646D01*
X194037000Y-57904353D01*
X194072778Y-58130246D01*
X194072778Y-58130249D01*
X194143450Y-58347755D01*
X194143452Y-58347758D01*
X194247283Y-58551538D01*
X194381714Y-58736566D01*
X194543434Y-58898286D01*
X194612923Y-58948773D01*
X194627938Y-58959682D01*
X194670603Y-59015013D01*
X194676582Y-59084626D01*
X194643976Y-59146421D01*
X194627938Y-59160318D01*
X194543432Y-59221715D01*
X194381716Y-59383431D01*
X194381716Y-59383432D01*
X194381714Y-59383434D01*
X194323980Y-59462896D01*
X194247283Y-59568461D01*
X194143450Y-59772244D01*
X194072778Y-59989750D01*
X194072778Y-59989753D01*
X194037000Y-60215646D01*
X194037000Y-60444353D01*
X194072778Y-60670246D01*
X194072778Y-60670249D01*
X194143450Y-60887755D01*
X194203080Y-61004785D01*
X194247283Y-61091538D01*
X194381714Y-61276566D01*
X194543434Y-61438286D01*
X194594652Y-61475498D01*
X194627938Y-61499682D01*
X194670603Y-61555013D01*
X194676582Y-61624626D01*
X194643976Y-61686421D01*
X194627938Y-61700318D01*
X194543432Y-61761715D01*
X194381716Y-61923431D01*
X194381716Y-61923432D01*
X194381714Y-61923434D01*
X194356734Y-61957816D01*
X194247283Y-62108461D01*
X194143450Y-62312244D01*
X194072778Y-62529750D01*
X194072778Y-62529753D01*
X194037000Y-62755646D01*
X194037000Y-62984353D01*
X194072778Y-63210246D01*
X194072778Y-63210249D01*
X194143450Y-63427755D01*
X194213432Y-63565102D01*
X194247283Y-63631538D01*
X194381714Y-63816566D01*
X194543434Y-63978286D01*
X194598663Y-64018412D01*
X194627938Y-64039682D01*
X194670603Y-64095013D01*
X194676582Y-64164626D01*
X194643976Y-64226421D01*
X194627938Y-64240318D01*
X194543432Y-64301715D01*
X194381716Y-64463431D01*
X194381716Y-64463432D01*
X194381714Y-64463434D01*
X194333275Y-64530104D01*
X194247283Y-64648461D01*
X194143450Y-64852244D01*
X194072778Y-65069750D01*
X194072778Y-65069753D01*
X194037000Y-65295646D01*
X194037000Y-65524353D01*
X194072778Y-65750246D01*
X194072778Y-65750249D01*
X194143450Y-65967755D01*
X194156873Y-65994099D01*
X194247283Y-66171538D01*
X194381714Y-66356566D01*
X194543434Y-66518286D01*
X194612923Y-66568773D01*
X194627938Y-66579682D01*
X194670603Y-66635013D01*
X194676582Y-66704626D01*
X194643976Y-66766421D01*
X194627938Y-66780318D01*
X194543432Y-66841715D01*
X194381716Y-67003431D01*
X194381716Y-67003432D01*
X194381714Y-67003434D01*
X194334327Y-67068656D01*
X194247283Y-67188461D01*
X194143450Y-67392244D01*
X194072778Y-67609750D01*
X194072778Y-67609753D01*
X194037000Y-67835646D01*
X194037000Y-68064353D01*
X194072778Y-68290246D01*
X194072778Y-68290249D01*
X194143450Y-68507755D01*
X194207822Y-68634091D01*
X194247283Y-68711538D01*
X194381714Y-68896566D01*
X194543434Y-69058286D01*
X194728462Y-69192717D01*
X194932242Y-69296548D01*
X194932244Y-69296549D01*
X195149751Y-69367221D01*
X195149752Y-69367221D01*
X195149755Y-69367222D01*
X195375646Y-69403000D01*
X195375647Y-69403000D01*
X195604353Y-69403000D01*
X195604354Y-69403000D01*
X195830245Y-69367222D01*
X195830248Y-69367221D01*
X195830249Y-69367221D01*
X196047755Y-69296549D01*
X196047755Y-69296548D01*
X196047758Y-69296548D01*
X196251538Y-69192717D01*
X196436566Y-69058286D01*
X196598286Y-68896566D01*
X196725182Y-68721908D01*
X196780512Y-68679243D01*
X196850125Y-68673264D01*
X196911920Y-68705870D01*
X196946278Y-68766709D01*
X196949500Y-68794794D01*
X196949500Y-69773846D01*
X196980261Y-69928489D01*
X196980264Y-69928501D01*
X197040602Y-70074172D01*
X197040609Y-70074185D01*
X197128210Y-70205288D01*
X197128213Y-70205292D01*
X198545665Y-71622743D01*
X198579150Y-71684066D01*
X198580457Y-71729821D01*
X198554500Y-71893712D01*
X198554500Y-71893713D01*
X198554500Y-72106287D01*
X198587754Y-72316243D01*
X198603386Y-72364354D01*
X198653444Y-72518414D01*
X198749951Y-72707820D01*
X198874890Y-72879786D01*
X199013705Y-73018601D01*
X199047190Y-73079924D01*
X199042206Y-73149616D01*
X199000334Y-73205549D01*
X198991121Y-73211821D01*
X198836342Y-73307289D01*
X198712289Y-73431342D01*
X198620187Y-73580663D01*
X198620185Y-73580668D01*
X198599294Y-73643713D01*
X198565001Y-73747203D01*
X198565001Y-73747204D01*
X198565000Y-73747204D01*
X198554500Y-73849983D01*
X198554500Y-75150001D01*
X198554501Y-75150018D01*
X198565000Y-75252796D01*
X198565001Y-75252799D01*
X198596467Y-75347755D01*
X198620186Y-75419334D01*
X198712288Y-75568656D01*
X198836344Y-75692712D01*
X198985666Y-75784814D01*
X199152203Y-75839999D01*
X199254991Y-75850500D01*
X200855008Y-75850499D01*
X200957797Y-75839999D01*
X201124334Y-75784814D01*
X201273656Y-75692712D01*
X201397712Y-75568656D01*
X201489814Y-75419334D01*
X201544999Y-75252797D01*
X201555500Y-75150009D01*
X201555499Y-73849992D01*
X201544999Y-73747203D01*
X201489814Y-73580666D01*
X201397712Y-73431344D01*
X201273656Y-73307288D01*
X201124334Y-73215186D01*
X201124333Y-73215185D01*
X201118878Y-73211821D01*
X201072154Y-73159873D01*
X201060931Y-73090910D01*
X201088775Y-73026828D01*
X201096272Y-73018623D01*
X201235104Y-72879792D01*
X201262041Y-72842717D01*
X201351279Y-72719890D01*
X201360051Y-72707816D01*
X201456557Y-72518412D01*
X201522246Y-72316243D01*
X201555500Y-72106287D01*
X201555500Y-71893713D01*
X201522246Y-71683757D01*
X201456557Y-71481588D01*
X201360051Y-71292184D01*
X201360049Y-71292181D01*
X201360048Y-71292179D01*
X201235109Y-71120213D01*
X201084786Y-70969890D01*
X200912820Y-70844951D01*
X200723414Y-70748444D01*
X200723413Y-70748443D01*
X200723412Y-70748443D01*
X200521243Y-70682754D01*
X200521241Y-70682753D01*
X200521240Y-70682753D01*
X200336106Y-70653431D01*
X200311287Y-70649500D01*
X200311286Y-70649500D01*
X199887940Y-70649500D01*
X199820901Y-70629815D01*
X199800259Y-70613181D01*
X198586819Y-69399741D01*
X198553334Y-69338418D01*
X198550500Y-69312060D01*
X198550500Y-67206230D01*
X198570185Y-67139191D01*
X198622989Y-67093436D01*
X198692147Y-67083492D01*
X198755703Y-67112517D01*
X198762181Y-67118549D01*
X198836344Y-67192712D01*
X198985666Y-67284814D01*
X199152203Y-67339999D01*
X199254991Y-67350500D01*
X200855008Y-67350499D01*
X200957797Y-67339999D01*
X201124334Y-67284814D01*
X201273656Y-67192712D01*
X201397712Y-67068656D01*
X201489814Y-66919334D01*
X201544999Y-66752797D01*
X201555500Y-66650009D01*
X201555499Y-65349992D01*
X201544999Y-65247203D01*
X201489814Y-65080666D01*
X201397712Y-64931344D01*
X201273656Y-64807288D01*
X201124334Y-64715186D01*
X201124333Y-64715185D01*
X201118878Y-64711821D01*
X201072154Y-64659873D01*
X201060931Y-64590910D01*
X201088775Y-64526828D01*
X201096272Y-64518623D01*
X201235104Y-64379792D01*
X201360051Y-64207816D01*
X201456557Y-64018412D01*
X201522246Y-63816243D01*
X201555500Y-63606287D01*
X201555500Y-63393713D01*
X201522246Y-63183757D01*
X201456557Y-62981588D01*
X201360051Y-62792184D01*
X201360049Y-62792181D01*
X201360048Y-62792179D01*
X201235109Y-62620213D01*
X201084786Y-62469890D01*
X200912820Y-62344951D01*
X200723414Y-62248444D01*
X200723413Y-62248443D01*
X200723412Y-62248443D01*
X200521243Y-62182754D01*
X200521241Y-62182753D01*
X200521240Y-62182753D01*
X200345911Y-62154984D01*
X200311287Y-62149500D01*
X199798713Y-62149500D01*
X199764089Y-62154984D01*
X199588760Y-62182753D01*
X199386585Y-62248444D01*
X199197179Y-62344951D01*
X199025213Y-62469890D01*
X198874890Y-62620213D01*
X198749951Y-62792179D01*
X198653444Y-62981585D01*
X198587753Y-63183760D01*
X198565340Y-63325270D01*
X198554500Y-63393713D01*
X198554500Y-63606287D01*
X198561100Y-63647955D01*
X198585260Y-63800500D01*
X198587754Y-63816243D01*
X198640405Y-63978286D01*
X198653444Y-64018414D01*
X198749951Y-64207820D01*
X198874890Y-64379786D01*
X199013705Y-64518601D01*
X199047190Y-64579924D01*
X199042206Y-64649616D01*
X199000334Y-64705549D01*
X198991121Y-64711821D01*
X198836345Y-64807287D01*
X198717563Y-64926069D01*
X198656240Y-64959553D01*
X198586548Y-64954569D01*
X198530615Y-64912697D01*
X198515321Y-64885840D01*
X198482784Y-64807289D01*
X198459394Y-64750821D01*
X198459392Y-64750818D01*
X198459390Y-64750814D01*
X198371789Y-64619711D01*
X198371786Y-64619707D01*
X196959431Y-63207353D01*
X196925946Y-63146030D01*
X196924639Y-63100273D01*
X196943000Y-62984352D01*
X196943000Y-62755646D01*
X196935770Y-62710000D01*
X196907222Y-62529755D01*
X196907221Y-62529751D01*
X196907221Y-62529750D01*
X196836549Y-62312244D01*
X196784453Y-62210000D01*
X196732717Y-62108462D01*
X196598286Y-61923434D01*
X196436566Y-61761714D01*
X196352059Y-61700316D01*
X196309396Y-61644988D01*
X196303417Y-61575375D01*
X196336023Y-61513580D01*
X196352056Y-61499685D01*
X196436566Y-61438286D01*
X196598286Y-61276566D01*
X196732717Y-61091538D01*
X196836548Y-60887758D01*
X196846899Y-60855900D01*
X196907221Y-60670249D01*
X196907221Y-60670248D01*
X196907222Y-60670245D01*
X196943000Y-60444354D01*
X196943000Y-60215646D01*
X196907222Y-59989755D01*
X196907221Y-59989751D01*
X196907221Y-59989750D01*
X196836549Y-59772244D01*
X196732716Y-59568461D01*
X196724658Y-59557370D01*
X196598286Y-59383434D01*
X196436566Y-59221714D01*
X196352059Y-59160316D01*
X196309396Y-59104988D01*
X196303417Y-59035375D01*
X196336023Y-58973580D01*
X196352056Y-58959685D01*
X196436566Y-58898286D01*
X196598286Y-58736566D01*
X196732717Y-58551538D01*
X196836548Y-58347758D01*
X196907222Y-58130245D01*
X196943000Y-57904354D01*
X196943000Y-57675646D01*
X196907222Y-57449755D01*
X196907221Y-57449751D01*
X196907221Y-57449750D01*
X196836549Y-57232244D01*
X196732716Y-57028461D01*
X196598286Y-56843434D01*
X196436566Y-56681714D01*
X196352059Y-56620316D01*
X196337707Y-56601703D01*
X196320072Y-56586161D01*
X196316767Y-56574548D01*
X196309396Y-56564988D01*
X196307384Y-56541570D01*
X196300951Y-56518959D01*
X196304450Y-56507402D01*
X196303417Y-56495375D01*
X196314385Y-56474587D01*
X196321198Y-56452087D01*
X196332543Y-56440175D01*
X196336023Y-56433580D01*
X196344534Y-56425608D01*
X196348176Y-56422504D01*
X196408453Y-56378711D01*
X201649500Y-56378711D01*
X201649500Y-56621288D01*
X201681161Y-56861785D01*
X201743947Y-57096104D01*
X201836773Y-57320205D01*
X201836776Y-57320212D01*
X201958064Y-57530289D01*
X201958066Y-57530292D01*
X201958067Y-57530293D01*
X202105733Y-57722736D01*
X202105739Y-57722743D01*
X202277256Y-57894260D01*
X202277262Y-57894265D01*
X202469711Y-58041936D01*
X202679788Y-58163224D01*
X202903900Y-58256054D01*
X203138211Y-58318838D01*
X203318586Y-58342584D01*
X203378711Y-58350500D01*
X203378712Y-58350500D01*
X203621289Y-58350500D01*
X203669388Y-58344167D01*
X203861789Y-58318838D01*
X204096100Y-58256054D01*
X204320212Y-58163224D01*
X204530289Y-58041936D01*
X204722738Y-57894265D01*
X204894265Y-57722738D01*
X205041936Y-57530289D01*
X205163224Y-57320212D01*
X205256054Y-57096100D01*
X205318838Y-56861789D01*
X205350500Y-56621288D01*
X205350500Y-56378712D01*
X205318838Y-56138211D01*
X205256054Y-55903900D01*
X205163224Y-55679788D01*
X205041936Y-55469711D01*
X204894265Y-55277262D01*
X204894260Y-55277256D01*
X204722743Y-55105739D01*
X204722736Y-55105733D01*
X204530293Y-54958067D01*
X204530292Y-54958066D01*
X204530289Y-54958064D01*
X204320212Y-54836776D01*
X204320205Y-54836773D01*
X204096104Y-54743947D01*
X203861785Y-54681161D01*
X203621289Y-54649500D01*
X203621288Y-54649500D01*
X203378712Y-54649500D01*
X203378711Y-54649500D01*
X203138214Y-54681161D01*
X202903895Y-54743947D01*
X202679794Y-54836773D01*
X202679785Y-54836777D01*
X202469706Y-54958067D01*
X202277263Y-55105733D01*
X202277256Y-55105739D01*
X202105739Y-55277256D01*
X202105733Y-55277263D01*
X201958067Y-55469706D01*
X201836777Y-55679785D01*
X201836773Y-55679794D01*
X201743947Y-55903895D01*
X201681161Y-56138214D01*
X201649500Y-56378711D01*
X196408453Y-56378711D01*
X196436566Y-56358286D01*
X196598286Y-56196566D01*
X196732717Y-56011538D01*
X196836548Y-55807758D01*
X196907222Y-55590245D01*
X196943000Y-55364354D01*
X196943000Y-55135646D01*
X196907222Y-54909755D01*
X196907221Y-54909751D01*
X196907221Y-54909750D01*
X196836549Y-54692244D01*
X196732716Y-54488461D01*
X196598286Y-54303434D01*
X196436566Y-54141714D01*
X196251538Y-54007283D01*
X196047755Y-53903450D01*
X195830248Y-53832778D01*
X195660826Y-53805944D01*
X195604354Y-53797000D01*
X195375646Y-53797000D01*
X195300349Y-53808926D01*
X195149753Y-53832778D01*
X195149750Y-53832778D01*
X194932244Y-53903450D01*
X194728461Y-54007283D01*
X194622896Y-54083980D01*
X194543434Y-54141714D01*
X194543432Y-54141716D01*
X194543431Y-54141716D01*
X194381716Y-54303431D01*
X194381716Y-54303432D01*
X194381714Y-54303434D01*
X194333861Y-54369298D01*
X194247283Y-54488461D01*
X194143450Y-54692244D01*
X194072778Y-54909750D01*
X194072778Y-54909753D01*
X194037000Y-55135646D01*
X181703000Y-55135646D01*
X181667222Y-54909755D01*
X181667221Y-54909751D01*
X181667221Y-54909750D01*
X181596549Y-54692244D01*
X181492716Y-54488461D01*
X181358286Y-54303434D01*
X181196566Y-54141714D01*
X181011538Y-54007283D01*
X180807755Y-53903450D01*
X180590248Y-53832778D01*
X180420826Y-53805944D01*
X180364354Y-53797000D01*
X180135646Y-53797000D01*
X180060349Y-53808926D01*
X179909753Y-53832778D01*
X179909750Y-53832778D01*
X179692244Y-53903450D01*
X179488461Y-54007283D01*
X179382896Y-54083980D01*
X179303434Y-54141714D01*
X179303432Y-54141716D01*
X179303431Y-54141716D01*
X179141716Y-54303431D01*
X179141716Y-54303432D01*
X179141714Y-54303434D01*
X179093861Y-54369298D01*
X179007283Y-54488461D01*
X178903450Y-54692244D01*
X178832778Y-54909750D01*
X178832778Y-54909753D01*
X178797000Y-55135646D01*
X178797000Y-55364353D01*
X178832778Y-55590246D01*
X178832778Y-55590249D01*
X178903450Y-55807755D01*
X178903452Y-55807758D01*
X179007283Y-56011538D01*
X179141714Y-56196566D01*
X179303434Y-56358286D01*
X179331547Y-56378711D01*
X179387938Y-56419682D01*
X179430603Y-56475013D01*
X179436582Y-56544626D01*
X179403976Y-56606421D01*
X179387938Y-56620318D01*
X179303432Y-56681715D01*
X179141716Y-56843431D01*
X179141716Y-56843432D01*
X179141714Y-56843434D01*
X179083980Y-56922896D01*
X179007283Y-57028461D01*
X178903450Y-57232244D01*
X178832778Y-57449750D01*
X178832778Y-57449753D01*
X178797000Y-57675646D01*
X178797000Y-57904353D01*
X178815360Y-58020274D01*
X178806405Y-58089568D01*
X178780568Y-58127353D01*
X176878213Y-60029707D01*
X176878210Y-60029711D01*
X176790609Y-60160814D01*
X176790602Y-60160827D01*
X176730264Y-60306498D01*
X176730261Y-60306510D01*
X176699500Y-60461153D01*
X176699500Y-65927060D01*
X176679815Y-65994099D01*
X176663181Y-66014741D01*
X176384555Y-66293366D01*
X176323232Y-66326851D01*
X176253540Y-66321867D01*
X176197607Y-66279995D01*
X176174401Y-66225086D01*
X176167222Y-66179755D01*
X176152116Y-66133264D01*
X176096549Y-65962244D01*
X176084960Y-65939500D01*
X175992717Y-65758462D01*
X175858286Y-65573434D01*
X175696566Y-65411714D01*
X175611634Y-65350007D01*
X175568970Y-65294678D01*
X175562991Y-65225064D01*
X175595597Y-65163269D01*
X175611637Y-65149371D01*
X175696239Y-65087905D01*
X175857902Y-64926242D01*
X175992288Y-64741276D01*
X176096082Y-64537570D01*
X176166734Y-64320128D01*
X176181009Y-64230000D01*
X175155589Y-64230000D01*
X175193795Y-64163826D01*
X175226250Y-64042700D01*
X175226250Y-63917300D01*
X175193795Y-63796174D01*
X175155589Y-63730000D01*
X176181009Y-63730000D01*
X176166734Y-63639871D01*
X176096082Y-63422429D01*
X175992288Y-63218723D01*
X175857902Y-63033757D01*
X175696242Y-62872097D01*
X175611635Y-62810626D01*
X175568970Y-62755296D01*
X175562991Y-62685682D01*
X175595597Y-62623887D01*
X175611625Y-62609999D01*
X175696566Y-62548286D01*
X175858286Y-62386566D01*
X175992717Y-62201538D01*
X176096548Y-61997758D01*
X176129055Y-61897711D01*
X176167221Y-61780249D01*
X176167221Y-61780248D01*
X176167222Y-61780245D01*
X176203000Y-61554354D01*
X176203000Y-61325646D01*
X176167222Y-61099755D01*
X176167221Y-61099751D01*
X176167221Y-61099750D01*
X176096549Y-60882244D01*
X176080069Y-60849901D01*
X175992717Y-60678462D01*
X175858286Y-60493434D01*
X175696566Y-60331714D01*
X175511538Y-60197283D01*
X175439989Y-60160827D01*
X175307755Y-60093450D01*
X175090248Y-60022778D01*
X174881748Y-59989755D01*
X174864354Y-59987000D01*
X174635646Y-59987000D01*
X174563399Y-59998443D01*
X174409753Y-60022778D01*
X174409750Y-60022778D01*
X174192244Y-60093450D01*
X173988461Y-60197283D01*
X173915903Y-60250000D01*
X173803434Y-60331714D01*
X173803432Y-60331716D01*
X173803431Y-60331716D01*
X173641716Y-60493431D01*
X173641716Y-60493432D01*
X173641714Y-60493434D01*
X173599532Y-60551492D01*
X173507283Y-60678461D01*
X173403450Y-60882244D01*
X173332778Y-61099750D01*
X173332778Y-61099753D01*
X173319407Y-61184174D01*
X173297000Y-61325646D01*
X167305793Y-61325646D01*
X167318656Y-61317712D01*
X167442712Y-61193656D01*
X167534814Y-61044334D01*
X167589999Y-60877797D01*
X167600500Y-60775009D01*
X167600499Y-59224992D01*
X167598851Y-59208863D01*
X167589999Y-59122203D01*
X167589998Y-59122200D01*
X167534814Y-58955666D01*
X167442712Y-58806344D01*
X167318656Y-58682288D01*
X167169334Y-58590186D01*
X167002797Y-58535001D01*
X167002795Y-58535000D01*
X166900010Y-58524500D01*
X165599998Y-58524500D01*
X165599981Y-58524501D01*
X165497203Y-58535000D01*
X165497200Y-58535001D01*
X165330668Y-58590185D01*
X165330663Y-58590187D01*
X165181342Y-58682289D01*
X165057289Y-58806342D01*
X164961821Y-58961121D01*
X164909873Y-59007845D01*
X164840910Y-59019068D01*
X164776828Y-58991224D01*
X164768601Y-58983705D01*
X164629786Y-58844890D01*
X164457820Y-58719951D01*
X164268414Y-58623444D01*
X164268413Y-58623443D01*
X164268412Y-58623443D01*
X164066243Y-58557754D01*
X164066241Y-58557753D01*
X164066240Y-58557753D01*
X163904957Y-58532208D01*
X163856287Y-58524500D01*
X163643713Y-58524500D01*
X163595042Y-58532208D01*
X163433760Y-58557753D01*
X163231585Y-58623444D01*
X163042179Y-58719951D01*
X162870213Y-58844890D01*
X162719894Y-58995209D01*
X162719890Y-58995214D01*
X162600318Y-59159793D01*
X162544989Y-59202459D01*
X162475375Y-59208438D01*
X162413580Y-59175833D01*
X162399682Y-59159793D01*
X162280109Y-58995214D01*
X162280105Y-58995209D01*
X162129786Y-58844890D01*
X161957820Y-58719951D01*
X161768414Y-58623444D01*
X161768413Y-58623443D01*
X161768412Y-58623443D01*
X161566243Y-58557754D01*
X161566241Y-58557753D01*
X161566240Y-58557753D01*
X161404957Y-58532208D01*
X161356287Y-58524500D01*
X161143713Y-58524500D01*
X161095042Y-58532208D01*
X160933760Y-58557753D01*
X160731585Y-58623444D01*
X160542179Y-58719951D01*
X160370213Y-58844890D01*
X160219894Y-58995209D01*
X160219890Y-58995214D01*
X160100008Y-59160218D01*
X160044678Y-59202884D01*
X159975065Y-59208863D01*
X159913270Y-59176257D01*
X159899372Y-59160218D01*
X159779727Y-58995540D01*
X159779723Y-58995535D01*
X159629464Y-58845276D01*
X159629459Y-58845272D01*
X159457557Y-58720379D01*
X159268215Y-58623903D01*
X159066124Y-58558241D01*
X159000000Y-58547768D01*
X159000000Y-59595854D01*
X158933343Y-59557370D01*
X158812535Y-59525000D01*
X158687465Y-59525000D01*
X158566657Y-59557370D01*
X158500000Y-59595854D01*
X158500000Y-58547768D01*
X158499999Y-58547768D01*
X158433875Y-58558241D01*
X158231784Y-58623903D01*
X158042442Y-58720379D01*
X157870540Y-58845272D01*
X157870535Y-58845276D01*
X157720276Y-58995535D01*
X157720272Y-58995540D01*
X157595379Y-59167442D01*
X157498904Y-59356782D01*
X157433242Y-59558869D01*
X157433242Y-59558872D01*
X157402970Y-59750000D01*
X119000500Y-59750000D01*
X119000500Y-56378711D01*
X120149500Y-56378711D01*
X120149500Y-56621288D01*
X120181161Y-56861785D01*
X120243947Y-57096104D01*
X120336773Y-57320205D01*
X120336776Y-57320212D01*
X120458064Y-57530289D01*
X120458066Y-57530292D01*
X120458067Y-57530293D01*
X120605733Y-57722736D01*
X120605739Y-57722743D01*
X120777256Y-57894260D01*
X120777262Y-57894265D01*
X120969711Y-58041936D01*
X121179788Y-58163224D01*
X121403900Y-58256054D01*
X121638211Y-58318838D01*
X121818586Y-58342584D01*
X121878711Y-58350500D01*
X121878712Y-58350500D01*
X122121289Y-58350500D01*
X122169388Y-58344167D01*
X122361789Y-58318838D01*
X122596100Y-58256054D01*
X122820212Y-58163224D01*
X123030289Y-58041936D01*
X123222738Y-57894265D01*
X123394265Y-57722738D01*
X123541936Y-57530289D01*
X123663224Y-57320212D01*
X123756054Y-57096100D01*
X123818838Y-56861789D01*
X123850500Y-56621288D01*
X123850500Y-56378712D01*
X123818838Y-56138211D01*
X123756054Y-55903900D01*
X123663224Y-55679788D01*
X123541936Y-55469711D01*
X123394265Y-55277262D01*
X123394260Y-55277256D01*
X123222743Y-55105739D01*
X123222736Y-55105733D01*
X123030293Y-54958067D01*
X123030292Y-54958066D01*
X123030289Y-54958064D01*
X122820212Y-54836776D01*
X122820205Y-54836773D01*
X122596104Y-54743947D01*
X122361785Y-54681161D01*
X122121289Y-54649500D01*
X122121288Y-54649500D01*
X121878712Y-54649500D01*
X121878711Y-54649500D01*
X121638214Y-54681161D01*
X121403895Y-54743947D01*
X121179794Y-54836773D01*
X121179785Y-54836777D01*
X120969706Y-54958067D01*
X120777263Y-55105733D01*
X120777256Y-55105739D01*
X120605739Y-55277256D01*
X120605733Y-55277263D01*
X120458067Y-55469706D01*
X120336777Y-55679785D01*
X120336773Y-55679794D01*
X120243947Y-55903895D01*
X120181161Y-56138214D01*
X120149500Y-56378711D01*
X119000500Y-56378711D01*
X119000500Y-55004427D01*
X119000816Y-54995581D01*
X119005213Y-54934108D01*
X119015131Y-54795434D01*
X119017646Y-54777938D01*
X119059356Y-54586199D01*
X119064333Y-54569248D01*
X119132911Y-54385385D01*
X119140259Y-54369298D01*
X119202815Y-54254734D01*
X119234291Y-54197089D01*
X119243845Y-54182221D01*
X119361448Y-54025123D01*
X119373020Y-54011769D01*
X119511769Y-53873020D01*
X119525123Y-53861448D01*
X119682221Y-53743845D01*
X119697089Y-53734291D01*
X119869298Y-53640258D01*
X119885385Y-53632911D01*
X120069248Y-53564333D01*
X120086199Y-53559356D01*
X120277938Y-53517646D01*
X120295436Y-53515130D01*
X120495582Y-53500816D01*
X120504428Y-53500500D01*
X120565892Y-53500500D01*
X204934108Y-53500500D01*
X204995572Y-53500500D01*
X205004418Y-53500816D01*
G37*
%TD.AperFunction*%
%TD*%
M02*
